Bold.Mono.sfdir
StartChar: exclam
Encoding: 33 33 0
Width: 500
Flags: W
HStem: -3 88.7998<240.365 301.852>
VStem: 206.5 87.0996<260.193 711.896> 215.5 86<178.773 501.556> 224.3 89.2998<170.516 463.887>
LayerCount: 2
Back
Fore
SplineSet
236 718.599609375 m 0xc0
 245.299804688 721.200195312 257.799804688 719.700195312 267.200195312 714.900390625 c 0
 272.299804688 712.299804688 280.5 704.700195312 283.700195312 699.599609375 c 0
 289.599609375 690.400390625 290.099609375 686.900390625 290 657.700195312 c 0
 290 631.5 290.400390625 625.299804688 293.799804688 610 c 0
 296.200195312 598.799804688 296.099609375 529.599609375 293.599609375 512.900390625 c 0xc0
 292 501.700195312 292 500.700195312 294 481.400390625 c 0
 295.200195312 470.5 297 455.299804688 298.099609375 447.700195312 c 0
 299.099609375 440.200195312 300 429.099609375 300 423.200195312 c 0
 300 416.799804688 300.599609375 410.599609375 301.5 407.799804688 c 0xa0
 302.200195312 405.200195312 303.400390625 398.799804688 303.900390625 393.599609375 c 0
 304.5 388.400390625 305.400390625 383 306 381.5 c 0
 309 373.700195312 311.200195312 362 312.099609375 350 c 0
 312.599609375 342.599609375 313.400390625 334 313.900390625 331 c 0
 315.099609375 323.799804688 315.099609375 306.799804688 313.900390625 300.5 c 0
 311.099609375 285.900390625 311 242.599609375 313.599609375 208.299804688 c 0
 314.900390625 191 304.900390625 174.599609375 288.299804688 166.700195312 c 0
 281.900390625 163.700195312 280.799804688 163.5 270.5 163.5 c 0
 260.200195312 163.5 259.099609375 163.700195312 252.700195312 166.700195312 c 0
 239.200195312 173.099609375 230.799804688 184.099609375 226.900390625 200.5 c 0
 225.200195312 208 224.799804688 213.599609375 224.299804688 236.900390625 c 0x90
 224.099609375 252.099609375 223.799804688 265.400390625 223.799804688 266.5 c 0
 223.400390625 278.700195312 225.099609375 308.299804688 226.299804688 312.299804688 c 0
 227.599609375 316.5 227.599609375 317.599609375 226.400390625 322.299804688 c 0
 225.599609375 325.099609375 224.700195312 332.700195312 224.5 339 c 0
 224.200195312 347.599609375 223.5 352.799804688 221.5 359.5 c 0
 220.099609375 364.5 218.5 371.700195312 218 375.5 c 0
 217.5 379.400390625 216.400390625 385.200195312 215.5 388.5 c 0xa0
 214.5 392.200195312 213.5 401.700195312 213 413.5 c 0
 212.5 424 211.5 437.200195312 210.599609375 443 c 0
 208.099609375 460.299804688 205 492.900390625 205 502 c 0
 205 506.700195312 205.700195312 515.5 206.5 521.5 c 0
 208.200195312 534 208.400390625 585.099609375 206.799804688 590.400390625 c 0
 206.299804688 592.099609375 205.5 598 205 603.5 c 0
 204.5 609 203.599609375 617.099609375 203 621.5 c 0
 201.5 632.299804688 202.599609375 678.400390625 204.5 686.200195312 c 0
 208.5 702.200195312 220 714.099609375 236 718.599609375 c 0xc0
260.5 85.7998046875 m 0
 267.5 86.5 269.599609375 86.2001953125 277 84 c 0
 286.799804688 81.099609375 293.299804688 76.7001953125 299.099609375 68.7998046875 c 0
 301.299804688 66 303 63.599609375 303 63.5 c 0
 303 63.400390625 304.099609375 59.7001953125 305.400390625 55.2998046875 c 0
 307.599609375 48.099609375 307.700195312 46.5 306.900390625 38.900390625 c 0
 306.299804688 34 305 28.400390625 303.5 25.2998046875 c 0
 301.099609375 19.900390625 301.599609375 17.7001953125 304.799804688 20.099609375 c 0
 307.200195312 22 303.799804688 17.7998046875 297.5 11.2001953125 c 0
 288.700195312 1.900390625 277.299804688 -3 264.5 -3 c 0
 251.400390625 -3 239.799804688 2.2001953125 230.599609375 12.099609375 c 0
 211.700195312 32.400390625 214.599609375 63.2001953125 237 81 c 0
 239.299804688 82.900390625 240.700195312 83.5 240.400390625 82.599609375 c 0
 239.599609375 80.400390625 242.099609375 80.5 247.799804688 83 c 0
 250.400390625 84.099609375 256.099609375 85.400390625 260.5 85.7998046875 c 0
EndSplineSet
EndChar
StartChar: quotedbl
Encoding: 34 34 1
Width: 500
Flags: W
HStem: 461 21G<350.575 386.854>
VStem: 78 82<483.55 712.873> 289 125<543.703 609.541>
LayerCount: 2
Back
Fore
SplineSet
289 627.75 m 0
 289 656.779816366 319.817605875 658 325 658 c 0
 364 658 414 604 414 537.333333333 c 0
 414 503.355171654 399.181109279 461 374.527595329 461 c 0
 326.621640239 461 289 606.387539212 289 627.75 c 0
160 534.791629699 m 0
 160 525.904055149 159.786610603 424 150 424 c 0
 143 424 119 451 103.02498079 476.172757543 c 0
 86 503 78 528 78 563.333333333 c 0
 78 614.422329228 100.298598675 730.497664458 109.819908009 746.366513349 c 0
 115 755 127 755 133.408368082 748.591631918 c 0
 152 730 160 621 160 534.791629699 c 0
EndSplineSet
Validated: 1
EndChar
StartChar: numbersign
Encoding: 35 35 3
Width: 500
VWidth: 0
InSpiro: 1
Flags: W
HStem: 86.9677 81.3299<186.458 266.73> 87 92.5979<34.766 78.543> 124.982 71.8233<374.738 434.226> 318.732 87.5149<22.3963 71.9058> 336.871 71.123<170.441 268.716 358.213 442.38>
VStem: 73 67.8736<409 494.765> 73.2646 75.9355<435.533 566.762> 79.2416 85.6076<190.014 287.459> 81.1256 96.0778<-21.7688 88.4666 205.341 316.175> 266.934 95.7118<-5.98092 88.8121 487.647 612.951> 266.934 85.3005<21.81 89 405.196 552.603> 289.405 70.833<195.313 317.421> 290.066 61.8612<181.56 249.48 251.394 334.059>
LayerCount: 2
Back
Fore
SplineSet
289.404806989 225.934424588 m 0x8010
 289.404806989 249.874398432 292.178134081 267.495665006 292.178134081 287.73596222 c 0
 292.178134081 297.045716383 291.63433294 314.885592256 285 335 c 1
 281.50453405 335.288919627 272.186808222 336.02243693 260.378742226 336.02243693 c 0
 230.940996733 336.02243693 199.734915368 331.625294711 169 316 c 1
 172.557499761 306.171696788 173.842851154 296.82752855 173.842851154 288.066597281 c 0
 173.842851154 275.09299825 171.024193904 263.398384189 168.591365587 253.304575074 c 0
 166.08485918 242.90507543 164.849201613 234.184926264 164.849201613 226.755933565 c 0
 164.849201613 197.732697722 183.708691074 188.416015239 219.329297083 175.65878927 c 0
 233.719815656 170.504943846 245.611624723 168.29756709 255.271782394 168.29756709 c 0
 279.952802691 168.29756709 290.06635262 182.706580767 290.06635262 199.19824004 c 0x8108
 290.06635262 202.226162423 289.404806989 214.265056481 289.404806989 225.934424588 c 0x8010
  Spiro
    169 316 v
    169 255 o
    169 208 o
    210 179 o
    284 180 o
    291 196 v
    290 246 o
    292 296 o
    285 335 v
    264 336 o
    211 331 o
    0 0 z
  EndSpiro
164 89 m 1
 168.592502332 77.8229344192 177.203369891 53.6612321503 177.203369891 29.455522873 c 0
 177.203369891 -10.9257238384 152.631431581 -31.4734035327 128.188683546 -31.4734035327 c 0
 109.974742569 -31.4734035327 91.8325376667 -20.0637994356 83.9827179428 3.05088898603 c 0
 80.645017443 12.8791283357 79.7358040568 23.4198632677 79.7358040568 33.8633083313 c 0
 79.7358040568 46.1774308208 81.1255797557 61.0025535075 81.1255797557 78.2684413838 c 0x80c0
 81.1255797557 81.1128249586 81.0878622291 84.0234491693 81 87 c 1
 38.8348072157 95.6385689594 18.1679398567 120.001813596 18.1679398567 142.139213304 c 0
 18.1679398567 152.991165755 23.1342884881 163.308236856 32.9690403208 170.975862408 c 0
 40.2218161047 176.630460497 49.4088701133 179.597894708 58.5778617015 179.597894708 c 0
 62.4369615703 179.597894708 66.2928617716 179.072228589 70 178 c 1
 76.351168266 187.565686428 79.2416185174 199.100405148 79.2416185174 210.972186941 c 0x41
 79.2416185174 213.171996317 79.142374626 215.383378785 78.9475150015 217.59595143 c 0
 78.0684030777 227.578003897 75.2147132497 237.907189964 74.2081994349 247.683447158 c 0
 73.945425483 250.235767553 73.8294318945 252.740224938 73.8294318945 255.194443921 c 0
 73.8294318945 273.687687715 80.4156112367 289.328367605 80.4156112367 301.100154163 c 0
 80.4156112367 307.65916834 78.3709284845 313.017082599 72.003046785 316.998095239 c 0
 69.9346544577 318.291193382 67.5056623014 318.732366884 64.8064732893 318.732366884 c 0
 59.0082633478 318.732366884 51.9632396971 316.696587568 44.5675191602 316.696587568 c 0
 36.0489694914 316.696587568 27.0651528277 319.397441103 18.9854370409 331.020950327 c 0
 14.1323028185 338.002687295 11.9417560973 345.996506131 11.9417560973 354.107129973 c 0
 11.9417560973 379.600193886 33.5832915351 406.247234405 62.2080881346 406.247234405 c 0
 65.7098310475 406.247234405 69.3160801425 405.848455038 73 405 c 1x54
 70.8032500229 417.390289215 69.7182026965 424.243578669 69.7182026965 435.00145784 c 0
 69.7182026965 446.278811274 70.9105691252 461.846946856 73.2645958191 492.582302911 c 0
 75.9846136838 528.096223702 73.5118072805 550.130375535 77.6713259649 567.583283614 c 0
 82.8561988865 589.338471501 97.3203033176 600.264784054 111.440297787 600.264784054 c 0
 123.680877325 600.264784054 135.6628547 592.053548197 141.116797032 575.567597898 c 0
 146.623622225 558.921795479 149.200112821 498.955665263 149.200112821 496.115692363 c 0x52
 149.200112821 467.157550693 140.873607697 447.456865178 140.873607697 415.539106147 c 0
 140.873607697 413.359149213 140.914816098 411.179095945 141 409 c 1
 153.366734807 409.742083681 165.755714766 410.113352526 178.144693541 410.113352526 c 0
 196.490446472 410.113352526 227.278100337 409.336466098 265 404 c 1
 268.575654245 421.068299415 270.229637774 438.510774118 270.229637774 455.954041193 c 0
 270.229637774 492.966408781 262.008955418 525.27009062 262.008955418 553.949672809 c 0
 262.008955418 606.664202098 292.714102952 623.289943694 313.565636491 623.289943694 c 0
 328.207164315 623.289943694 359.102754303 613.093710124 359.102754303 567.252715533 c 0
 359.102754303 564.839857903 359.017158627 562.328247105 358.839091662 559.714172098 c 0
 357.165535504 535.145879365 350.732106976 520.251689682 350.732106976 486.058086597 c 0
 350.732106976 463.268487439 353.173329944 442.513450095 353.173329944 418.038999551 c 0
 353.173329944 414.445583168 353.120704396 410.771987236 353 407 c 1
 359.390750812 405.727553958 365.894962582 405.195240608 372.412214042 405.195240608 c 0
 387.502945367 405.195240608 398.022188048 407.994230817 409.285954775 407.994230817 c 0
 409.799857884 407.994230817 410.315310786 407.988404467 410.832818352 407.976220119 c 0
 435.603260772 407.393017645 446.312100469 391.837031263 446.312100469 375.421482414 c 0
 446.312100469 357.665452376 433.782900406 338.903745681 412.967512162 336.997024064 c 0
 412.028178946 336.910979695 411.079569053 336.871195906 410.122895438 336.871195906 c 0
 398.37012999 336.871195906 385.400371392 342.875444843 373.462533525 342.875444843 c 0
 368.01859508 342.875444843 362.789252523 341.626814889 357.987778627 337.990744974 c 0
 356.055453962 336.527430222 351.581553229 333.139425578 351.581553229 317.642221924 c 0
 351.581553229 312.938607923 351.993691564 307.119487473 353.014119987 299.90010312 c 0
 355.415444522 282.911077355 360.237808113 267.489933126 360.237808113 250.603702493 c 0x0c10
 360.237808113 226.502719218 351.927522506 211.029441815 351.927522506 194.540994314 c 0x0808
 351.927522506 190.159338976 352.514380256 185.705994113 354 181 c 1
 370.477762054 192.290464689 385.167652091 196.805463029 397.489318836 196.805463029 c 0
 423.04774903 196.805463029 438.416697778 177.379299986 438.416697778 158.700997158 c 0
 438.416697778 142.586277143 426.976991698 127.028218562 400.771434737 124.982154196 c 0
 392.078349698 124.303419851 383.005819299 125.348705782 374.3313122 123.669268036 c 0
 362.810904737 121.438846536 352.234714785 116.849726486 352.234714785 91.2054008234 c 0x2820
 352.234714785 87.3743114727 352.470757846 83.0733047702 352.974958989 78.2400426288 c 0
 355.042720059 58.4185260998 362.645990815 39.3995241966 362.645990815 20.9445504495 c 0
 362.645990815 19.0127168599 362.562677768 17.0870636242 362.380981304 15.1673171951 c 0
 360.090967669 -9.0282307463 342.401440352 -23.595151216 322.926672813 -23.595151216 c 0
 302.245620659 -23.595151216 279.551320128 -7.16776589918 271.147821726 31.6009581073 c 0
 268.304591871 44.7179230003 266.934186181 61.176703337 266.934186181 81.2108382906 c 0x2840
 266.934186181 83.7496502992 266.956193597 86.3458791126 267 89 c 1
 249.86797794 87.6457419247 232.682518654 86.9676916095 215.497056239 86.9676916095 c 0
 208.307191519 86.9676916095 188.85121017 87.0355528415 164 89 c 1
  Spiro
    70 449 o
    75 540 o
    91 592 o
    129 594 o
    145 554 o
    149 488 o
    143 444 o
    141 409 v
    190 410 o
    265 404 v
    263 535 o
    285 613 o
    347 607 o
    352 511 o
    353 430 o
    353 407 v
    387 406 o
    434 401 o
    440 354 o
    413 337 o
    358 338 o
    352 331 v
    353 300 o
    356 219 o
    352 192 o
    354 181 v
    378 193 o
    419 192 o
    438 155 o
    401 125 o
    354 108 o
    353 101 v
    353 78 o
    356 -5 o
    290 -8 o
    267 75 o
    267 89 v
    209 87 o
    164 89 v
    175 52 o
    158 -20 o
    84 3 o
    81 68 o
    81 87 v
    39 105 o
    20 130 o
    33 171 o
    70 178 v
    79 217 o
    77 280 o
    72 317 o
    56 317 v
    19 331 o
    17 376 o
    43 402 o
    73 405 v
    0 0 z
  EndSpiro
EndSplineSet
Validated: 1
EndChar
StartChar: dollar
Encoding: 36 36 4
Width: 500
InSpiro: 1
Flags: HW
HStem: -3 90.2002<103.371 211.995>
VStem: 69.4004 90<392.82 520.961> 205.2 93.2998<124.452 227.997> 211.1 89.9004<-55.5684 -3 108.9 227.562 367.907 529.741>
LayerCount: 2
Back
Fore
SplineSet
354 641 m 1
 354 641 l 1
 359 641 l 1
 382 632 l 1
 446 589 l 1
 456 576 l 1
 466 552 l 1
 462 523 l 1
 443 497 l 1
 414 484 l 1
 390 486 l 1
 357 504 l 1
 305 529 l 1
 258 531 l 1
 212 518 l 1
 184 494 l 1
 177 460 l 1
 187 419 l 1
 215 384 l 1
 257 360 l 1
 314 335 l 1
 333 327 l 1
 377 301 l 1
 393 291 l 1
 401 284 l 1
 442 232 l 1
 452 209 l 1
 453 196 l 1
 453 195 l 1
 452 193 l 1
 451 131 l 1
 450 120 l 1
 437 95 l 1
 394 46 l 1
 388 40 l 1
 365 27 l 1
 308 -1 l 1
 298 -4 l 1
 276 -8 l 1
 237 -16 l 1
 221 -17 l 1
 189 -18 l 1
 160 -16 l 1
 147 -14 l 1
 139 -12 l 1
 111 -2 l 1
 86 14 l 1
 71 38 l 1
 71 74 l 1
 85 97 l 1
 96 106 l 1
 111 115 l 1
 137 116 l 1
 166 106 l 1
 180 103 l 1
 201 102 l 1
 202 102 l 1
 202 103 l 1
 223 104 l 1
 272 117 l 1
 316 140 l 1
 331 161 l 1
 328 182 l 1
 307 203 l 1
 266 224 l 1
 224 241 l 1
 198 254 l 1
 151 280 l 1
 132 300 l 1
 106 322 l 1
 78 369 l 1
 58 418 l 1
 57 427 l 1
 57 472 l 1
 58 504 l 1
 60 516 l 1
 90 570 l 1
 105 594 l 1
 112 602 l 1
 120 608 l 1
 182 637 l 1
 203 644 l 1
 273 653 l 1
 287 653 l 1
 288 653 l 1
 354 641 l 1
267 735 m 1
 289 713 l 1
 298 692 l 1
 298 683 l 1
 320 554 l 1
 320 550 l 1
 323 438 l 1
 323 436 l 1
 320 334 l 1
 323 228 l 1
 323 227 l 1
 322 176 l 1
 318 16 l 1
 318 -40 l 1
 315 -53 l 1
 304 -76 l 1
 275 -93 l 1
 241 -93 l 1
 212 -76 l 1
 201 -53 l 1
 198 -40 l 1
 198 18 l 1
 202 178 l 1
 203 225 l 1
 200 335 l 1
 200 337 l 1
 203 435 l 1
 200 544 l 1
 176 683 l 1
 185 710 l 1
 199 724 l 1
 207 730 l 1
 230 741 l 1
 267 735 l 1
EndSplineSet
EndChar
StartChar: percent
Encoding: 37 37 5
Width: 500
InSpiro: 1
Flags: W
VStem: 38.2998 87.9004<522.428 642.293> 46.0996 73.8008<-42.4227 -8.21627> 162.7 88.2002<537.368 635.987> 243.6 89.4004<48.0215 141.778>
LayerCount: 2
Back
Fore
SplineSet
148 733.700195312 m 0xa0
 148.700195312 734.5 165.799804688 733.299804688 171 732.200195312 c 0
 173.5 731.599609375 178.099609375 730.599609375 181.299804688 730 c 0
 187.5 728.799804688 207.400390625 719.099609375 212.5 715 c 0
 221.299804688 707.799804688 234.400390625 688.5 242 671.700195312 c 0
 250.299804688 653.299804688 255 632.599609375 255.700195312 610.5 c 0
 256.400390625 592.400390625 255 580.599609375 250.900390625 569 c 0
 249.200195312 564.299804688 246.400390625 554.900390625 244.599609375 548 c 0
 236.700195312 518.5 226.200195312 498.900390625 204.200195312 472.200195312 c 0
 184.700195312 448.599609375 163.599609375 433.900390625 140 427.400390625 c 0
 130.900390625 424.900390625 109 424.900390625 100 427.299804688 c 0
 67.099609375 436.5 44.7998046875 464.799804688 38.2998046875 506.099609375 c 0
 35.7001953125 522.299804688 35.900390625 596.700195312 38.400390625 607.5 c 0
 39.400390625 611.400390625 40.5 618.700195312 41 623.799804688 c 0
 42.2001953125 635.900390625 47 650.099609375 55.599609375 667.299804688 c 0
 70.2998046875 696.900390625 87.2998046875 717 104.5 725.400390625 c 0
 113.5 729.700195312 117.5 730.599609375 134 732 c 0
 141.400390625 732.700195312 147.700195312 733.400390625 148 733.700195312 c 0xa0
157.400390625 639.299804688 m 0
 155.299804688 642.5 154.5 643 151.200195312 642.900390625 c 0
 144.799804688 642.799804688 143.700195312 641.799804688 137.599609375 630.099609375 c 0
 132.700195312 620.5 131.799804688 617.900390625 131.299804688 612.200195312 c 0
 131.099609375 608.5 129.700195312 598.5 128.400390625 590 c 0
 126.099609375 575.799804688 125.900390625 572.400390625 126.200195312 548.799804688 c 0
 126.400390625 534.700195312 126.799804688 522.799804688 127.200195312 522.400390625 c 0
 128.799804688 520.900390625 146 542.599609375 150.900390625 552.5 c 0
 152.599609375 555.799804688 155.099609375 562.799804688 156.5 568 c 0
 157.900390625 573.200195312 160.700195312 582.599609375 162.700195312 588.799804688 c 0
 166.099609375 599.5 166.200195312 600.799804688 165.700195312 609.799804688 c 0
 165.200195312 620.5 161.700195312 632.700195312 157.400390625 639.299804688 c 0
425 712.599609375 m 0
 430.5 714.099609375 441 714.299804688 446.900390625 712.900390625 c 0
 469.099609375 707.799804688 484 685.799804688 480.799804688 662.799804688 c 0
 479.400390625 652.700195312 475.700195312 645.799804688 451.5 608 c 0
 424.599609375 566 419.599609375 556.5 398.200195312 507 c 0
 380.400390625 465.700195312 375.299804688 455 369.200195312 445.299804688 c 0
 366.400390625 441 362.799804688 434.099609375 361.099609375 430 c 0
 359.400390625 425.900390625 353.900390625 415.299804688 348.900390625 406.5 c 0
 335.799804688 383.299804688 325.700195312 362.200195312 313 331 c 0
 296.200195312 289.900390625 289.700195312 275.299804688 279.900390625 256 c 0
 275 246.400390625 269.200195312 233.599609375 267 227.5 c 0
 262.400390625 214.900390625 257.299804688 205.900390625 250.299804688 198 c 0
 241.200195312 187.599609375 229 167.299804688 208.799804688 129.299804688 c 0
 205.599609375 123.400390625 199.900390625 113 196.099609375 106.200195312 c 0
 192.299804688 99.5 184.200195312 82.2001953125 178 67.7001953125 c 0
 166.799804688 41.7001953125 159 24.7001953125 155.099609375 18 c 0
 154 16.099609375 150.799804688 9.599609375 147.900390625 3.5 c 0
 141.700195312 -9.5 127.099609375 -31 119.900390625 -37.400390625 c 0
 109.900390625 -46.400390625 96.2001953125 -50.400390625 83.2998046875 -48.099609375 c 0
 58.599609375 -43.7001953125 43 -22.599609375 46.099609375 2.099609375 c 0x40
 47.5 13.400390625 51.599609375 22.900390625 59 32 c 0
 61 34.5 64.7998046875 41 67.400390625 46.5 c 0
 70.099609375 52 73.900390625 59 75.900390625 62 c 0
 80.2998046875 68.599609375 81.5 71.2001953125 94.7001953125 101.900390625 c 0
 106.599609375 129.700195312 110.700195312 138.200195312 123 160 c 0
 127.700195312 168.5 134.900390625 181.799804688 139 189.5 c 0
 150.799804688 212.200195312 165 235.099609375 177 251 c 0
 181.200195312 256.599609375 183.700195312 261.400390625 186.900390625 270 c 0
 189.299804688 276.299804688 193.400390625 285.400390625 196.099609375 290.200195312 c 0
 204.700195312 305.200195312 210 317.099609375 234.099609375 375.5 c 0
 246.400390625 405.5 252.599609375 418.400390625 265.299804688 441.200195312 c 0
 271.599609375 452.5 278.700195312 466.200195312 281.099609375 471.5 c 0
 283.400390625 476.900390625 287.400390625 484.400390625 290 488.400390625 c 0
 295.400390625 496.700195312 301.5 509.700195312 315.5 542.5 c 0
 336.599609375 591.900390625 345.400390625 609 367.5 643.5 c 0
 374.5 654.5 384.799804688 670.900390625 390.400390625 680 c 0
 403.900390625 702.200195312 410.900390625 708.799804688 425 712.599609375 c 0
340 248.400390625 m 0
 341.400390625 248.700195312 351.5 248.700195312 362.5 248.5 c 0
 384.5 248.099609375 393.5 246.599609375 410.299804688 240.900390625 c 0
 434.200195312 232.799804688 450.5 220.200195312 465 198.700195312 c 0
 470 191.200195312 478.799804688 164.900390625 479.099609375 156.400390625 c 0
 479.5 145.700195312 477.099609375 113.700195312 475 102.299804688 c 0
 469.400390625 71.5 458 39.099609375 446 19.5 c 0
 430.900390625 -5.099609375 410.5 -24.400390625 387.599609375 -35.5 c 0
 363.200195312 -47.5 341.200195312 -48.7998046875 319.900390625 -39.7001953125 c 0
 284.799804688 -24.5 255 19 245.900390625 68.5 c 0
 244.099609375 78 243.599609375 84.2001953125 243.599609375 98 c 0x10
 243.700195312 118 244.5 123 251.5 143.5 c 0
 253.900390625 150.700195312 256.900390625 160.299804688 258 164.900390625 c 0
 260.599609375 175.099609375 262.700195312 179.5 273.700195312 197 c 0
 284.299804688 214.099609375 283.400390625 212.5 286.400390625 219.299804688 c 0
 291.200195312 230.299804688 304.400390625 241.299804688 316 243.900390625 c 0
 319.900390625 244.700195312 332.099609375 247.099609375 340 248.400390625 c 0
386 153.400390625 m 0
 385.200195312 154.200195312 383.299804688 155.200195312 381.799804688 155.5 c 0
 378.599609375 156.299804688 378.5 155.5 379.900390625 146.799804688 c 2
 380.700195312 142 l 1
 362.900390625 142 l 1
 345.099609375 142 l 1
 344 137.799804688 l 2
 343.400390625 135.400390625 340.700195312 126.700195312 338 118.5 c 0
 334.599609375 108.299804688 333 101.799804688 333 98.2998046875 c 0
 333 90.400390625 335.799804688 76.599609375 339 68.2001953125 c 0
 342.700195312 58.7001953125 349.5 48 351.900390625 48 c 0
 354.400390625 48 364.900390625 59.2001953125 369.200195312 66.5 c 0
 375.799804688 77.5 383.5 100.900390625 386.5 118.700195312 c 0
 388.599609375 131.400390625 388.299804688 151.099609375 386 153.400390625 c 0
EndSplineSet
EndChar
StartChar: ampersand
Encoding: 38 38 7
Width: 500
InSpiro: 1
Flags: HW
LayerCount: 2
Back
Fore
SplineSet
249 704 m 1
 254 703 l 1
 304 687 l 1
 326 673 l 1
 356 650 l 1
 361 645 l 1
 366 639 l 1
 384 609 l 1
 391 591 l 1
 398 556 l 1
 392 586 l 1
 399 553 l 1
 397 535 l 1
 394 508 l 1
 387 484 l 1
 379 461 l 1
 340 407 l 1
 320 386 l 1
 308 376 l 1
 318 385 l 1
 312 374 l 1
 334 368 l 1
 339 368 l 1
 359 361 l 1
 377 372 l 1
 386 392 l 1
 400 407 l 1
 422 418 l 1
 404 410 l 1
 429 418 l 1
 462 414 l 1
 487 393 l 1
 495 372 l 1
 497 358 l 1
 496 348 l 1
 478 285 l 1
 478 267 l 1
 475 271 l 1
 479 265 l 1
 487 240 l 1
 501 192 l 1
 502 185 l 1
 503 151 l 1
 504 126 l 1
 502 80 l 1
 503 15 l 1
 502 67 l 1
 503 9 l 1
 498 -9 l 1
 479 -34 l 1
 445 -45 l 1
 410 -35 l 1
 390 -12 l 1
 384 5 l 1
 382 63 l 1
 383 8 l 1
 382 70 l 1
 382 83 l 1
 377 114 l 1
 364 99 l 1
 337 75 l 1
 316 53 l 1
 281 25 l 1
 267 16 l 1
 222 -8 l 1
 262 13 l 1
 219 -9 l 1
 207 -13 l 1
 190 -16 l 1
 165 -22 l 1
 130 -20 l 1
 106 -17 l 1
 99 -15 l 1
 60 -15 l 1
 95 -15 l 1
 59 -11 l 1
 56 7 l 1
 47 17 l 1
 31 41 l 1
 20 68 l 1
 19 75 l 1
 16 89 l 1
 15 98 l 1
 15 92 l 1
 15 109 l 1
 17 157 l 1
 17 163 l 1
 26 197 l 1
 36 229 l 1
 56 269 l 1
 87 318 l 1
 85 329 l 1
 91 326 l 1
 84 330 l 1
 69 342 l 1
 34 373 l 1
 28 380 l 1
 7 420 l 1
 -7 454 l 1
 -8 459 l 1
 -13 512 l 1
 -8 461 l 1
 -14 518 l 1
 -13 530 l 1
 -5 558 l 1
 8 600 l 1
 23 626 l 1
 40 646 l 1
 45 650 l 1
 49 655 l 1
 46 651 l 1
 54 659 l 1
 87 680 l 1
 103 687 l 1
 128 695 l 1
 134 696 l 1
 164 702 l 1
 182 705 l 1
 233 705 l 1
 240 705 l 1
 249 704 l 1
194 261 m 1
 186 250 l 1
 155 197 l 1
 170 226 l 1
 143 169 l 1
 135 118 l 1
 136 143 l 1
 135 105 l 1
 152 99 l 1
 138 100 l 1
 165 101 l 1
 201 117 l 1
 180 107 l 1
 219 129 l 1
 272 178 l 1
 240 148 l 1
 305 217 l 1
 309 252 l 1
 322 246 l 1
 287 257 l 1
 274 260 l 1
 274 260 l 1
 248 265 l 1
 230 268 l 1
 231 268 l 1
 213 273 l 1
 204 275 l 1
 194 261 l 1
191 585 m 1
 189 585 l 1
 158 580 l 1
 141 573 l 1
 124 560 l 1
 114 540 l 1
 107 506 l 1
 115 473 l 1
 138 442 l 1
 165 420 l 1
 186 428 l 1
 223 461 l 1
 259 503 l 1
 274 529 l 1
 277 542 l 1
 275 554 l 1
 272 562 l 1
 253 577 l 1
 228 585 l 1
 227 585 l 1
 191 585 l 1
EndSplineSet
EndChar
StartChar: quotesingle
Encoding: 39 39 8
Width: 500
Flags: W
HStem: 463.044 320.956
VStem: 206.792 104.56<501.738 703.889>
LayerCount: 2
Back
Fore
SplineSet
218.684570312 745.65234375 m 2
 226 784 l 1
 265.913085938 741.3046875 l 2
 297.628016565 707.379000166 311.351712839 642.921668562 311.351712839 584.582013448 c 0
 311.351712839 520.072996207 294.572011192 463.043945312 266.996454537 463.043945312 c 0
 238.662310312 463.043945312 206.791729101 523.253826209 206.791729101 627.537223075 c 0
 206.791729101 662.229331223 210.31885554 701.799068129 218.684570312 745.65234375 c 2
EndSplineSet
Validated: 1
EndChar
StartChar: parenleft
Encoding: 40 40 9
Width: 500
InSpiro: 1
Flags: W
HStem: 638.3 90.6006<297.488 350.748>
VStem: 131.5 89.7002<130.255 329.605 386.58 510.078>
LayerCount: 2
Fore
SplineSet
296 728.900390625 m 0
 306.900390625 730.799804688 324.200195312 727.700195312 335 721.900390625 c 0
 342.799804688 717.799804688 350.299804688 709.700195312 354.299804688 701.299804688 c 0
 358.299804688 692.599609375 359.200195312 680.400390625 356.5 670.400390625 c 0
 352 653.599609375 336.400390625 640.099609375 319.5 638.299804688 c 0
 314.700195312 637.799804688 314.200195312 637.5 310.5 632.200195312 c 0
 308.299804688 629.099609375 304 623.900390625 300.900390625 620.599609375 c 0
 297.799804688 617.200195312 293.200195312 610.400390625 290.599609375 605.400390625 c 0
 287.900390625 600.400390625 283.599609375 593.400390625 280.900390625 589.900390625 c 0
 263.400390625 567.099609375 252.599609375 544.700195312 242.700195312 509.900390625 c 0
 237.099609375 490.599609375 231.5 465.700195312 229.599609375 451.900390625 c 0
 228.799804688 446.099609375 227.099609375 438.900390625 226 436 c 0
 222.700195312 427.700195312 219 403.400390625 217.900390625 383 c 0
 216.400390625 355 217.5 325.799804688 221.200195312 299 c 0
 224.200195312 276.700195312 224.200195312 276.299804688 223.599609375 245.400390625 c 0
 222.900390625 213.900390625 223.400390625 205.5 226.599609375 194.5 c 0
 227.400390625 191.799804688 229.400390625 181.5 231 171.700195312 c 0
 232.599609375 161.900390625 234.5 153 235.099609375 151.900390625 c 0
 237.599609375 147.099609375 244.200195312 128.299804688 245.5 121.900390625 c 0
 247.200195312 113.900390625 250.700195312 106.700195312 262.700195312 86.2001953125 c 0
 267.5 78.099609375 273.099609375 68.400390625 275.200195312 64.7001953125 c 0
 277.400390625 60.900390625 282 53.900390625 285.599609375 49.2001953125 c 0
 291.700195312 40.900390625 294.900390625 37.400390625 317.099609375 14.400390625 c 0
 322.299804688 9 327.700195312 2.900390625 329.099609375 1 c 0
 330.400390625 -0.900390625 336.900390625 -8 343.599609375 -14.7998046875 c 0
 350.299804688 -21.599609375 356.900390625 -29.2998046875 358.5 -32.099609375 c 0
 370.700195312 -54.5 362 -82.400390625 339.299804688 -93.7998046875 c 0
 324.700195312 -101.200195312 307.900390625 -100.200195312 293.5 -91.2001953125 c 0
 287.5 -87.400390625 267 -66.900390625 260.900390625 -58.5 c 0
 258.5 -55.2001953125 249.900390625 -46 241.900390625 -38 c 0
 233.900390625 -30 224.700195312 -19.900390625 221.5 -15.5 c 0
 218.200195312 -11.099609375 213 -4 209.799804688 0.2998046875 c 0
 206.700195312 4.5 202.299804688 11.099609375 200.200195312 14.7998046875 c 0
 198 18.5 191.5 29.599609375 185.700195312 39.5 c 0
 168.900390625 68.400390625 160.200195312 87.400390625 156.299804688 103.900390625 c 0
 155.400390625 107.5 153.700195312 112.799804688 152.5 115.5 c 0
 148.599609375 124.099609375 146.200195312 133.299804688 143.5 150.200195312 c 0
 142 159.200195312 140 169.299804688 138.900390625 172.799804688 c 0
 137.900390625 176.299804688 136.099609375 186.200195312 135 194.799804688 c 0
 133.099609375 209 132.900390625 213.5 133.5 241.5 c 0
 134.099609375 271.599609375 134.099609375 273 131.5 290 c 0
 126.900390625 321 126 372.200195312 129.599609375 408.200195312 c 0
 131 422.200195312 135.700195312 450.400390625 138 458 c 0
 138.599609375 459.900390625 140.900390625 470.299804688 143.099609375 481 c 0
 158.099609375 553.299804688 176.700195312 601 203.799804688 636.900390625 c 0
 207.299804688 641.599609375 211.700195312 648.400390625 213.599609375 652.200195312 c 0
 218.799804688 662.5 223.799804688 669.900390625 230 676.5 c 0
 233.099609375 679.799804688 238.299804688 686 241.5 690.299804688 c 0
 249.799804688 701.5 256.400390625 708.5 263.400390625 713.5 c 0
 271.900390625 719.5 289.400390625 727.799804688 296 728.900390625 c 0
EndSplineSet
EndChar
StartChar: parenright
Encoding: 41 41 10
Width: 500
InSpiro: 1
Flags: HW
VStem: 298.5 90.0996<191.538 508.379>
LayerCount: 2
Fore
SplineSet
238 727 m 1
 241 725 l 1
 299 678 l 1
 302 676 l 1
 306 671 l 1
 321 649 l 1
 350 606 l 1
 363 574 l 1
 379 533 l 1
 389 493 l 1
 398 458 l 1
 404 402 l 1
 408 312 l 1
 403 224 l 1
 402 204 l 1
 392 139 l 1
 391 126 l 1
 391 131 l 1
 390 125 l 1
 385 106 l 1
 364 52 l 1
 355 34 l 1
 331 -7 l 1
 312 -32 l 1
 282 -69 l 1
 256 -95 l 1
 210 -123 l 1
 172 -116 l 1
 148 -90 l 1
 143 -49 l 1
 170 -11 l 1
 193 13 l 1
 230 59 l 1
 254 101 l 1
 233 64 l 1
 256 106 l 1
 274 160 l 1
 283 232 l 1
 288 314 l 1
 284 389 l 1
 273 461 l 1
 255 517 l 1
 228 570 l 1
 187 614 l 1
 161 636 l 1
 152 653 l 1
 149 681 l 1
 160 711 l 1
 188 731 l 1
 218 733 l 1
 220 733 l 1
 238 727 l 1
EndSplineSet
EndChar
StartChar: comma
Encoding: 44 44 13
Width: 500
Flags: W
HStem: -124.899 321.685<184.305 203.061>
VStem: 131.325 227.615
LayerCount: 2
Back
Fore
SplineSet
139.882174252 149.284478983 m 0
 157.194375538 182.072979279 184.305223155 196.785772757 213.64716855 196.785772757 c 0
 271.171746514 196.785772757 337.27159198 140.236866165 354.923867249 52.479209078 c 0
 357.11990439 41.5616887287 358.940140921 28.3023753715 358.940140921 16.6621474333 c 0
 358.940140921 -17.3432538144 343.405519856 -37.5307374295 311.447617695 -62.5412190235 c 0
 257.992944492 -104.375226572 203.061196161 -124.899246304 169.507020994 -124.899246304 c 0
 151.002816266 -124.899246304 139 -118.657442144 139 -108.853271964 c 0
 139 -93.6796875 167.75 -60.046875 205.25 -27.5 c 2
 271.5 30 l 1
 194 67.5 l 2
 149.279690262 89.1385561212 131.324950785 102.379300164 131.324950785 121.509300833 c 0
 131.324950785 130.184341112 135.017209612 140.070463278 139.882174252 149.284478983 c 0
EndSplineSet
Validated: 1
EndChar
StartChar: period
Encoding: 46 46 30
Width: 500
Flags: W
HStem: -0.734698 140.947<192.868 272.12>
VStem: 167.832 155.471<31.0041 95.4388>
LayerCount: 2
Back
Fore
SplineSet
211.327944135 133.077587476 m 4
 218.370738733 137.567320931 223.998595065 140.212625493 230.361757342 140.212625493 c 4
 240.81143948 140.212625493 253.244146846 133.078580513 277.182972553 115.263538299 c 4
 310.499057931 90.4700302678 323.303493494 76.8383307003 323.303493494 64.2599020389 c 4
 323.303493494 57.2210742147 319.293826172 50.5120747467 312.625068329 42.3615299755 c 4
 288.884131875 13.3453968346 258.611377911 -0.734697818953 232.229345765 -0.734697818953 c 0
 228.774767983 -0.734697818953 225.386902152 -0.49327460069 222.089149236 -0.0123499520806 c 4
 189.677458832 4.71437797827 167.832167407 32.3055481971 167.832167407 63.5407289504 c 4
 167.832167407 87.4598251464 180.642468179 113.515806132 211.327944135 133.077587476 c 4
EndSplineSet
Validated: 1
EndChar
StartChar: one
Encoding: 49 49 21
Width: 500
InSpiro: 1
Flags: W
HStem: -20.3023 105.717<127.772 220.675> -9.5583 101.259<44.3041 189.771> 323.664 314.413<208.811 325.174>
VStem: 223.342 101.368<163.006 294.003> 228.316 106.635<89.6606 234.82> 237.163 87.5471<235.381 323.048> 267.019 116.441<525.97 627.7>
LayerCount: 2
Back
Fore
SplineSet
242.911456662 523.313226397 m 0xa4
 262.543588502 539.94493965 266.105752774 551.993641381 267.019470682 570.536653253 c 0
 268.738901977 605.430830813 277.360881395 638.076835446 316.78313043 638.076835446 c 0
 326.322996118 638.076835446 337.666528328 636.165082517 351.152383304 631.910806911 c 0
 376.816973904 623.814602263 383.46074843 609.71952598 383.46074843 595.735008927 c 0xa2
 383.46074843 586.864373982 380.787561351 578.038223615 378.600106637 570.815831896 c 0
 365.54571112 527.71370161 376.293838796 526.437034313 355.149122797 482.864237233 c 0
 336.626382301 444.694530293 336.489839337 435.346489833 335.690414548 380.616058879 c 0
 334.88457128 325.446204316 324.710316881 299.712460409 324.710316881 257.327899423 c 0xb0
 324.710316881 246.029816757 325.433247652 233.548611716 327.249256826 219.011375374 c 0
 332.511278398 176.888652472 332.511278398 176.888652472 334.950549179 125.135143846 c 0
 336.954223297 82.6236004215 354.64847738 73.075635133 386.126078427 66.9922722052 c 0
 429.756884822 58.5601801367 441.651221532 38.9886018189 441.651221532 21.5664148677 c 0
 441.651221532 8.10363716132 434.548836066 -4.07568890118 429.499613714 -8.8398150465 c 0
 419.574535885 -18.2044893432 406.744056763 -20.6539939755 395.050914644 -20.6539939755 c 0
 387.076817217 -20.6539939755 379.631639546 -19.5148493019 373.997495376 -18.6528006573 c 0
 343.331777437 -13.9608119912 328.859175995 -11.7464408139 314.398662316 -11.7464408139 c 0
 301.474575025 -11.7464408139 288.560143312 -13.5152571643 264.103435405 -16.8649535181 c 0
 245.984966796 -19.3465372402 231.053534387 -20.3022757936 218.240001616 -20.3022757936 c 0xa8
 175.278257473 -20.3022757936 156.124979475 -9.55829690953 120.483211428 -9.55829690953 c 0
 110.81491702 -9.55829690953 99.9333395342 -10.3488779595 87.0341307137 -12.3589509 c 0
 80.7195056064 -13.3429536581 75.1128094212 -13.9090891144 70.1521405018 -13.9090891144 c 0
 57.1230893869 -13.9090891144 36.5546651531 -13.1442455369 36.5546651531 42.1520551643 c 0
 36.5546651531 70.5633481414 47.5872517666 89.8568630838 128.34462746 91.6576669312 c 0
 129.636561652 91.6864756937 130.907230247 91.7002362226 132.157286819 91.7002362226 c 0x68
 158.873717811 91.7002362226 176.175195181 85.4148398354 190.441997565 85.4148398354 c 0
 197.096850561 85.4148398354 203.091411875 86.7824310845 209.07323419 90.7934592104 c 0
 225.198146699 101.605796018 228.315606528 136.724127102 228.315606528 162.266355344 c 0xa8
 228.315606528 178.111053587 227.115965671 190.270737477 227.077551118 190.657319221 c 0
 224.449956551 217.099904615 223.342456561 228.245141187 223.342456561 235.146497169 c 0xb0
 223.342456561 240.174639364 223.930338305 242.950050231 224.946534864 247.747550746 c 0
 227.940429688 261.881835938 235.025390625 274.749023438 236.787686003 288.383159763 c 0
 237.040754781 290.341046201 237.163189517 292.245798623 237.163189517 294.08979948 c 0
 237.163189517 311.623299784 226.09390215 323.664269511 211.003874854 323.664269511 c 0
 206.617746966 323.664269511 201.89192458 322.64698134 196.999498272 320.451595539 c 0
 185.382469496 315.238668779 176.315759796 304.551371477 163.641995431 300.079807435 c 0
 160.631459141 299.017628477 155.721761915 298.451034645 149.691686873 298.451034645 c 0
 122.127419564 298.451034645 71.1525830292 310.290151695 71.1525830292 340.7507765 c 0
 71.1525830292 345.911294248 72.6156519307 351.606282546 75.9034919273 357.868721055 c 0
 76.3344898621 358.689654576 104.180751769 403.933265874 137.878371649 426.832660476 c 0
 147.576171875 433.422851562 158.7421875 439.48828125 168.167262611 446.561887225 c 0
 197.229596675 468.373437529 198.50060879 485.689778614 242.911456662 523.313226397 c 0xa4
  Spiro
    264.179 551.86 o
    268.135 588.395 o
    278.469 617.517 o
    292.751 632.385 o
    333.099 636.277 o
    368.263 623.951 o
    383.227 600.67 o
    378.232 569.599 o
    365 506 o
    353.382 479.223 o
    335.671 379.27 o
    325 270 o
    327.096 220.238 o
    335.018 123.708 o
    352.22 80.1957 o
    387.81 66.667 o
    416.489 57.8117 o
    434.912 41.0265 o
    441.381 17.8574 o
    429.548 -8.79365 o
    376.572 -19.0472 o
    256.857 -17.8574 o
    161.174 -14.6874 o
    88.5418 -12.1237 o
    54.4766 -10.7139 o
    45.4893 -3.60201 o
    39.0615 13.9676 o
    36.6191 38.0957 o
    47.9702 73.5354 o
    89.589 88.6679 o
    172.333 87.4404 o
    209.063 90.7873 o
    224.758 119.599 o
    227.096 190.477 o
    225 248 o
    217.884 322.71 o
    179.358 308.984 o
    163.568 300.054 o
    139.678 298.439 o
    110.524 305.413 o
    78.5946 321.563 o
    71.2337 341.192 o
    85.5243 372.08 o
    107.402 399.571 o
    137.116 426.315 o
    168.857 447.08 o
    209.112 490.179 o
    239 520 o
    0 0 z
  EndSpiro
EndSplineSet
Validated: 1
EndChar
StartChar: five
Encoding: 53 53 34
Width: 500
InSpiro: 1
Flags: W
HStem: -13.0935 77.3478<78.0393 121.49> 296.12 114.537<175.348 317.435> 568.197 100.196<105.181 400.932>
VStem: 16.5776 88.3208<370.34 568.399> 353.518 86.7329<147.324 259.709>
LayerCount: 2
Back
Fore
SplineSet
59.8910005508 643.076587915 m 0
 92.2029059738 658.802978501 196.195342149 668.392834838 278.580983672 668.392834838 c 0
 320.908179637 668.392834838 357.532074683 665.861509051 375.801619311 660.330539318 c 0
 403.301712289 652.00508923 417.032293735 632.241176491 417.032293735 613.518035731 c 0
 417.032293735 593.850228485 401.881220039 575.3308659 371.624197634 572.424989116 c 0
 367.370520466 572.016467036 363.563748434 571.888163941 359.694644421 571.888163941 c 0
 353.159211945 571.888163941 346.445935647 572.254234656 337.100604903 572.254234656 c 0
 327.596819136 572.254234656 315.370966485 571.875644855 297.841870364 570.34844727 c 0
 280.932683175 568.87525837 266.610536165 568.196716958 252.563139267 568.196716958 c 0
 250.884536871 568.196716958 249.209857687 568.206405989 247.53515625 568.225585938 c 2
 104.8984375 569.862304688 l 1
 104.8984375 478.953125 l 1
 107.53515625 369.225585938 l 1
 177.53515625 396.225585938 l 2
 205.749032791 407.109215709 232.084780317 410.657557949 254.432778855 410.657557949 c 0
 295.638424203 410.657557949 323.287057396 398.594381698 324.154811021 398.205983472 c 0
 359.703513364 382.294724204 416.145252451 320.100635965 434.635808865 252.448956513 c 0
 438.558880827 238.095553574 440.250631276 221.958234673 440.250631276 205.025964423 c 0
 440.250631276 130.397723852 407.387244112 40.3270201436 387.857353912 19.4868218466 c 0
 371.917056876 2.47705129708 353.870371197 0.498568394698 335.670327031 0.498568394698 c 0
 332.908363999 0.498568394698 330.142869146 0.544132530813 327.380668141 0.589642397676 c 0
 325.553084557 0.619753561001 323.768573043 0.634274006086 322.022933636 0.634274006086 c 0
 279.528383625 0.634274006086 260.069218264 -7.97045749374 203.058126174 -9.7405096384 c 0
 202.287125006 -9.76444730072 146.218957847 -13.5080249503 121.697461615 -13.5080249503 c 0
 117.24694717 -13.5080249503 113.835587011 -13.3847106782 111.982574045 -13.0934635429 c 0
 85.9278556407 -8.99831567611 70.4910767131 12.5341421577 70.4910767131 32.4028613635 c 0
 70.4910767131 45.6428517547 77.3458371288 58.144052678 92.4812802258 64.2543541675 c 0
 108.57473473 70.7514126544 131.865155866 67.8453983997 164.011734913 72.0230851234 c 0
 288.246997338 88.1683802628 298.905637028 89.5535496603 331.695721147 147.158479688 c 0
 344.997431178 170.526644064 353.517748806 190.79682259 353.517748806 210.347785756 c 0
 353.517748806 223.592270312 349.607633248 236.50669497 340.625023838 249.830585398 c 0
 319.902234231 280.568666674 285.342015538 296.12045913 248.886517587 296.12045913 c 0
 214.984202064 296.12045913 179.442784982 282.670743399 151.866915286 255.477350283 c 0
 143.353515625 247.08203125 135.088867188 236.916992188 125.833018343 228.730961383 c 0
 112.658261255 217.078981194 98.1814617085 211.105558728 84.5277264296 211.105558728 c 0
 61.4789524831 211.105558728 40.7756299875 228.127768227 32.6405573366 263.590630254 c 0
 29.6708984375 276.536132812 28.6171875 290.287109375 27.5957036078 300.699786044 c 0
 24.447265625 332.793945312 18.849609375 361.27734375 15.5705982634 385.742841153 c 0
 12.8991220231 405.675373492 11.9765189261 422.401259455 11.9765189261 437.810671277 c 0
 11.9765189261 472.222595406 16.5776085993 500.069165918 16.5776085993 542.401253482 c 0
 16.5776085993 547.003112622 16.5194440849 549.958532547 16.5194440849 554.81644817 c 0
 16.5194440849 586.406398513 19.3925915884 623.365778877 59.8910005508 643.076587915 c 0
  Spiro
    252.626 668.923 o
    344.574 665.567 o
    403.476 644.689 o
    416.685 610.772 o
    400.535 582.226 o
    341.535 572.226 o
    247.535 568.226 [
    104.898 569.863 v
    104.898 478.954 v
    107.535 369.226 v
    177.535 396.226 ]
    278.208 408.759 o
    324.269 398.155 o
    366.263 366.454 o
    395.331 332.138 o
    420.237 290.459 o
    434.846 251.68 o
    434.889 147.131 o
    404.733 47.5632 o
    359.444 2.72502 o
    324.138 0.64324 o
    268.473 -3.82595 o
    204.898 -9.6832 o
    132.315 -13.7597 o
    92.7293 -6.1733 o
    74.4445 15.3168 o
    74.5106 49.0731 o
    115.511 68.5997 o
    207.172 78.5287 o
    264.329 86.7232 o
    302.165 107.333 o
    331.035 145.998 o
    349.842 187.043 o
    352.928 219.35 o
    340.91 249.408 o
    288.274 289.804 o
    218.007 292.349 o
    152.626 256.226 o
    90.8503 211.315 o
    50.674 226.612 o
    27.2765 303.954 o
    15 390 o
    12.2245 452.001 o
    16.5939 542.589 o
    31.5349 619.631 o
    94.9403 653.568 o
    0 0 z
  EndSpiro
EndSplineSet
Validated: 1
EndChar
StartChar: six
Encoding: 54 54 35
Width: 500
InSpiro: 1
Flags: W
HStem: -28.6616 87.7378<193.71 285.686> 561.473 87.3059<244.094 390.476>
VStem: 48.9745 72.7435<157.182 284.416> 332.58 87.4093<110.69 249>
LayerCount: 2
Back
Fore
SplineSet
131.290063177 586.468442806 m 0
 167.263809277 622.004313813 192.790939368 624.926907105 255.412821494 632.096467177 c 0
 300.919476655 637.306510164 327.149086731 648.778501979 348.479259912 648.778501979 c 0
 348.756727622 648.778501979 349.033366279 648.776560758 349.30920753 648.772639281 c 0
 381.494972756 648.315072662 397.972680341 624.749511833 397.972680341 602.220396248 c 0
 397.972680341 583.310293994 386.363641621 565.130398469 362.690426867 561.958675208 c 0
 360.152380092 561.618629208 357.594135964 561.472618193 355.01166798 561.472618193 c 0
 339.308310845 561.472618193 322.709262356 566.871461769 304.309205869 566.871461769 c 0
 294.486750399 566.871461769 284.15105851 565.332943813 273.164408227 560.613301627 c 0
 250.481296768 550.869096889 195.864034248 501.189421005 181.894766756 479.629135231 c 0
 181.496023123 479.01371093 156.889082576 438.515868764 156.889082576 405.549481979 c 0
 156.889082576 387.22089099 164.49537609 371.220361066 188.097301401 365.696410119 c 0
 214.760831416 359.455900926 311.783802485 369.526782097 370.449037318 331.430995872 c 0
 417.144790332 301.107901974 419.989242068 252.939897996 419.989242068 203.589208931 c 0
 419.989242068 200.166113847 419.975556903 196.737328654 419.96187122 193.308413805 c 0
 419.144695967 -11.4328744738 355.509726719 -28.6616074638 269.902495358 -28.6616074638 c 0
 268.136991659 -28.6616074638 266.362142704 -28.6542797297 264.578306773 -28.6411179084 c 0
 165.15300248 -27.907520123 161.698218264 -27.8820294085 141.148810236 -14.1841001069 c 0
 117.885136286 1.32311842761 108.651841589 25.3528591888 94.8437776762 61.2884820803 c 0
 87.3865192927 80.6960707733 63.5361687041 132.430591194 63.2588199646 133.165072685 c 0
 53.3571236832 159.386978921 48.9745183578 204.988684319 48.9745183578 256.381884125 c 0
 48.9745183578 338.83947637 60.2564209104 436.205797713 78.1262710122 492.357929063 c 0
 89.5261529256 528.179587495 106.210095542 561.693750388 131.290063177 586.468442806 c 0
  Spiro
    197 624 o
    319.403 644.461 o
    378.451 640.172 o
    397.835 603.782 o
    385.351 571.961 o
    338 563 o
    273.391 560.711 o
    229 528 o
    181.957 479.725 o
    157.556 413.556 o
    163.139 380.6 o
    187.552 365.824 o
    242 362.444 o
    290.649 358.182 o
    336.969 346.934 o
    370.889 331.146 o
    420.052 215.875 o
    405.435 61.7404 o
    337.556 -20.3574 o
    210.047 -28.3816 o
    141.086 -14.142 o
    108.745 26.8887 o
    94.3853 62.4817 o
    77.8414 101.152 o
    63.1113 133.556 o
    52.7289 179.585 o
    49.1519 253.227 o
    52.9648 342.444 o
    78.5218 493.601 o
    132.026 587.195 o
    0 0 z
  EndSpiro
159.067979765 124.404531214 m 0
 187.565475512 77.2133481279 216.225143776 59.0761834791 241.811653732 59.0761834791 c 0
 293.455792484 59.0761834791 332.579914533 132.966813791 332.579914533 190.978853237 c 0
 332.579914533 202.437868505 331.053393003 213.277342437 327.795311095 222.805420246 c 0
 322.498655782 238.295191646 310.648169875 272.951273045 216.982938283 288.462769479 c 0
 200.593909954 291.176886021 187.281059497 292.565323692 176.351361825 292.565323692 c 0
 147.055206642 292.565323692 134.881144111 282.589900124 126.483012256 261.43045442 c 0
 123.530847331 253.99235098 121.71801776 248.973853999 121.71801776 241.800183174 c 0
 121.71801776 230.893876734 125.908166889 215.006131359 136.655161958 178.060910038 c 0
 143.509494234 154.497595704 149.924509161 139.545903605 159.067979765 124.404531214 c 0
  Spiro
    331 172 o
    295.977 263.027 o
    261.215 277.891 o
    219.777 288 o
    170.729 292.347 o
    142.325 284.232 o
    126.444 261.333 o
    121.695 239.338 o
    124.852 219.999 o
    139 170 o
    187.263 87.0209 o
    208.667 68.8477 o
    284.765 76.4666 o
    0 0 z
  EndSpiro
EndSplineSet
Validated: 1
EndChar
StartChar: nine
Encoding: 57 57 38
Width: 500
InSpiro: 1
Flags: W
HStem: 8.81147 78.3546<121.443 287.366> 213.027 79.323<154.741 304.003> 566.601 78.2156<188.26 261.627>
VStem: 45.4541 75.7602<325.134 506.712> 334.042 113.943<320.488 446.599>
LayerCount: 2
Back
Fore
SplineSet
100.835109351 578.107570289 m 0
 145.496586657 622.769047595 182.408739336 644.816362825 219.041316954 644.816362825 c 0
 259.638976256 644.816362825 299.893263099 617.737978749 349.971499771 564.35276452 c 0
 420.198480297 489.488259515 447.985475065 428.727351165 447.985475065 331.693245106 c 0
 447.985475065 308.08827114 446.341104052 282.336732015 443.263304304 253.713410892 c 0
 424.291015625 77.2724609375 375.154296875 17.72265625 248.539594655 9.68378982362 c 0
 239.237510839 9.09319325013 230.003091828 8.81147390596 220.889299251 8.81147390596 c 0
 120.303314181 8.81147390596 34.4106226063 43.1272112722 34.4106226063 75.2487604301 c 0
 34.4106226063 83.8475169567 40.5657146513 92.2890374002 54.241719885 99.8729502737 c 0
 67.2860091692 107.106550418 82.4385699305 110.934669211 99.0109023285 110.934669211 c 0
 114.99858985 110.934669211 132.307641545 107.371885665 150.319884614 99.86685157 c 0
 170.52937675 91.4463052267 191.827088236 87.1661138588 212.855983537 87.1661138588 c 0
 267.170544379 87.1661138588 319.691796581 115.719841595 347.037255312 175.236756686 c 0
 352.149414062 186.36328125 363.63671875 214.36328125 363.63671875 216.837677313 c 0
 363.63671875 219.11500902 353.906282896 220.06804771 339.218567663 220.06804771 c 0
 320.611736768 220.06804771 294.049181492 218.538556922 269.235111526 216.23436515 c 0
 246.788986843 214.150056695 226.437794075 213.027036965 208.011076698 213.027036965 c 0
 81.0586643194 213.027036965 45.4541015625 266.332700331 45.4541015625 425.833864793 c 0
 45.4541015625 506.818359375 54.6328125 531.905273438 100.835109351 578.107570289 c 0
  Spiro
    113.637 590.909 o
    189.769 642.786 o
    264.083 634.876 o
    348.512 565.909 o
    415.982 475.539 o
    445.455 378.78 o
    443.353 254.546 o
    412.273 114.15 o
    348.739 37.1518 o
    240.909 9.19922 o
    118.625 20.4149 o
    42.5539 57.4953 o
    54.5459 100.041 o
    82.1857 109.739 o
    112.729 110.704 o
    143.182 102.841 o
    222.528 87.7643 o
    292.247 106.312 o
    337.53 154.546 o
    350.784 184.31 o
    360.124 207.075 o
    363.637 218.182 o
    348.346 220.224 o
    307.694 218.888 o
    250 214.448 o
    126.903 221.329 o
    63.3673 280.376 o
    45.4541 404.546 o
    50.0085 485.142 o
    69.7661 539.145 o
    0 0 z
  EndSpiro
297.719490338 472.523252752 m 0
 291.569533836 483.995163021 263.320816609 542.697608112 261.839312051 545.184154177 c 0
 252.616159345 560.664224051 243.390220379 566.600796221 233.295957 566.600796221 c 0
 220.415397922 566.600796221 206.120992623 556.934593137 188.614423222 545.09625138 c 0
 139.033923425 511.568785912 137.93288072 510.824235707 134.52541373 459.678422356 c 0
 132.375434926 427.407408444 121.214330893 406.119537065 121.214330893 380.591420626 c 0
 121.214330893 375.096796823 121.731396366 369.405733286 122.966673342 363.366431025 c 0
 133.084812151 313.898579081 180.441838926 292.349998415 227.678673832 292.349998415 c 0
 273.590156326 292.349998415 319.388096925 312.706339662 330.770629317 347.569665625 c 0
 333.111521771 354.739537308 334.042391426 362.512651649 334.042391426 370.341657219 c 0
 334.042391426 400.565819066 320.168950112 431.622969366 319.990833979 432.020454978 c 0
 313.774681293 445.892478805 305.192770641 458.582861301 297.719490338 472.523252752 c 0
  Spiro
    270 529 o
    250.085 559.225 o
    236.062 565.631 o
    188.637 545.111 o
    161.976 527.685 o
    143.337 505.926 o
    136.363 484.091 o
    134.479 458.975 o
    129.541 427.8 o
    122.685 397.728 o
    136.731 332.066 o
    199.782 294.443 o
    281.818 302.774 o
    330.736 347.462 o
    329.875 401.787 o
    320 432 o
    298 472 o
    286 496 o
    0 0 z
  EndSpiro
EndSplineSet
Validated: 1
EndChar
StartChar: colon
Encoding: 58 58 39
Width: 500
InSpiro: 1
Flags: W
HStem: 4.98615 170.899<198.694 287.818> 378.824 154.03<210.03 327.863>
VStem: 175.443 145.716<38.8745 152.598> 193.347 151.07<400.69 522.574>
LayerCount: 2
Back
Fore
SplineSet
202.19212634 14.054925431 m 0xe0
 189.909578123 23.2613021681 175.443097937 58.4813098573 175.443097937 93.4276993242 c 0
 175.443097937 121.370061545 184.691878757 149.137492827 211.700965898 163.292212191 c 0
 219.934410921 167.607134169 249.982278093 175.885105786 275.447274679 175.885105786 c 0
 291.621674888 175.885105786 305.947203637 172.545516508 311.659713322 162.729649829 c 0
 313.793724903 159.062754833 321.1594827 135.762413814 321.1594827 107.850748948 c 0
 321.1594827 73.6568967191 310.104908697 32.5423416747 264.834010611 12.1267328428 c 0
 254.457693309 7.44737272128 243.267712298 4.98615206944 232.694116574 4.98615206944 c 0
 221.180467917 4.98615206944 210.397676926 7.9044598516 202.19212634 14.054925431 c 0xe0
  Spiro
    179 123 o
    263.449 174.465 o
    284.71 175.203 o
    305.174 170.052 o
    315.253 153.674 o
    319.71 118.328 o
    319.579 82.8043 o
    312.052 56.7814 o
    295.306 33.9528 o
    264.821 12.1209 o
    231.537 5.00228 o
    202.21 14.0417 o
    182.412 49.3858 o
    0 0 z
  EndSpiro
209.541993506 400.199325379 m 0
 198.392267976 410.494324686 193.347364791 431.29300987 193.347364791 453.234801461 c 0
 193.347364791 482.971941948 202.613680099 514.808703381 218.507828932 525.443574368 c 0
 226.501579206 530.792240959 232.5039959 532.85460279 243.118864304 532.85460279 c 0
 251.407645712 532.85460279 262.508871721 531.597076693 279.566821951 529.664784029 c 0
 334.90488424 523.396191946 344.417324385 522.318640537 344.417324385 480.932140501 c 0xd0
 344.417324385 472.341169206 344.007442173 462.013322748 343.512476991 449.541631499 c 0
 341.342036166 394.852799167 309.295436493 378.824281625 276.657708192 378.824281625 c 0
 248.381852562 378.824281625 219.662313043 390.854818886 209.541993506 400.199325379 c 0
  Spiro
    218.446 525.402 o
    238.924 532.472 o
    280.335 529.578 o
    322.315 522.976 o
    339.568 509.808 o
    345.025 480.203 o
    340.947 426.776 o
    318.669 391.567 o
    280.96 378.953 o
    239.257 385.267 o
    209.507 400.232 o
    196 473 o
    0 0 z
  EndSpiro
EndSplineSet
Validated: 1
EndChar
StartChar: semicolon
Encoding: 59 59 40
Width: 500
InSpiro: 1
Flags: W
HStem: 339.243 173.043<171.528 274.19>
VStem: 115.501 179.767<366.273 457.543> 236.486 105.97<-23.8119 53.1945>
LayerCount: 2
Back
Fore
SplineSet
208.323332951 155.178477757 m 0xa0
 221.528302452 165.590356798 234.565629954 169.986917458 247.014664721 169.986917458 c 0
 292.136093649 169.986917458 329.529154212 112.229548797 339.164667512 73.7915531587 c 0
 341.384677974 64.9354860483 342.455783005 57.04409719 342.455783005 49.3448674197 c 0
 342.455783005 28.5893114338 334.671721815 9.230236704 320.627803414 -23.8669423837 c 0
 305.947179979 -58.4646386278 308.01508929 -65.422169823 296.610567714 -81.4201945186 c 0
 289.735962777 -91.063746757 245.715570924 -139.07333213 210.132941292 -138.959713783 c 0
 209.286703096 -138.957011673 140.243753101 -133.028176567 140.243753101 -88.8048279702 c 0
 140.243753101 -79.8240209095 143.091142234 -69.2639160122 149.935319632 -56.8534240904 c 0
 173.196941298 -14.6733123 219.091200447 -44.7285290271 234.035307677 -10.3008647527 c 0
 235.709186771 -6.44464593788 236.485902124 -2.63219619347 236.485902124 1.17576043695 c 0
 236.485902124 15.3978199724 225.65155147 29.5572053605 210.257832214 45.700070361 c 0
 191.88939589 64.9624190436 179.341754017 78.1207003825 179.341754017 98.4542290599 c 0
 179.341754017 103.575193382 180.137620307 109.151266125 181.836808367 115.39457268 c 0
 186.039868251 130.837825805 195.791615771 145.297445966 208.323332951 155.178477757 c 0xa0
  Spiro
    318 120 o
    338.348 21.6249 o
    328.396 -5.29688 o
    319.147 -27.3576 o
    310.885 -48.9952 o
    305.318 -65.7363 o
    296.741 -81.2366 o
    280.461 -99.4782 o
    259.714 -116.835 o
    232.082 -134.212 o
    210.243 -138.96 o
    183.89 -133.318 o
    164.827 -124.816 o
    149.536 -113.454 o
    141.743 -102 o
    143.605 -71.0461 o
    159.399 -44.1438 o
    218 -26 o
    234.511 12.1376 o
    225.027 28.7044 o
    209.714 46.2705 o
    182.4 82.451 o
    181.688 114.846 o
    255.228 169.282 o
    0 0 z
  EndSpiro
151.05193474 472.30448885 m 0
 178.9453125 500.198242188 201.951171875 512.286132812 223.412433679 512.286132812 c 0
 253.669921875 512.286132812 287.510742188 488.258789062 288.411399387 463.50344623 c 0
 288.616210938 457.874023438 291.1796875 434.263671875 292.977190629 420.782125752 c 0
 294.420477429 409.957255834 295.268148854 400.770218393 295.268148854 392.927279792 c 0
 295.268148854 358.059837933 278.514473947 349.757636262 222.859816432 342.211299552 c 0
 208.762894501 340.299867082 198.117668366 339.243334001 189.506560507 339.243334001 c 0
 171.292483991 339.243334001 162.17905842 343.970266005 148.751267635 355.332257936 c 0
 126.153422724 374.453536756 115.500931031 391.919775172 115.500931031 409.86812845 c 0xc0
 115.500931031 429.225742767 127.891910894 449.144153161 151.05193474 472.30448885 c 0
  Spiro
    156.967 478.22 o
    179.111 496.805 o
    201.076 508.346 o
    221.802 512.286 o
    253.003 505.21 o
    277.826 487.585 o
    288.355 465.033 o
    289.305 453.117 o
    291.332 434.443 o
    293.963 413.385 o
    293.906 374.125 o
    274.404 353.48 o
    227.297 342.812 o
    189.561 339.684 o
    164.687 345.276 o
    140.483 362.328 o
    116.332 395.661 o
    121.647 433.025 o
    0 0 z
  EndSpiro
EndSplineSet
Validated: 33
EndChar
StartChar: greater
Encoding: 62 62 43
Width: 500
InSpiro: 1
Flags: W
VStem: 320.937 123.02<262.253 312.329>
LayerCount: 2
Back
Fore
SplineSet
74.1150934053 420.714175748 m 0
 31.0907330502 463.715403897 8.92453702114 489.188657521 8.92453702114 512.981196631 c 0
 8.92453702114 516.49711384 9.40858327773 519.976329056 10.3808967565 523.469980749 c 0
 13.7058903074 535.417124959 24.2316397282 546.256984721 40.1531827736 546.256984721 c 0
 45.8017104321 546.256984721 52.1293721937 544.892640762 59.0555711403 541.729364488 c 0
 69.22265625 537.0859375 78.2080078125 529.875 87.1743917799 523.921604491 c 0
 103.663085938 512.973632812 121.423828125 505.391601562 137.099202833 496.120297287 c 0
 137.898787822 495.647377446 176.030970954 467.934781927 215.886437988 446.901755271 c 0
 272.32596551 417.116780333 303.056888447 385.713864596 347.123267963 368.496715442 c 0
 376.911830623 356.858043693 406.693964157 353.904826142 425.476299296 339.056708836 c 0
 435.572742598 331.075104131 443.957056361 319.892897292 443.957056361 304.765823017 c 0
 443.957056361 292.232657797 438.201607845 276.991521231 422.895940402 258.619116259 c 0
 409.977539062 243.112304688 394.046875 226.798828125 377.649142387 204.984421801 c 0
 334.282280269 147.29215583 331.372955324 143.421791677 286.677876516 113.835045649 c 0
 196.169441842 53.9212891126 209.112244892 36.2859996176 172.314396696 6.37045436147 c 0
 159.004546479 -4.45005406588 144.922255055 -9.20679689553 132.077381754 -9.20679689553 c 0
 106.564307737 -9.20679689553 85.9330609008 9.55937113145 85.9330609008 36.8497714723 c 0
 85.9330609008 55.9937198699 96.0854602286 79.3323449684 121.826883913 103.330179096 c 0
 193.967166457 170.58405579 240.822787545 154.239836562 272.979377017 228.069076608 c 0
 283.019246554 251.119902278 283.601872692 251.517504231 309.108014275 268.923677814 c 0
 315.974420042 273.60952378 320.937323635 280.634846241 320.937323635 287.00621352 c 0
 320.937323635 294.190441756 314.627302713 300.543206959 297.621157078 301.772982713 c 0
 244.315931357 305.627675924 258.784191729 342.142383807 196.107579466 354.955051348 c 0
 136.205657933 367.200502688 118.250864656 376.602134257 74.1150934053 420.714175748 c 0
  Spiro
    25.9076 542.911 o
    87.6914 523.578 o
    137.925 495.632 o
    176.34 469.503 o
    222.691 443.311 o
    393.869 353.923 o
    443.442 309.042 o
    424.528 260.578 o
    338.37 154.973 o
    213.691 53.5784 o
    113.16 -5.47441 o
    87.6914 25.5784 o
    122.017 103.508 o
    215.191 165.578 o
    271.351 224.329 o
    309.299 269.054 o
    320.191 289.328 o
    298.295 301.724 o
    250 326 o
    185.191 357.187 o
    77.0655 417.766 o
    11.6914 498.578 o
    0 0 z
  EndSpiro
EndSplineSet
Validated: 1
EndChar
StartChar: question
Encoding: 63 63 16
Width: 500
InSpiro: 1
Flags: W
HStem: -6.58105 106.931<225.562 268.694> 572.655 80.5411<144.514 307.459>
VStem: 175.128 82.7621<244.184 306.931> 218.746 77.8733<-2.56564 73.13> 335.4 75.5768<454.469 545.433>
LayerCount: 2
Back
Fore
SplineSet
218.74609375 75.3863911954 m 0xd8
 218.74609375 94.2734064284 219.662665244 100.350302492 225.238620113 100.350302492 c 0
 227.446488235 100.350302492 230.384883244 99.3975292169 234.286164213 97.9099907143 c 0
 277.819929712 81.3107883329 296.619352402 53.2713151566 296.619352402 30.4153758482 c 0
 296.619352402 9.81084611567 281.341166921 -6.5810546875 255.132958556 -6.5810546875 c 0
 230.413085938 -6.5810546875 218.74609375 8.001953125 218.74609375 75.3863911954 c 0xd8
  Spiro
    218.746 45.5021 o
    220.988 84.7445 o
    234.377 95.2592 o
    268.746 84.7707 o
    299.159 52.9391 o
    295.513 12.9742 o
    260.413 -6.58091 o
    236.295 -1.42189 o
    222.873 15.3556 o
    0 0 z
  EndSpiro
60.4076995867 540.694794289 m 0
 53.6284776879 559.607943375 50.19957069 575.720583014 50.19957069 589.332059742 c 0
 50.19957069 635.905421871 90.3435479097 653.196383809 173.779800939 653.196383809 c 0
 175.118467118 653.196383809 176.468277408 653.191932844 177.829244811 653.18308044 c 0
 198.361605199 653.049527822 319.538366695 647.789503658 320.954911255 647.577278187 c 0
 360.974825839 641.581529492 377.857496197 616.985347035 390.758311775 586.983809432 c 0
 404.946387625 553.988679117 410.976385101 516.897151667 410.976385101 484.396340631 c 0
 410.976385101 445.650080578 402.406237316 413.42838679 388.871685871 402.450393611 c 0
 371.095295491 388.031807733 349.148614894 397.171771402 320.352085685 356.119706398 c 0
 299.201167716 325.967153878 299.201167716 325.967153878 281.091393092 308.329246668 c 0
 271.233543746 298.728252969 257.88986643 283.069904221 257.88986643 268.654904933 c 0
 257.88986643 259.163444378 263.674986472 250.211035068 280.049487804 243.881784122 c 0
 294.819759961 238.172617344 302.992652001 222.24167419 302.992652001 205.942847892 c 0
 302.992652001 184.36362449 288.666329553 162.139536027 256.357230495 162.139536027 c 0
 254.409410312 162.139536027 252.396231222 162.2203101 250.316892042 162.386869177 c 0
 205.971549592 165.939016595 175.127805788 210.051270088 175.127805788 260.455489192 c 0xe8
 175.127805788 266.811201994 175.61821863 273.266956501 176.633813534 279.754048613 c 0
 176.894327374 281.418075549 199.852744718 388.984606046 262.071688571 424.905350836 c 0
 279.406183703 434.913042017 300.334862309 441.286719306 315.353614311 454.788969093 c 0
 328.802301411 466.87968958 335.399610823 482.533551999 335.399610823 498.463626557 c 0
 335.399610823 524.437316737 317.860864459 551.145308488 283.884652322 564.340124641 c 0
 272.396900449 568.801445208 249.485089446 572.65526496 224.517645975 572.65526496 c 0
 184.334331288 572.65526496 138.826393953 562.672869638 127.049289803 529.174700289 c 0
 121.581519168 513.622463989 114.70736189 494.069976237 100.381664199 494.069976237 c 0
 95.7982816475 494.069976237 90.4521412016 496.071416685 84.1452642259 500.845649205 c 0
 72.9761111016 509.30056822 65.9400858197 525.260154858 60.4076995867 540.694794289 c 0
  Spiro
    96.9128 644.919 o
    181.524 653.159 o
    284.955 649.214 o
    355.246 635.066 o
    390.437 587.731 o
    409.973 508.941 o
    405.223 433.509 o
    388.896 402.47 o
    356.913 387.919 o
    320.913 356.919 o
    278.836 306.132 o
    260.656 259.899 o
    281.246 243.419 o
    291.731 237.72 o
    299.23 222.721 o
    302.08 201.752 o
    276.381 165.653 o
    224.824 169.366 o
    186.348 210.086 o
    176.541 279.162 o
    200 346 o
    261.663 424.669 o
    315.53 454.948 o
    328.31 526.706 o
    284.413 564.135 o
    210.745 571.554 o
    154.722 559.163 o
    127.108 529.342 o
    108.573 496.96 o
    84.2291 500.782 o
    60.7429 539.759 o
    50.2812 590.289 o
    62.3619 625.413 o
    0 0 z
  EndSpiro
EndSplineSet
Validated: 1
EndChar
StartChar: at
Encoding: 64 64 17
Width: 500
InSpiro: 1
Flags: W
HStem: -96.5675 95.7213<119.458 178.834> 134.191 81.7225<230.408 376.825> 399.957 78.0164<185.293 257.079> 655.652 80.6407<182.467 263.205>
VStem: 10.0724 85.7611<91.743 534.155> 15.4554 100.149<1.77327 242.655> 122.117 61.796<259.237 399.239> 400.429 69.8851<265.783 495.316>
LayerCount: 2
Back
Fore
SplineSet
20.7009861228 492.746879397 m 0xfb
 24.5779722216 511.051312173 75.1048171259 736.292653017 213.892125955 736.292653017 c 0
 228.515847338 736.292653017 244.119470408 733.791936843 260.751672688 728.284927441 c 0
 381.445659523 688.322515429 452.251809574 499.172046864 463.110354425 451.320910821 c 0
 468.05585135 429.527231333 470.314588514 411.79635384 470.314588514 393.867864443 c 0
 470.314588514 363.657053247 463.900970748 332.885128858 453.121701312 281.16722546 c 0
 446.342773438 248.642578125 443.091796875 220.7578125 435.104206004 195.304382917 c 0
 426.036694815 166.409655928 409.075744463 134.190611022 344.57498654 134.190611022 c 0
 329.347815065 134.190611022 311.471129335 135.98626025 290.423294409 140.045209608 c 0
 240.201778377 149.730129268 240.201778377 149.730129268 197.454382752 153.150470922 c 0
 158.039875796 156.304138601 145.301086141 170.11827467 140.530299822 206.489821111 c 0
 137.846679688 226.94921875 133.8828125 246.451171875 131.212272527 258.340990912 c 0
 126.883139576 277.615223044 122.117076492 304.361460917 122.117076492 333.150688472 c 0
 122.117076492 372.295038987 130.928335036 415.216366429 161.629730381 448.267633969 c 0
 181.373918119 469.52303373 209.341565315 477.973130355 234.251156507 477.973130355 c 0
 261.407169286 477.973130355 284.928685664 467.930199246 290.198456281 453.487296945 c 0
 293.1573618 445.377801023 293.163273953 436.007841302 297.132322796 428.117774747 c 0
 303.219045097 416.017988133 313.461479101 413.944338958 324.799004276 411.648981263 c 0
 348.419067919 406.866941618 353.269500852 396.19078674 354.828267886 373.904545224 c 0
 355.696289062 361.494140625 356.075195312 345.71875 357.992141064 328.55293797 c 0
 360.647095462 304.778426817 358.301240868 287.689935745 361.590560342 278.101366432 c 0
 364.401941988 269.906015391 371.760023412 265.308530483 378.763013656 265.308530483 c 0
 386.641500513 265.308530483 394.070561081 271.12740376 394.070561081 284.188502213 c 0
 394.070561081 289.462914916 392.859063057 295.918357361 389.976429054 303.648563192 c 0
 384.616942782 318.020811624 381.859307936 328.024183931 381.859307936 338.816317034 c 0
 381.859307936 348.138489362 383.916886498 358.049186783 388.132447558 371.872556658 c 0
 396.113096494 398.042136585 400.429479952 417.054466524 400.429479952 433.832961686 c 0
 400.429479952 463.992924018 386.482647134 486.935056781 354.801421359 531.255000342 c 0
 331.093489733 564.42083171 320.39096393 587.200510656 307.91899743 600.917009668 c 0
 290.666231307 619.891367039 285.345044602 613.570629962 260.095266625 639.303056222 c 0
 253.617878037 645.904259779 244.053004544 655.651965366 229.12266666 655.651965366 c 0
 221.255426333 655.651965366 211.898437775 652.945465778 200.718421831 645.645983143 c 0
 200.122343552 645.256800957 147.285710872 613.032919238 140.667889105 607.414394174 c 0
 100.482597847 573.297115999 96.5727896833 503.6531754 96.5184231437 440.009374096 c 0
 96.406564261 309.062572106 95.8335013598 253.047075939 95.8335013598 244.636671389 c 0xfb
 95.8335013598 202.781679916 114.370495974 134.232212633 115.513985684 97.6478661108 c 0
 115.576877395 95.6357342195 115.604435878 93.6365338986 115.604435878 91.6498238815 c 0
 115.604435878 77.5655723623 114.219422719 64.1090489573 114.219422719 51.1230368459 c 0
 114.219422719 46.835945361 114.370370869 42.6001333956 114.771932644 38.4099442927 c 0
 117.303958783 11.9889326132 131.962534234 -0.846166086147 149.877813216 -0.846166086147 c 0
 155.059632491 -0.846166086147 160.513907277 0.22761706691 166.026006734 2.35701531182 c 0
 191.406377741 12.1617943987 230.714721702 64.7357188075 270.43913179 64.7357188075 c 0
 278.571942554 64.7357188075 286.722192607 62.5320982385 294.773933146 57.3066961219 c 0
 308.080822031 48.6708185738 314.687426977 34.845882452 314.687426977 18.9156964094 c 0
 314.687426977 -21.6044900771 271.942998611 -75.7455461572 187.995820919 -92.7571050084 c 0
 177.892912838 -94.8044188088 165.119463099 -96.5675053284 151.089242579 -96.5675053284 c 0
 113.9360056 -96.5675053284 67.9698370872 -84.2041045998 39.4435299589 -32.0158622645 c 0
 21.1455078125 1.4599609375 17.2294921875 41.423828125 15.4554146106 104.41539429 c 0xf7
 14.1494140625 150.787109375 13.671875 221.438476562 10.0723953291 290.609899637 c 0
 8.87778637448 313.566773676 8.03941731964 336.448726709 8.03941731964 359.378573394 c 0
 8.03941731964 403.369322931 11.1251312513 447.536350572 20.7009861228 492.746879397 c 0xfb
  Spiro
    86.5215 654.869 o
    186.874 732.797 o
    260.384 728.407 o
    336.087 680.646 o
    431.437 537.626 o
    467.876 357.959 o
    434.749 194.174 o
    406.562 150.568 o
    367.177 135.795 o
    290.435 140.043 o
    195.574 153.301 o
    151.28 173.137 o
    140.435 207.217 o
    129.521 265.869 o
    122.521 345.869 o
    135 406.13 o
    161.911 448.57 o
    192.014 470.555 o
    231.739 476.782 o
    264.884 472.994 o
    285.537 461.93 o
    292.608 444.174 o
    297.189 428.004 o
    309.048 416.145 o
    325.217 411.564 o
    344.091 403.489 o
    354.596 377.229 o
    357.826 330.043 o
    359.859 287.018 o
    366.213 270.258 o
    389.521 304.869 o
    387.521 369.869 o
    351.578 535.764 o
    320.521 583.869 o
    291.521 614.869 o
    270.869 628.956 o
    247.24 650.368 o
    194.483 641.575 o
    140.435 607.217 o
    114.557 570.997 o
    101.296 521.697 o
    96.5215 443.869 o
    96.5215 329.869 o
    107.805 154.149 o
    114.845 37.6514 o
    131.518 4.75864 o
    165.822 2.27814 o
    205.031 31.1299 o
    250.784 60.8072 o
    294.772 57.3083 o
    314.348 22.4346 o
    276.092 -51.9555 o
    187.355 -92.8868 o
    88.2607 -81.8516 o
    39.731 -32.5416 o
    16.1389 80.1575 o
    10 292 o
    19.747 488.243 o
    0 0 z
  EndSpiro
270.869140625 313.229480034 m 0
 270.869140625 368.086914062 261.951171875 387.70703125 223.224659243 397.388795756 c 0
 216.521323281 399.064653347 210.868828327 399.956753339 206.128360445 399.956753339 c 0
 189.217608426 399.956753339 183.913085938 388.604110874 183.913085938 360.98042923 c 0
 183.913085938 289.825195312 219.109375 215.913085938 243.262193561 215.913085938 c 0
 260.8359375 215.913085938 270.869140625 255.04296875 270.869140625 313.229480034 c 0
  Spiro
    270.869 300.695 o
    267.285 353.486 o
    254.004 382.705 o
    227.391 396.348 o
    200.679 398.607 o
    187.448 385.375 o
    183.913 352.869 o
    194.131 289.403 o
    218.908 237.371 o
    249.13 215.913 o
    259.959 227.726 o
    267.84 258.462 o
    0 0 z
  EndSpiro
EndSplineSet
Validated: 1
EndChar
StartChar: B
Encoding: 66 66 45
Width: 500
InSpiro: 1
Flags: W
HStem: 1.04297 92.3994<172.457 292.677>
VStem: 60.4971 73.3691<132.237 266.945>
LayerCount: 2
Fore
SplineSet
299.842773438 407.267578125 m 0
 326.93359375 501.69140625 152.5625 559.319335938 129.505859375 494.1953125 c 0
 117.758789062 461.013671875 141.622070312 445.987304688 123.376953125 401.8125 c 0
 110.556640625 370.775390625 123.326171875 360.559570312 149.256835938 361.297851562 c 0
 191.803710938 362.5078125 221.517578125 342.033203125 261.8359375 362.392578125 c 0
 280.49609375 371.815429688 294.436523438 388.42578125 299.842773438 407.267578125 c 0
  Spiro
    151.45 521.52 o
    127.3 460.16 o
    123.85 402.96 o
    134.2 362.4 o
    151.45 361.36 o
    179.05 359.28 o
    261.85 362.4 o
    299.8 407.12 o
    279.1 480.96 o
    219.3 515.28 o
    0 0 z
  EndSpiro
133.866210938 203.450195312 m 0
 133.866210938 125.388671875 189.454101562 93.4423828125 231.642578125 93.4423828125 c 0
 286.8203125 93.4423828125 391.66796875 168.0078125 332.131835938 249.897460938 c 0
 308.451171875 282.469726562 281.107421875 275.004882812 260.374023438 269.34375 c 0
 233.13671875 261.908203125 225.827148438 263.78125 199.22265625 270.599609375 c 0
 183.018554688 274.751953125 133.866210938 287.34765625 133.866210938 203.450195312 c 0
  Spiro
    137.65 237.6 o
    135.35 181.44 o
    164.1 122.16 o
    249.2 95.12 o
    320.5 137.76 o
    350.4 194.96 o
    332 250.08 o
    295.2 274 o
    230.8 264.64 o
    165.25 271.92 o
    0 0 z
  EndSpiro
41.4833984375 517.239257812 m 0
 49.7177734375 574.235351562 31.76171875 585.249023438 46.6201171875 606.015625 c 0
 67.3671875 635.012695312 122.294921875 609.005859375 128.833007812 610.762695312 c 0
 143.064453125 614.5859375 146.978515625 615.63671875 161.708007812 615.192382812 c 0
 175.990234375 614.760742188 187.869140625 615.59375 194.412109375 615.905273438 c 0
 226.201171875 617.418945312 251.354492188 618.6171875 323.059570312 552.20703125 c 0
 353.795898438 523.741210938 363.185546875 502.064453125 370.9296875 456.991210938 c 0
 375.296875 431.569335938 378.095703125 408.696289062 367.473632812 381.7109375 c 0
 361.080078125 365.46875 351.525390625 351.807617188 345.799804688 330.159179688 c 1
 354.708007812 325.749023438 362.76171875 320.0078125 370.55859375 312.970703125 c 0
 378.587890625 305.72265625 386.3203125 297.122070312 395.649414062 289.262695312 c 0
 427.689453125 262.271484375 430.630859375 259.793945312 435.958007812 229.825195312 c 0
 449.809570312 151.891601562 431.943359375 114.9140625 382.166015625 61.56640625 c 0
 327.21484375 2.6748046875 296.130859375 -0.234375 229.830078125 1.04296875 c 0
 202.013671875 1.578125 142.948242188 -1.41796875 142.0703125 -1.39453125 c 0
 62.0400390625 0.7001953125 60.4921875 68.2265625 60.4970703125 94.779296875 c 0
 60.5 111.497070312 61.712890625 128.78125 61.7490234375 145.728515625 c 0
 61.8701171875 201.841796875 50.568359375 236.662109375 47.650390625 323.4609375 c 0
 45.076171875 400.025390625 37.3935546875 454.249023438 37.330078125 455.572265625 c 0
 36.353515625 476.123046875 38.3076171875 495.256835938 41.4833984375 517.239257812 c 0
  Spiro
    57.15 615.12 o
    103.15 617.2 o
    116.95 613.04 o
    126.15 606.8 v
    150.3 615.12 o
    164.1 615.12 o
    199.75 616.16 o
    290.6 579.76 o
    351.55 518.4 o
    371.1 456 o
    367.65 382.16 o
    352.7 349.92 o
    345.8 330.16 v
    369.95 313.52 o
    395.25 289.6 o
    419.4 268.8 o
    435.5 232.4 o
    440.1 171.04 o
    381.45 60.8 o
    299.8 5.68 o
    183.65 0.48 o
    100.85 7.76 o
    68.65 43.12 o
    61.75 146.08 o
    56 222 o
    47.95 314.56 o
    43.35 399.84 o
    41.05 514.24 o
    42.2 567.28 o
    0 0 z
  EndSpiro
EndSplineSet
Validated: 33
EndChar
StartChar: C
Encoding: 67 67 46
Width: 500
InSpiro: 1
Flags: W
HStem: -22.6436 103.114<338.357 417.027> -22.6436 91.543<240.601 408.097> 521.017 106.425<280.169 361.843 362.66 418.459>
VStem: 27.0508 100.803<185.022 365.806>
LayerCount: 2
Back
Fore
SplineSet
386.211914062 627.15234375 m 0xb0
 414.639648438 621.653320312 430.83203125 598.583007812 430.83203125 575.18359375 c 0
 430.83203125 551.52734375 414.283203125 527.534179688 377.09765625 521.016601562 c 0
 355.807617188 517.286132812 329.108398438 522.072265625 298.233398438 508.666992188 c 0
 274.708007812 498.453125 256.232421875 481.387695312 222.178710938 462.545898438 c 0
 168.537109375 432.866210938 162.05859375 425.603515625 150.458984375 369.23046875 c 0
 145.909179688 347.119140625 140.081054688 327.651367188 136.21484375 312.698242188 c 0
 130.830078125 291.872070312 127.853515625 273.587890625 127.853515625 256.522460938 c 0
 127.853515625 211.737304688 148.352539062 175.341796875 199.62890625 123.4140625 c 0
 236.16796875 86.4111328125 240.836914062 85.5302734375 302.836914062 73.841796875 c 0
 319.689453125 70.6650390625 329.056640625 68.8994140625 337.841796875 68.8994140625 c 0x70
 348.836914062 68.8994140625 358.91796875 71.666015625 381.6171875 77.8955078125 c 0
 388.05078125 79.66015625 393.995117188 80.470703125 399.422851562 80.470703125 c 0
 424.680664062 80.470703125 438.749023438 62.912109375 438.749023438 42.2626953125 c 0
 438.749023438 15.01953125 414.263671875 -17.603515625 358.682617188 -22.38671875 c 0
 357.252929688 -22.509765625 353.9453125 -22.6435546875 349.092773438 -22.6435546875 c 0
 312.461914062 -22.6435546875 187.837890625 -15.0048828125 119.40625 62.673828125 c 0
 115.888671875 66.666015625 39.091796875 165.288085938 29.015625 232.892578125 c 0
 27.7314453125 241.514648438 27.05078125 249.284179688 27.05078125 257.216796875 c 0
 27.05078125 283.381835938 34.4521484375 311.31640625 51.96875 377.430664062 c 0
 69.5859375 443.922851562 79.54296875 454.279296875 136.647460938 513.673828125 c 0
 186.405273438 565.42578125 234.053710938 614.985351562 335.600585938 627.44140625 c 0
 343.595703125 628.422851562 352.784179688 629.241210938 362.288085938 629.241210938 c 0
 370.212890625 629.241210938 378.357421875 628.671875 386.211914062 627.15234375 c 0xb0
  Spiro
    377 521 o
    349 519 o
    299 509 o
    223 463 o
    169 423 o
    150 367 o
    135 308 o
    154 177 o
    203 120 o
    261 82 o
    302 74 o
    354 70 o
    382 78 o
    424 73 o
    438 34 o
    410 -6 o
    305 -20 o
    192 10 o
    120 62 o
    82 116 o
    52 168 o
    29 233 o
    50 370 o
    76 442 o
    136 513 o
    174 552 o
    245 601 o
    332 627 o
    387 627 o
    406 620 o
    425 598 o
    426 553 o
    392 525 o
    0 0 z
  EndSpiro
EndSplineSet
Validated: 1
EndChar
StartChar: D
Encoding: 68 68 47
Width: 500
InSpiro: 1
Flags: W
HStem: -3.0625 94.748<128.436 265.911> 484.067 107.302<170.97 310.076>
VStem: 49.0205 83.8437<264.735 444.117> 374.681 90.4658<224.506 408.426>
LayerCount: 2
Back
Fore
SplineSet
310.05078125 463.227539062 m 0
 292.418945312 475.615234375 265.411132812 484.067382812 237.754882812 484.067382812 c 0
 186.426757812 484.067382812 132.864257812 454.950195312 132.864257812 367.830078125 c 0
 132.864257812 357.799804688 133.57421875 347.001953125 135.079101562 335.389648438 c 0
 136.876953125 321.51953125 139.774414062 307.185546875 141.533203125 293.547851562 c 0
 142.9140625 282.842773438 143.431640625 273.184570312 143.431640625 264.319335938 c 0
 143.431640625 237.8515625 138.821289062 218.459960938 138.821289062 199.4375 c 0
 138.821289062 185.090820312 141.443359375 170.955078125 150.642578125 154.15234375 c 0
 155.909179688 144.532226562 162.580078125 135.860351562 166.794921875 126.45703125 c 0
 175.008789062 108.134765625 167.311523438 91.685546875 180.431640625 91.685546875 c 0
 180.9375 91.685546875 181.474609375 91.7099609375 182.044921875 91.759765625 c 0
 182.255859375 91.7783203125 186.237304688 93.9130859375 203.150390625 93.9130859375 c 0
 204.357421875 93.9130859375 276.124023438 102.916015625 307.270507812 144.130859375 c 0
 315.072265625 154.453125 356.517578125 229.129882812 360.586914062 238.08984375 c 0
 370.194335938 259.248046875 374.680664062 284.380859375 374.680664062 310.287109375 c 0
 374.680664062 370.469726562 350.473632812 434.828125 310.05078125 463.227539062 c 0
  Spiro
    142 422 o
    135 336 o
    143 249 o
    167 126 o
    172 99 o
    176 93 o
    188 93 o
    199 94 o
    229 99 o
    271 115 o
    330 183 o
    361 239 o
    373 332 o
    341 431 o
    269 481 o
    208 480 o
    173 465 o
    0 0 z
  EndSpiro
49.0205078125 396.7265625 m 0
 48.6767578125 434.8984375 41.5810546875 507.948242188 41.5810546875 509.07421875 c 0
 41.5810546875 551.689453125 69.814453125 568.546875 93.287109375 568.546875 c 0
 107.0546875 568.546875 119.184570312 562.748046875 123.021484375 552.9453125 c 0
 127.21484375 542.23046875 132.57421875 533.04296875 138.622070312 533.04296875 c 0
 142.560546875 533.04296875 146.791015625 536.938476562 151.181640625 546.844726562 c 0
 167.822265625 584.389648438 207.807617188 591.369140625 243.33984375 591.369140625 c 0
 296.1328125 591.369140625 344.860351562 552.3515625 362.71875 536.252929688 c 0
 386.142578125 515.138671875 431.9140625 454.564453125 432.530273438 453.676757812 c 0
 452.23046875 425.3046875 465.146484375 386.272460938 465.146484375 332.744140625 c 0
 465.146484375 301.556640625 460.697265625 264.787109375 443.510742188 224.862304688 c 0
 427.166015625 186.896484375 357.418945312 76.736328125 356.435546875 75.3125 c 0
 306.749023438 3.3837890625 252.419921875 -3.0625 144.0546875 -3.0625 c 0
 86.326171875 -3.0625 72.6318359375 13.2158203125 72.6318359375 36.330078125 c 0
 72.6318359375 46.28515625 75.1728515625 57.5078125 77.8291015625 69.244140625 c 0
 79.9052734375 78.4189453125 80.9091796875 87.0419921875 80.9091796875 95.6611328125 c 0
 80.9091796875 101.060546875 80.515625 106.458007812 79.58984375 112.543945312 c 0
 74.7041015625 144.68359375 71.0673828125 133.466796875 66.1689453125 196.740234375 c 0
 60.52734375 269.604492188 49.7138671875 319.598632812 49.0205078125 396.7265625 c 0
  Spiro
    73 564 o
    109 566 o
    123 553 o
    130 537 o
    155 555 o
    169 570 o
    185 581 o
    205 588 o
    219 590 o
    278 587 o
    313 571 o
    363 536 o
    411 481 o
    433 453 o
    458 396 o
    444 226 o
    388 127 o
    314 30 o
    155 -3 o
    118 -2 o
    75 24 o
    78 70 o
    71 153 o
    67 186 o
    60 259 o
    49 399 o
    43 488 o
    0 0 z
  EndSpiro
EndSplineSet
Validated: 1
EndChar
StartChar: E
Encoding: 69 69 48
Width: 500
InSpiro: 1
Flags: W
HStem: 29.2051 90<361.155 453.751> 32.7158 90.002<151.742 152.125 360.9 414.041> 296.514 90<123.126 147.962 251.913 381.477> 552.271 90.0117<90.4336 132.581 203.813 316.376 380.001 431.257> 559.975 90.0254<159.448 335.414>
VStem: 68.6982 90<132.658 159.674 298.132 303.359> 82.292 89.4463<386.885 396.298 431.289 547.543> 102.962 55.3848<316.677 366.35>
LayerCount: 2
Back
Fore
SplineSet
160.190429688 326.876953125 m 0x61
 167.200195312 394.372070312 169.14453125 369.212890625 167.881835938 396.297851562 c 0
 168.829101562 406.641601562 170.979492188 417.640625 171.73828125 431.2890625 c 0
 174.983398438 489.70703125 163.052734375 543.51171875 160.197265625 594.084960938 c 0
 158.862304688 617.7265625 139.2421875 636.513671875 115.26953125 636.513671875 c 0
 90.43359375 636.513671875 70.26953125 616.349609375 70.26953125 591.513671875 c 0
 70.26953125 565.618164062 82.2919921875 495.861328125 82.2919921875 451.7578125 c 0x62
 82.2919921875 419.618164062 76.927734375 411.69140625 78.01171875 391.297851562 c 0
 76.9765625 388.833984375 69.4091796875 337.463867188 70.298828125 322.115234375 c 0
 68.568359375 316.296875 67.91796875 309.37890625 67.91796875 300.666015625 c 0
 67.91796875 300.0546875 68.3466796875 311.036132812 68.3466796875 239.58984375 c 0
 68.3466796875 237.661132812 68.6982421875 221.735351562 68.6982421875 221.5546875 c 0
 68.6982421875 218.110351562 65.658203125 213.377929688 65.658203125 189.116210938 c 0
 65.658203125 183.048828125 66.3984375 159.967773438 66.40234375 159.673828125 c 0
 61.51953125 148.65625 61.51953125 138.276367188 61.51953125 132.377929688 c 0
 61.51953125 120.087890625 62.9296875 112.90234375 63.5615234375 101.029296875 c 1
 52.376953125 70.4443359375 68.400390625 40.0478515625 102.366210938 33.7109375 c 0
 113.541992188 31.6259765625 121.551757812 32.0458984375 140.71875 33.05078125 c 0
 145.229492188 33.02734375 150.711914062 32.7158203125 156.951171875 32.7158203125 c 0x64
 178.7578125 32.7158203125 173.249023438 35.4267578125 189.314453125 36.44921875 c 0
 248.900390625 40.2412109375 245.401367188 34.974609375 297.961914062 34.974609375 c 2
 344.116210938 34.974609375 l 2
 350.939453125 34.974609375 356.932617188 35.55078125 360.900390625 35.55078125 c 0
 366.048828125 35.55078125 389.016601562 29.205078125 415.26953125 29.205078125 c 0
 440.10546875 29.205078125 460.26953125 49.3681640625 460.26953125 74.205078125 c 0
 460.26953125 99.041015625 440.10546875 119.205078125 415.26953125 119.205078125 c 0xa4
 396.948242188 119.205078125 380.435546875 125.55078125 360.900390625 125.55078125 c 0
 360.271484375 125.55078125 371.655273438 124.974609375 297.961914062 124.974609375 c 0
 273.25 124.974609375 246.305664062 127.811523438 217.97265625 127.811523438 c 0
 207.795898438 127.811523438 168.959960938 126.563476562 156.364257812 122.717773438 c 0
 155.135742188 122.725585938 153.721679688 122.756835938 152.125 122.80078125 c 0
 151.969726562 124.670898438 151.837890625 126.395507812 151.737304688 127.876953125 c 0
 155.395507812 137.6171875 156.423828125 148.18359375 156.423828125 156.897460938 c 0
 156.423828125 159.2578125 155.658203125 188.793945312 155.658203125 189.116210938 c 0
 155.658203125 204.307617188 158.698242188 198.560546875 158.698242188 221.5546875 c 0x64
 158.698242188 222.177734375 158.346679688 211.530273438 158.346679688 283.821289062 c 0
 158.346679688 288.107421875 157.9609375 297.98828125 157.95703125 298.131835938 c 0
 159.584960938 303.359375 161.408203125 309.21484375 160.190429688 326.876953125 c 0x61
  Spiro
    163.93 360.472 o
    165.758 369.503 o
    167.683 377.853 o
    167.882 396.298 o
    169.133 406.923 o
    170.613 418.462 o
    171.738 431.289 o
    170.827 488.165 o
    165.173 542.436 o
    160.197 594.085 o
    153.295 615.574 o
    137.256 630.778 o
    115.27 636.514 o
    92.5847 630.378 o
    76.4054 614.199 o
    70.2695 591.514 o
    73.3811 553.62 o
    79.1804 501.784 o
    82.292 451.758 o
    80.9437 426.351 o
    78.6377 408.878 o
    78.0117 391.298 o
    75.358 375.703 o
    71.67 346.296 o
    70.2988 322.115 o
    68.9135 315.911 o
    68.1502 308.799 o
    67.918 300.666 o
    68.0289 300.44 o
    68.2357 287.016 o
    68.3467 239.59 o
    68.4377 234.105 o
    68.6073 225.875 o
    68.6982 221.555 o
    67.9114 217.012 o
    66.445 207.53 o
    65.6582 189.116 o
    65.8499 178.865 o
    66.208 166.078 o
    66.4023 159.674 o
    62.9685 149.021 o
    61.6998 139.619 o
    61.5195 132.378 o
    61.9078 121.437 o
    62.7522 111.693 o
    63.5615 101.029 v
    61.0972 71.4191 o
    74.7453 47.1639 o
    102.366 33.7109 o
    113.006 32.3905 o
    124.754 32.3124 o
    140.719 33.0508 o
    145.54 32.9537 o
    150.978 32.7973 o
    156.951 32.7158 o
    171.454 33.4552 o
    178.637 35.0285 o
    189.314 36.4492 o
    232.254 37.7529 o
    259.704 36.1977 o
    297.962 34.9746 [
    344.116 34.9746 ]
    350.612 35.1237 o
    356.307 35.4017 o
    360.9 35.5508 o
    371.435 33.9084 o
    390.672 30.8474 o
    415.27 29.2051 o
    437.954 35.3407 o
    454.134 51.5198 o
    460.27 74.2051 o
    454.134 96.8899 o
    437.954 113.069 o
    415.27 119.205 o
    397.39 120.847 o
    379.589 123.908 o
    360.9 125.551 o
    360.683 125.402 o
    346.864 125.124 o
    297.962 124.975 o
    272.563 125.709 o
    245.784 127.077 o
    217.973 127.812 o
    200.299 127.347 o
    175.649 125.745 o
    156.364 122.718 o
    155.075 122.733 o
    153.659 122.761 o
    152.125 122.801 o
    151.978 124.617 o
    151.848 126.32 o
    151.737 127.877 o
    154.576 137.783 o
    156.023 147.675 o
    156.424 156.897 o
    156.226 166.214 o
    155.856 181.158 o
    155.658 189.116 o
    156.445 199.161 o
    157.911 206.31 o
    158.698 221.555 o
    158.607 221.907 o
    158.438 235.715 o
    158.347 283.821 o
    158.247 289.398 o
    158.06 295.315 o
    157.957 298.132 o
    159.529 303.976 o
    160.515 312.747 o
    160.19 326.877 o
    161.437 337.914 o
    162.725 348.808 o
    0 0 z
  EndSpiro
158.223632812 386.361328125 m 0
 155.57421875 386.361328125 152.052734375 386.513671875 147.961914062 386.513671875 c 0
 123.125976562 386.513671875 102.961914062 366.349609375 102.961914062 341.513671875 c 0x21
 102.961914062 316.676757812 123.125976562 296.513671875 147.961914062 296.513671875 c 0
 150.610351562 296.513671875 154.1328125 296.361328125 158.223632812 296.361328125 c 0
 174.62890625 296.361328125 175.681640625 298.692382812 184.374023438 298.692382812 c 0
 195.1015625 298.692382812 208.909179688 296.513671875 224.884765625 296.513671875 c 0
 227.592773438 296.513671875 251.642578125 297.2421875 251.913085938 297.2421875 c 0
 257.422851562 297.2421875 259.353515625 294.58984375 271.0390625 294.58984375 c 0
 284.0625 294.58984375 287.807617188 298.75 315.094726562 297.213867188 c 1
 361.526367188 281.78125 391.0390625 306.708007812 391.0390625 337.666992188 c 0
 391.0390625 368.350585938 362.677734375 385.454101562 336.6953125 385.037109375 c 1
 320.615234375 388.892578125 285.612304688 387.63671875 273.819335938 385.727539062 c 0
 271.5703125 386.120117188 264.137695312 387.2421875 251.913085938 387.2421875 c 0
 241.65625 387.2421875 232.323242188 386.513671875 224.884765625 386.513671875 c 0
 214.124023438 386.513671875 200.331054688 388.692382812 184.374023438 388.692382812 c 0
 166.99609375 388.692382812 163.09375 386.361328125 158.223632812 386.361328125 c 0
  Spiro
    158.224 386.361 o
    155.298 386.401 o
    151.848 386.474 o
    147.962 386.514 o
    125.277 380.378 o
    109.098 364.199 o
    102.962 341.514 o
    109.098 318.828 o
    125.277 302.649 o
    147.962 296.514 o
    150.887 296.474 o
    154.337 296.401 o
    158.224 296.361 o
    170.354 296.965 o
    177.383 298.089 o
    184.374 298.692 o
    196.082 298.128 o
    209.68 297.078 o
    224.885 296.514 o
    233.024 296.702 o
    245.398 297.054 o
    251.913 297.242 o
    256.719 296.556 o
    262.118 295.276 o
    271.039 294.59 o
    282.175 295.61 o
    294.455 297.217 o
    315.095 297.214 o
    320.795 295.592 o
    332.987 293.267 o
    348.253 292.721 o
    369.909 299.521 o
    385.249 315.582 o
    391.039 337.667 o
    382.739 363.657 o
    362.308 379.771 o
    336.695 385.037 v
    315.892 387.353 o
    291.766 387.253 o
    273.819 385.728 o
    269.863 386.294 o
    262.517 386.937 o
    251.913 387.242 o
    242.01 387.054 o
    232.91 386.702 o
    224.885 386.514 o
    213.158 387.078 o
    199.563 388.128 o
    184.374 388.692 o
    170.963 388.089 o
    163.3 386.965 o
    0 0 z
  EndSpiro
199.884765625 559.974609375 m 0x28
 285.33203125 559.974609375 263.955078125 551.295898438 316.375976562 551.295898438 c 0
 322.37890625 551.295898438 354.848632812 552.266601562 355.237304688 552.270507812 c 0
 371.546875 547.513671875 378.850585938 546.036132812 397.610351562 550.493164062 c 1
 420.81640625 552.278320312 439.116210938 571.698242188 439.116210938 595.359375 c 0
 439.116210938 621.649414062 415.654296875 646.869140625 380.000976562 638.868164062 c 0
 375.3671875 640.291015625 367.827148438 642.282226562 357.577148438 642.282226562 c 0x30
 342.34765625 642.282226562 315.61328125 640.387695312 301.053710938 642.004882812 c 0
 268.86328125 645.58203125 290.046875 644.982421875 259.965820312 647.84765625 c 0
 245.682617188 649.208007812 236.465820312 650 186.338867188 650 c 0
 183.20703125 650 177.551757812 649.151367188 159.161132812 648.104492188 c 0
 131.810546875 651.817382812 123.064453125 645.303710938 102.623046875 630.08203125 c 0
 67.1171875 604.721679688 85.306640625 548.436523438 128.731445312 548.436523438 c 0
 132.581054688 548.436523438 143.6875 548.436523438 156.5625 558.047851562 c 1
 171.033203125 557.696289062 172.521484375 559.974609375 199.884765625 559.974609375 c 0x28
  Spiro
    159.161 648.104 o
    137.37 648.271 o
    120.26 642.501 o
    104.699 631.743 o
    103.615 630.866 o
    102.918 630.311 o
    102.623 630.082 o
    83.9644 597.68 o
    94.7959 563.94 o
    128.731 548.437 o
    134.789 548.791 o
    144.491 551.289 o
    156.562 558.048 v
    168.135 558.39 o
    179.722 559.398 o
    199.885 559.975 o
    220.255 559.839 o
    240.116 559.109 o
    260.349 557.31 o
    271.668 554.988 o
    291.555 552.47 o
    316.376 551.296 o
    329.016 551.547 o
    346.339 552.017 o
    355.237 552.271 o
    369.29 548.707 o
    381.925 547.917 o
    397.61 550.493 v
    418.666 557.648 o
    433.523 573.627 o
    439.116 595.359 o
    431.727 620.08 o
    411.147 636.997 o
    380.001 638.868 o
    374.412 640.384 o
    366.908 641.714 o
    357.577 642.282 o
    339.41 641.852 o
    318.774 641.358 o
    301.054 642.005 o
    282.787 644.471 o
    276.827 645.856 o
    259.966 647.848 o
    245.685 649.009 o
    224.504 649.745 o
    186.339 650 o
    181.994 649.742 o
    173.674 649.06 o
    0 0 z
  EndSpiro
EndSplineSet
Validated: 37
EndChar
StartChar: F
Encoding: 70 70 49
Width: 500
InSpiro: 1
Flags: W
HStem: 318 88.5<320.203 418.758> 574.7 89.2998<177.708 456.193>
VStem: 46 89<15.8019 302.494> 51.0996 90.3008<19.7523 100> 65 90<303.6 309.7 400.3 570.444>
LayerCount: 2
Back
Fore
SplineSet
95.5 670.700195312 m 0xc8
 106.200195312 673.400390625 121.599609375 670.599609375 130.700195312 664.200195312 c 2
 134.5 661.5 l 1
 176 661.5 l 2
 212.900390625 661.599609375 220.099609375 661.799804688 241 664 c 0
 259.200195312 665.900390625 269.700195312 666.400390625 287.5 666.400390625 c 0
 308.5 666.299804688 311.5 666.099609375 321.5 663.700195312 c 0
 333.700195312 660.900390625 349 659.200195312 365 658.900390625 c 0
 373.400390625 658.700195312 376.900390625 659.200195312 382.5 660.900390625 c 0
 391.200195312 663.599609375 400.400390625 665 414.099609375 665.700195312 c 0
 430.200195312 666.5 439.700195312 663.200195312 450 653.400390625 c 0
 468.900390625 635.400390625 468.700195312 605.799804688 449.5 588.099609375 c 0
 441.299804688 580.599609375 427.700195312 575.099609375 415 574.299804688 c 0
 410.299804688 574 402.900390625 572.799804688 398.5 571.5 c 0
 386.299804688 568 384.900390625 567.900390625 361.099609375 569 c 0
 335.799804688 570.099609375 315.400390625 572.299804688 306 574.799804688 c 0
 297.599609375 577 273.700195312 577 251.5 574.700195312 c 0
 228 572.299804688 203.5 571 177.799804688 571 c 2
 155 571 l 1
 155 493.200195312 l 2xc8
 155 450.299804688 154.700195312 411.900390625 154.400390625 407.799804688 c 2
 153.700195312 400.299804688 l 1
 167.599609375 400.400390625 l 2
 175.299804688 400.5 188.299804688 400.299804688 196.5 400.099609375 c 0
 204.799804688 399.900390625 218.900390625 400.299804688 228 400.900390625 c 0
 256.900390625 402.799804688 291.700195312 404.200195312 319.5 404.5 c 0
 334.400390625 404.700195312 355 405.599609375 365.400390625 406.5 c 0
 376.099609375 407.5 390.099609375 408 397.900390625 407.799804688 c 0
 411.099609375 407.5 411.700195312 407.400390625 419.099609375 403.900390625 c 0
 436.099609375 395.799804688 446.200195312 378.400390625 444.700195312 360 c 0
 443.200195312 342.200195312 431.299804688 326.700195312 414.599609375 321 c 0
 410.099609375 319.5 404.099609375 318.700195312 390.400390625 318 c 0
 380.299804688 317.400390625 367.700195312 316.5 362.299804688 315.900390625 c 0
 356.900390625 315.299804688 339.200195312 314.700195312 322.900390625 314.5 c 0
 306.599609375 314.299804688 288.400390625 313.900390625 282.400390625 313.599609375 c 0
 276.400390625 313.299804688 261.400390625 312.5 249 312 c 0
 236.599609375 311.400390625 223.799804688 310.5 220.5 309.799804688 c 0
 216.099609375 309 208.599609375 309 192 309.900390625 c 0
 179.599609375 310.5 165.400390625 310.700195312 160.400390625 310.400390625 c 2
 151.200195312 309.700195312 l 1
 150.599609375 303.599609375 l 2
 148.900390625 285.599609375 147.599609375 260.099609375 148 250 c 0
 148.799804688 227.299804688 148.299804688 176.200195312 147.099609375 160.5 c 0
 146.400390625 151.700195312 145.700195312 139.799804688 145.400390625 134 c 0
 145.099609375 128.200195312 144.200195312 120.799804688 143.299804688 117.5 c 0
 142.200195312 113.700195312 141.5 107.200195312 141.400390625 100 c 0xd0
 141.299804688 85.7998046875 139.599609375 71.099609375 137 60.900390625 c 0
 135.900390625 56.599609375 135 51.5 135 49.599609375 c 0
 135 44.900390625 131.700195312 35 128.400390625 29.7998046875 c 0
 122.700195312 20.7998046875 112.299804688 13.2001953125 101.599609375 10.400390625 c 0
 76.2998046875 3.599609375 50.099609375 21 46 47.2001953125 c 0xe0
 44.7998046875 55 45.7998046875 65.599609375 49 80 c 0
 50.7001953125 87.599609375 51.099609375 92.7001953125 51.099609375 105.5 c 0xd0
 51 117.099609375 51.5 123.200195312 52.599609375 127.5 c 0
 53.5 130.799804688 54.599609375 138.900390625 55.099609375 145.5 c 0
 55.5 152.099609375 56.5 164.299804688 57.099609375 172.5 c 0
 58.2998046875 187.400390625 58.599609375 216.599609375 58 252 c 0
 57.7998046875 262.200195312 58.2001953125 278.200195312 58.7998046875 287.5 c 0
 59.400390625 296.900390625 60.400390625 318.900390625 60.900390625 336.5 c 0
 61.5 354.099609375 62.599609375 380 63.400390625 394 c 0
 64.599609375 412.900390625 65 439 65 495 c 0
 65 564.599609375 64.7998046875 571.799804688 63 587 c 0
 60.2001953125 609.400390625 60.2001953125 631.299804688 62.7998046875 639.700195312 c 0
 65.5 648.400390625 69 653.900390625 75.400390625 659.799804688 c 0
 81.5 665.299804688 87.7001953125 668.700195312 95.5 670.700195312 c 0xc8
EndSplineSet
EndChar
StartChar: G
Encoding: 71 71 50
Width: 500
Flags: W
VStem: 44.3107 80.67<161.188 356.178>
LayerCount: 2
Fore
SplineSet
207.329334106 479.745515051 m 0
 177.095100164 438.945840143 165.855564261 434.543338344 152.251828197 413.391555333 c 0
 142.412037727 398.092146999 137.228279804 380.678347788 135.034855973 361.55415715 c 0
 133.188886699 345.459379746 133.405388778 327.669125163 132.035650622 310.448214264 c 0
 129.901596982 283.618015064 123.859161767 257.440705598 124.980635887 231.448793511 c 0
 127.831689428 165.371180458 204.200714612 25.2661508599 289.393449159 123.124550935 c 0
 319.789838832 158.039993869 368.628947772 214.140048497 307.818827856 243.08623965 c 0
 281.960887255 255.394863486 246.826607986 256.301809405 226.94710761 274.925616818 c 0
 196.150194815 303.777235922 224.515172601 358.818519195 297.198439019 336.94026825 c 0
 329.357093898 327.260253081 324.584636382 322.73453789 387.265225837 304.65420619 c 0
 454.617615661 285.226285052 454.686939528 261.106974086 445.010940484 195.27032092 c 0
 444.891975011 194.460865638 431.93853808 122.91729912 431.996574599 114.496979717 c 0
 432.261602556 76.0449825534 464.721212957 42.4104487432 441.75575806 11.5456374667 c 0
 431.043527536 -2.85124580677 395.585904961 -21.7497640997 363.482276718 26.7826644388 c 0
 344.105366527 56.0755687177 344.105366527 56.0755687177 334 64 c 1
 284.882964273 -0.876883121925 175.81860547 -29.6581930762 93.4331394824 66.4944797792 c 0
 48.6170944546 118.799609872 46.5382290935 166.166508939 44.310662495 216.921562254 c 0
 42.6762822426 254.160878421 42.2137997774 273.92626994 54.1331222944 315.452713896 c 0
 58.3204333187 330.041138392 63.7546984208 346.355272057 67.7720496841 362.106265851 c 0
 75.2204216193 391.309403052 78.3625642452 420.789675671 88.3139127073 446.245003948 c 0
 103.484922708 485.052110475 130.042474701 503.835173117 147.213245452 528.303879213 c 0
 152.52385779 535.871612448 157.271667212 544.275914883 162.388526647 551.175489204 c 0
 182.247289342 577.953048934 200.957496178 582.589793411 252.295913082 595.312427808 c 0
 273.797097741 600.640829578 292.521285048 604.347310822 319.006638746 593.591188017 c 0
 373.023855419 571.653938366 362.644270474 585.116190522 384.854717325 575.254032331 c 0
 387.684556295 573.99749212 418.964146354 559.077889751 390.324504337 525.305501122 c 0
 352.458139796 480.652792878 371.879004183 480.312649081 352.104887443 464.08607031 c 0
 301.790852835 422.798529804 275.316818698 571.491423831 207.329334106 479.745515051 c 0
  Spiro
    240 508 o
    209 482 o
    152 413 o
    132 310 o
    125 231 o
    158 140 o
    203 96 o
    247 92 o
    320 162 o
    335 216 o
    308 243 o
    244 264 o
    216 292 o
    236 335 o
    297 337 o
    393 303 o
    436 280 o
    446 202 o
    438 154 o
    432 114 o
    449 28 o
    428 0 o
    364 26 o
    348 50 o
    334 64 v
    320 48 o
    242 7 o
    153 19 o
    93 67 o
    54 138 o
    44 224 o
    44 263 o
    68 363 o
    89 448 o
    125 502 o
    147 528 o
    163 552 o
    247 594 o
    318 594 o
    340 585 o
    397 566 o
    402 548 o
    375 506 o
    352 464 o
    310 467 o
    270 504 o
    0 0 z
  EndSpiro
EndSplineSet
Validated: 33
EndChar
StartChar: H
Encoding: 72 72 51
Width: 500
InSpiro: 1
Flags: W
HStem: 302 85.9004<289.992 352.8>
VStem: 30.2002 89.7998<43.7059 190 376.517 613.234> 39 89.5996<178.162 280.02 375.514 575.615> 340.2 89.2998<21.7503 300.575> 353.5 90.2998<34.8962 263 486.5 649.158>
LayerCount: 2
Back
Fore
SplineSet
392 662.599609375 m 0xa0
 407.5 666.900390625 425.700195312 661.599609375 436.900390625 649.5 c 0
 443.599609375 642.200195312 446.599609375 635 449.900390625 617.400390625 c 0
 455.400390625 589 455.5 574.900390625 450.700195312 537 c 0
 448.700195312 521.5 448.5 515.799804688 448.799804688 486.5 c 0
 449 460.299804688 448.799804688 451.200195312 447.5 442.5 c 0
 445.400390625 427.700195312 443.400390625 332.5 443.799804688 263 c 0xa8
 444 227.5 443.700195312 207.099609375 442.900390625 200 c 0
 442.299804688 194.200195312 441.400390625 182.299804688 440.900390625 173.5 c 0
 439.200195312 140.700195312 436.900390625 121.599609375 433.799804688 114.299804688 c 0
 433.099609375 112.599609375 432.599609375 105.200195312 432.5 95 c 0
 432.400390625 82.599609375 431.900390625 77.099609375 430.599609375 72.7998046875 c 0
 429.599609375 69.400390625 429.099609375 65.7998046875 429.5 63.7998046875 c 0
 430.400390625 58.7998046875 428.299804688 47.2001953125 425 40.2998046875 c 0
 410.900390625 9.7998046875 367.799804688 6.099609375 348.099609375 33.599609375 c 0
 345.700195312 37 343.099609375 42.2001953125 342 46 c 0
 339.5 54.7001953125 338.700195312 69.5 340.200195312 80 c 0x90
 340.799804688 84.7001953125 341.400390625 94.7998046875 341.599609375 102.5 c 0
 341.700195312 113.400390625 342.299804688 118.799804688 344.299804688 127 c 0
 345.599609375 132.799804688 347.299804688 142 347.900390625 147.5 c 0
 348.5 153 349.5 161.099609375 350 165.599609375 c 0
 350.599609375 170 351 178.599609375 351 184.700195312 c 0
 351 191 351.700195312 199.099609375 352.599609375 203.599609375 c 0
 354 210.5 354.200195312 217 353.5 256.700195312 c 2
 352.799804688 302 l 1
 350.599609375 302 l 2
 349.5 302 346 301.299804688 343 300.5 c 0
 340 299.599609375 332.299804688 298.700195312 326 298.400390625 c 0
 319.700195312 298.099609375 313.200195312 297.400390625 311.5 296.799804688 c 0
 309.900390625 296.200195312 300 295.400390625 289.5 295 c 0
 273.5 294.400390625 267.700195312 293.700195312 253 290.599609375 c 0
 243.400390625 288.700195312 230.799804688 286.5 225 285.900390625 c 0
 219.200195312 285.299804688 211.5 284.200195312 207.799804688 283.400390625 c 0
 195.700195312 280.900390625 174.099609375 281.599609375 137.799804688 285.599609375 c 2
 132 286.299804688 l 1
 132 279.799804688 l 2
 132 276.299804688 131.400390625 269.299804688 130.599609375 264.400390625 c 0
 129.700195312 259.200195312 128.900390625 244.799804688 128.599609375 230 c 0xa8
 128.099609375 204 127.299804688 196 122.5 171.099609375 c 0
 120.099609375 158.099609375 120 156.700195312 120 113.599609375 c 0
 120 66.599609375 119.799804688 64.400390625 114.900390625 54.2998046875 c 0
 111.799804688 47.7001953125 101.799804688 37.900390625 94.900390625 34.7001953125 c 0
 76.599609375 26.099609375 57.5 29.400390625 43.400390625 43.400390625 c 0
 37 49.900390625 32.7001953125 57.5 31 65.7998046875 c 0
 30.2998046875 69 30 88 30.2001953125 120.599609375 c 2xc0
 30.599609375 170.5 l 1
 34.400390625 190 l 2
 38 208.900390625 38.2001953125 210.5 39 240.5 c 0
 39.5 257.599609375 40.400390625 273.299804688 40.900390625 275.5 c 0
 42.400390625 281.200195312 42.2998046875 342.299804688 40.7998046875 349.099609375 c 0
 40.099609375 352.599609375 39.599609375 369.400390625 39.5 397.5 c 0
 39.400390625 428 38.7998046875 445.700195312 37.7001953125 458.5 c 0
 36.7998046875 468.400390625 36 484.200195312 36 493.5 c 0
 36 502.900390625 35.099609375 521.099609375 34 534 c 0
 32.900390625 546.900390625 32 565.900390625 32 576.099609375 c 0
 32 597.700195312 33.2998046875 603.700195312 39.900390625 613.700195312 c 0
 48.900390625 627.099609375 62.5 633.599609375 79.900390625 632.799804688 c 0
 87.7001953125 632.400390625 89.7998046875 631.900390625 96.2001953125 628.799804688 c 0
 104.5 624.700195312 112.400390625 617.299804688 116.400390625 610.099609375 c 0
 120.799804688 601.799804688 122 595.099609375 122 577 c 0
 122 567.900390625 122.700195312 553.099609375 123.5 544 c 0
 124.400390625 534.900390625 125.5 513.599609375 126 496.5 c 0
 126.5 479.5 127.5 460.799804688 128.200195312 455 c 0
 128.900390625 448.700195312 129.400390625 431.099609375 129.400390625 410.799804688 c 0
 129.400390625 390.700195312 129.799804688 377 130.400390625 377 c 0
 130.900390625 377 141.5 375.799804688 153.900390625 374.400390625 c 0
 184.599609375 370.900390625 200.900390625 371.900390625 241.5 380 c 0
 256.5 383 266.900390625 384.400390625 278 385.099609375 c 0
 286.5 385.599609375 296.200195312 386.400390625 299.5 386.900390625 c 0
 302.799804688 387.400390625 309.099609375 387.900390625 313.5 387.900390625 c 0
 317.900390625 388 323.799804688 388.700195312 326.5 389.599609375 c 0
 329.299804688 390.400390625 336.700195312 391.400390625 343.099609375 391.700195312 c 2
 354.700195312 392.299804688 l 1
 355.400390625 412.900390625 l 2
 355.700195312 424.200195312 356.599609375 437.799804688 357.200195312 443 c 0
 357.900390625 448.400390625 358.400390625 468.700195312 358.5 490 c 0
 358.599609375 520.099609375 359 529.799804688 360.400390625 539 c 0
 362.099609375 550 364.099609375 576.200195312 364 584.400390625 c 0
 363.900390625 586.5 362.799804688 594.099609375 361.5 601.299804688 c 0
 358.5 616.900390625 358.400390625 623.799804688 360.900390625 631.900390625 c 0
 363.5 640.200195312 366.900390625 645.599609375 373.200195312 651.700195312 c 0
 379.099609375 657.200195312 384.900390625 660.599609375 392 662.599609375 c 0xa0
EndSplineSet
EndChar
StartChar: I
Encoding: 73 73 15
Width: 500
InSpiro: 1
Flags: HW
HStem: 8.7002 91.3994<43.8512 188.9> 17.5 87.5<282.425 396.061> 555 90<63.2255 180.9> 563 89.5996<270.9 399.863>
VStem: 187.7 89.3994<230.79 554.934> 191.6 90.4004<322.5 342 398.4 414.2>
LayerCount: 2
Back
Fore
SplineSet
384 670 m 1
 408 659 l 1
 425 630 l 1
 425 596 l 1
 408 567 l 1
 386 557 l 1
 376 554 l 1
 303 547 l 1
 236 543 l 1
 168 540 l 1
 95 538 l 1
 81 541 l 1
 57 552 l 1
 40 581 l 1
 40 615 l 1
 57 644 l 1
 80 655 l 1
 92 658 l 1
 163 660 l 1
 229 663 l 1
 294 667 l 1
 368 673 l 1
 384 670 l 1
273 635 m 1
 283 613 l 1
 287 601 l 1
 295 463 l 1
 302 330 l 1
 302 191 l 1
 288 52 l 1
 285 42 l 1
 275 20 l 1
 246 3 l 1
 212 3 l 1
 183 20 l 1
 171 44 l 1
 168 61 l 1
 182 201 l 1
 182 325 l 1
 175 456 l 1
 167 596 l 1
 170 611 l 1
 181 635 l 1
 210 652 l 1
 244 652 l 1
 273 635 l 1
381 125 m 1
 405 113 l 1
 422 84 l 1
 422 50 l 1
 405 21 l 1
 383 11 l 1
 373 8 l 1
 297 0 l 1
 224 -5 l 1
 152 -7 l 1
 150 -7 l 1
 72 -4 l 1
 61 -1 l 1
 38 10 l 1
 21 39 l 1
 21 73 l 1
 38 102 l 1
 62 113 l 1
 76 116 l 1
 151 114 l 1
 217 115 l 1
 286 120 l 1
 364 128 l 1
 381 125 l 1
EndSplineSet
EndChar
StartChar: J
Encoding: 74 74 52
Width: 500
InSpiro: 1
Flags: HW
HStem: 544.9 84.1992<266.134 322.7 414.057 471.477>
VStem: 11.2998 88.2998<158.936 223.076> 326.6 87.1006<210.45 539.9>
LayerCount: 2
Back
Fore
SplineSet
452 645 m 1
 476 634 l 1
 493 605 l 1
 493 571 l 1
 476 542 l 1
 454 532 l 1
 442 528 l 1
 372 524 l 1
 336 523 l 1
 332 523 l 1
 294 528 l 1
 284 531 l 1
 263 541 l 1
 246 570 l 1
 246 604 l 1
 263 633 l 1
 288 645 l 1
 305 648 l 1
 342 644 l 1
 365 644 l 1
 437 648 l 1
 452 645 l 1
413 614 m 1
 424 592 l 1
 427 580 l 1
 433 456 l 1
 433 454 l 1
 432 335 l 1
 432 331 l 1
 416 222 l 1
 416 216 l 1
 415 208 l 1
 375 86 l 1
 370 75 l 1
 338 39 l 1
 331 32 l 1
 322 26 l 1
 273 5 l 1
 262 3 l 1
 258 3 l 1
 214 1 l 1
 207 1 l 1
 200 2 l 1
 152 15 l 1
 147 17 l 1
 105 37 l 1
 99 41 l 1
 63 70 l 1
 56 77 l 1
 27 112 l 1
 23 118 l 1
 -1 164 l 1
 -4 177 l 1
 -4 202 l 1
 13 231 l 1
 42 245 l 1
 70 245 l 1
 92 234 l 1
 105 221 l 1
 126 179 l 1
 140 163 l 1
 168 140 l 1
 191 129 l 1
 217 123 l 1
 242 123 l 1
 256 129 l 1
 266 141 l 1
 297 238 l 1
 312 337 l 1
 313 451 l 1
 307 576 l 1
 310 590 l 1
 321 614 l 1
 350 631 l 1
 384 631 l 1
 413 614 l 1
EndSplineSet
EndChar
StartChar: M
Encoding: 77 77 55
Width: 500
InSpiro: 1
Flags: W
HStem: 283.14 96.521<224.973 268.599>
VStem: 20.7836 80.8469<86.7061 340.771> 30.8029 71.0049<30.2547 190.516> 84.7262 98.1116<473.696 604.937> 320.216 103.816<103.396 239.977> 320.216 87.3922<104.496 302.18> 321.686 93.1575<274.35 329.029>
LayerCount: 2
Back
Fore
SplineSet
84.7261523962 567.113615057 m 0x90
 87.0191940742 610.256367383 102.939283378 626.732354967 121.55391613 626.732354967 c 0
 144.974542146 626.732354967 172.660700555 600.650437897 182.837713802 568.783955852 c 0
 200.130916786 514.635107947 169.900301279 458.552615098 234.222271386 389.992137404 c 0
 239.5736677 384.288109885 246.489867388 379.660568254 252.853912936 379.660568254 c 0
 259.837640305 379.660568254 266.156449309 385.23317415 269.01281392 401.071050198 c 0
 277.476801036 448.001886105 306.11923606 441.091728292 325.91788941 514.775695352 c 0
 334.221319104 545.678283988 345.396252208 607.837999006 351.680157612 618.36186998 c 0
 357.68771375 628.4229294 368.752981 631.397449778 379.738376379 631.397449778 c 0
 389.105911869 631.397449778 398.415369156 629.234550687 404.48117339 627.458422902 c 0
 411.742615888 625.332200346 414.53103918 624.515722284 421.42255615 624.827597138 c 0
 423.480744949 624.920740249 425.279980427 625.002164456 426.848041194 625.002164456 c 0
 434.285719676 625.002164456 436.522368306 623.170261095 436.522368306 612.06788617 c 0
 436.522368306 606.906990124 436.03906896 599.742912719 435.370227089 589.828488101 c 0
 432.445251623 546.470782721 407.897540111 533.51536329 407.897540111 477.518547496 c 0
 407.897540111 469.132326352 408.44811572 459.780738517 409.70435309 449.21708727 c 0
 413.427632813 417.908172712 415.340262632 394.801674007 415.340262632 372.486841381 c 0
 415.340262632 365.93582189 415.175423075 359.453031955 414.84316372 352.850968706 c 0x92
 413.61810846 328.508863141 410.086869031 301.94466705 408.531463626 276.173781869 c 0
 407.890986355 265.561972131 407.607911392 254.739460038 407.607911392 243.862427062 c 0x84
 407.607911392 161.01228076 424.031464842 74.9989205758 424.031464842 54.8428322145 c 0x88
 424.031464842 45.8748333462 417.018093978 38.350035404 405.166433713 38.350035404 c 0
 383.750372732 38.350035404 350.531676739 62.5279416214 337.923455789 118.239166608 c 0
 337.583393618 119.74177988 320.215683367 225.581500156 320.215683367 274.124182751 c 0x84
 320.215683367 278.949104759 320.387266904 283.20796318 320.764209292 286.74203764 c 0
 321.395330588 292.65920091 321.685671236 297.856330284 321.685671236 302.393096909 c 0
 321.685671236 321.682684202 316.436861442 329.034161945 309.816320103 329.034161945 c 0
 303.015452786 329.034161945 294.767111617 321.276760847 289.273886058 310.73367427 c 0
 283.32792409 299.321655752 274.896619041 283.139545967 235.197021657 283.139545967 c 0
 230.965408255 283.139545967 226.378536804 283.323400739 221.401549908 283.716484304 c 0
 191.824893557 286.052455396 184.736736372 294.768015684 145.038585096 343.580650862 c 0
 135.288016267 355.569898314 127.484683077 359.635353921 121.499906766 359.635353921 c 0
 112.799395369 359.635353921 105.927942096 350.284929771 105.927942096 340.455444875 c 0
 105.927942096 327.075758134 116.275782905 314.698229588 116.275782905 294.052853826 c 0
 116.275782905 269.59851521 101.630497804 252.28836532 101.630497804 212.327014891 c 0
 101.630497804 209.842792741 101.687233592 207.271614313 101.807768887 204.606435714 c 0
 102.461146126 190.159488646 104.992412518 173.633523367 105.000131283 156.712197008 c 1
 105.009120924 156.80755995 99.4923327372 71.2815419293 95.4676851809 55.5911269502 c 0
 89.5665291926 32.5849916257 72.2539920184 21.0774866047 57.076235691 21.0774866047 c 0
 45.8513311904 21.0774866047 35.7940518778 27.3715531519 32.3839049556 39.9632761248 c 0
 31.2301925533 44.2232764393 30.8028919306 47.8580756656 30.8028919306 51.3012104278 c 0xa2
 30.8028919306 61.1387145983 34.2910434563 69.4116184443 34.2910434563 86.2314901956 c 0
 34.2910434563 96.3087117346 33.0389648504 109.453883614 29.0345020855 127.841573344 c 0
 23.0785895095 155.189929151 20.7835508983 174.786287772 20.7835508983 191.292344795 c 0xc0
 20.7835508983 238.716796776 39.7291331215 260.630757248 45.225498565 367.6000358 c 0
 51.6881537052 493.375071138 79.8320392238 475.03264048 84.7261523962 567.113615057 c 0x90
  Spiro
    62 470 o
    85.0753 573.682 o
    104.475 620.071 o
    127 625.426 o
    163.087 603.798 o
    182.959 568.405 o
    189 515 o
    191.836 481.855 o
    199.196 447.72 o
    209.267 421 o
    234.682 389.502 o
    258.511 381.524 o
    269 401 o
    272.565 415.978 o
    282.155 433.738 o
    296 451 o
    311.43 475.861 o
    325.766 514.212 o
    336 558 o
    346.862 605.494 o
    361.632 627.957 o
    384 631 o
    403.796 627.659 o
    421.2 624.818 o
    433 623 o
    437.31 612.904 o
    435.271 588.357 o
    427.352 555 o
    411.362 435.28 o
    408.475 275.243 o
    420.101 90 o
    424.463 60.5416 o
    419.505 43.4704 o
    405 38 o
    366.633 59.4404 o
    338.297 116.59 o
    320 262 o
    322.059 312.945 o
    311.92 326.551 o
    289 310.208 o
    243.06 283.66 o
    199.571 288.656 o
    160.226 325 o
    143.334 345.677 o
    128.814 357.95 o
    120 359 o
    110 323 o
    108 256 o
    105 157 o
    98.4998 76.9111 o
    86.0789 36.0133 o
    64 22 o
    41.6082 25.8475 o
    31.4019 56.7579 o
    29 128 o
    33.507 270.218 o
    45.3793 370.592 o
    0 0 z
  EndSpiro
EndSplineSet
Validated: 33
EndChar
StartChar: O
Encoding: 79 79 57
Width: 500
InSpiro: 1
Flags: W
LayerCount: 2
Back
Fore
SplineSet
368.205078125 306.47265625 m 0
 368.205078125 267.397460938 363.243164062 258.041992188 364.65625 240.983398438 c 1
 360.600585938 222.221679688 359.319335938 236.010742188 349.641601562 196.385742188 c 0
 347.465820312 187.475585938 345.55859375 181.717773438 345.0625 180.735351562 c 0
 344.77734375 180.168945312 329.829101562 157.060546875 300.212890625 135.9296875 c 0
 292.12890625 133.603515625 279.490234375 127.889648438 269.278320312 113.94921875 c 1
 238.922851562 97.693359375 192.868164062 123.21484375 173.541992188 137.088867188 c 0
 173.278320312 137.278320312 167.5625 142.768554688 161.571289062 151.181640625 c 0
 154.0859375 161.693359375 145.787109375 175.826171875 138.190429688 188.918945312 c 0
 118.198242188 223.376953125 116.193359375 226.83203125 109.693359375 243.41015625 c 0
 109.59765625 243.655273438 102.91015625 261.72265625 102.91015625 268.795898438 c 0
 105.82421875 287.021484375 106.62890625 306.759765625 109.997070312 319.2890625 c 0
 112.985351562 330.409179688 132.443359375 381.008789062 141.474609375 402.155273438 c 1
 155.921875 417.302734375 158.521484375 435.837890625 160.651367188 451.029296875 c 1
 164.208007812 452.827148438 l 1
 173.912109375 470.876953125 173.912109375 470.876953125 183.943359375 483.430664062 c 0
 189.290039062 490.122070312 196.009765625 498.319335938 202.493164062 509.038085938 c 0
 215.46484375 530.482421875 225.424804688 545.348632812 231.5859375 553.568359375 c 1
 254.686523438 549.98828125 268.724609375 550.813476562 282.237304688 547.936523438 c 1
 296.620117188 535.96875 310.545898438 500.067382812 326.462890625 473.752929688 c 0
 353.331054688 429.333007812 368.205078125 367.234375 368.205078125 306.47265625 c 0
  Spiro
    368.205 306.473 o
    366.973 275.941 o
    364.947 256.844 o
    364.656 240.983 v
    361.115 229.895 o
    356.929 221.376 o
    349.642 196.386 o
    347.6 188.593 o
    345.985 183.245 o
    345.062 180.735 o
    339.9 173.576 o
    324.92 156.792 o
    300.213 135.93 o
    290.88 132.3 o
    280.03 125.318 o
    269.278 113.949 v
    235.297 109.635 o
    200.174 121.327 o
    173.542 137.089 o
    171.656 138.954 o
    167.274 143.837 o
    161.571 151.182 o
    153.879 162.715 o
    145.957 175.665 o
    138.19 188.919 o
    123.372 214.658 o
    115.522 229.585 o
    109.693 243.41 o
    107.895 248.52 o
    104.645 259.136 o
    102.91 268.796 o
    105.292 287.184 o
    107.313 304.696 o
    109.997 319.289 o
    117.468 340.986 o
    129.977 373.777 o
    141.475 402.155 v
    152.386 418.166 o
    157.947 434.989 o
    160.651 451.029 v
    164.208 452.827 v
    171.403 465.984 o
    176.53 473.936 o
    183.943 483.431 o
    189.682 490.654 o
    195.997 499.131 o
    202.493 509.038 o
    214.421 528.27 o
    224.196 543.148 o
    231.586 553.568 v
    251.964 551.158 o
    268.248 549.878 o
    282.237 547.937 v
    296.544 529.257 o
    311.134 501.993 o
    326.463 473.753 o
    349.208 424.198 o
    363.363 366.916 o
    0 0 z
  EndSpiro
11.4296875 283.29296875 m 0
 4.3916015625 239.654296875 32.8125 184.624023438 50.0166015625 156.184570312 c 0
 52.291015625 152.423828125 55.0166015625 147.733398438 58.029296875 142.541992188 c 0
 79.7568359375 105.09375 96.3642578125 78.5009765625 119.620117188 61.8076171875 c 0
 153.090820312 37.7802734375 196.859375 16.078125 246.366210938 16.078125 c 0
 273.592773438 16.078125 302.365234375 23.4609375 327.787109375 41.4736328125 c 0
 332.475585938 44.794921875 335.751953125 48.1748046875 338.09765625 50.953125 c 0
 356.444335938 59.140625 408.375976562 100.573242188 427.814453125 139.139648438 c 0
 438.100585938 159.545898438 439.140625 176.869140625 443.544921875 188.469726562 c 0
 449.549804688 198.619140625 459.131835938 222.983398438 457.078125 247.169921875 c 1
 462.237304688 287.423828125 471.442382812 412.999023438 405.762695312 521.584960938 c 0
 394.581054688 540.0703125 383.99609375 566.790039062 366.581054688 591.426757812 c 0
 357.592773438 604.142578125 346.05859375 617.508789062 329.481445312 627.786132812 c 0
 310.870117188 639.325195312 297.522460938 640.419921875 255.998046875 643.828125 c 1
 236.8046875 651.58203125 202.313476562 657.762695312 169.7890625 623.833007812 c 0
 154.04296875 607.40625 141.603515625 587.306640625 123.193359375 556.870117188 c 0
 117.401367188 547.293945312 105.366210938 534.814453125 95.7021484375 519.915039062 c 1
 71.802734375 499.919921875 69.8505859375 470.586914062 68.8212890625 463.11328125 c 0
 68.6513671875 461.879882812 68.501953125 460.842773438 68.37109375 459.974609375 c 0
 65.7080078125 456.841796875 62.5205078125 452.377929688 59.7841796875 446.438476562 c 0
 49.0302734375 423.103515625 27.513671875 369.258789062 20.55078125 343.357421875 c 0
 14.37890625 320.396484375 14.26171875 300.848632812 11.4296875 283.29296875 c 0
  Spiro
    11.4297 283.293 o
    14.4711 237.311 o
    30.8218 192.039 o
    50.0166 156.185 o
    52.4328 152.134 o
    55.1212 147.546 o
    58.0293 142.542 o
    78.4664 108.707 o
    98.1647 81.8128 o
    119.62 61.8076 o
    156.315 39.2933 o
    198.986 22.5822 o
    246.366 16.0781 o
    273.899 18.654 o
    301.457 26.8953 o
    327.787 41.4736 o
    332.019 44.7867 o
    335.427 48.0018 o
    338.098 50.9531 o
    365.159 68.8585 o
    400.026 100.992 o
    427.814 139.14 o
    435.48 158.402 o
    439.799 175.074 o
    443.545 188.47 o
    450.172 202.806 o
    455.821 223.48 o
    457.078 247.17 v
    460.663 311.989 o
    449.38 411.234 o
    405.763 521.585 o
    394.516 542.41 o
    381.981 566.503 o
    366.581 591.427 o
    356.663 604.208 o
    344.457 616.63 o
    329.481 627.786 o
    311.405 636.31 o
    289.342 640.722 o
    255.998 643.828 v
    232.372 649.628 o
    202.298 645.808 o
    169.789 623.833 o
    154.816 605.955 o
    139.941 584.084 o
    123.193 556.87 o
    115.648 546.356 o
    105.827 533.977 o
    95.7021 519.915 v
    78.3514 497.986 o
    70.9329 476.699 o
    68.8213 463.113 o
    68.6583 461.945 o
    68.5081 460.899 o
    68.3711 459.975 o
    65.5722 456.397 o
    62.6318 451.886 o
    59.7842 446.438 o
    46.3955 415.136 o
    31.4134 376.37 o
    20.5508 343.357 o
    16.0754 321.502 o
    13.6796 301.546 o
    0 0 z
  EndSpiro
EndSplineSet
Validated: 41
EndChar
StartChar: P
Encoding: 80 80 58
Width: 500
InSpiro: 1
Flags: W
HStem: 183.655 109.919<175.4 278.245> 571.519 100.954<193.101 319.476>
VStem: 65.5933 93.6219<296.793 526.424> 75.8936 92.5472<17.2821 181.79> 362.479 92.1351<364.584 519.436>
LayerCount: 2
Back
Fore
SplineSet
257.440206381 571.146476492 m 0xe8
 253.164045401 571.391166945 249.145098139 571.518934258 245.360228552 571.518934258 c 0
 206.44758015 571.518934258 192.277212724 558.013781455 177.706612933 519.218842497 c 0
 164.263598941 483.426156218 159.215132452 469.67394579 159.215132452 445.637733497 c 0
 159.215132452 436.98889234 159.86877943 427.008536602 161.020185588 414.190727957 c 0
 161.75941816 405.961362861 162.055360822 398.643206305 162.055360822 392.056772624 c 0
 162.055360822 365.599452043 157.280082956 350.949080942 157.280082956 336.471999081 c 0
 157.280082956 330.938617334 157.977701238 325.430551338 159.906220449 319.298202336 c 0
 165.775392869 300.635275136 181.616563391 293.574242974 201.483952015 293.574242974 c 0
 245.40626396 293.574242974 309.006809298 328.085199747 328.040186046 348.042135999 c 0
 352.277529237 373.45555157 362.478704454 407.323687399 362.478704454 440.885535916 c 0
 362.478704454 497.658848411 333.287841766 553.555713762 293.469606566 566.168000262 c 0
 283.050630359 569.468174474 271.46675178 570.343849612 257.440206381 571.146476492 c 0xe8
  Spiro
    193 550 o
    178 520 o
    160 460 o
    162 385 o
    160 319 o
    176 298 o
    209 294 o
    284 318 o
    328 348 o
    357 482 o
    330 540 o
    294 566 o
    260 571 o
    218 568 o
    0 0 z
  EndSpiro
76.0277485968 667.083607555 m 0
 86.2706273199 667.083607555 97.9633242095 664.318916009 108.650324301 661.79201746 c 0
 124.37092671 658.074943718 124.37092671 658.074943718 135.930636793 642.478160246 c 0
 137.731652712 640.048163722 142.068259244 635.297541916 148.446573284 635.297541916 c 0
 152.555941221 635.297541916 157.5127937 637.269459309 163.185052395 643.104345795 c 0
 184.046308596 664.563709416 193.856335925 669.449369256 247.914052959 671.830434694 c 0
 255.004068924 672.142726683 262.509855375 672.473332001 270.299597399 672.473332001 c 0
 304.21840894 672.473332001 343.520978104 666.205101794 377.325092269 624.86304748 c 0
 397.802486876 599.819422437 442.769817129 510.87386286 451.815081421 460.039247124 c 0
 453.735507998 449.246400843 454.613835967 438.689925091 454.613835967 428.410586 c 0
 454.613835967 337.396979972 385.758282962 268.109197071 361.720729113 248.843097511 c 0
 327.104286578 221.098018603 234.326790314 185.120815938 203.467435862 183.655238436 c 0
 193.064438168 183.16117757 182.698280391 185.195886723 175.038726611 182.926770232 c 0
 167.961970012 180.830305403 161.409278416 175.108385759 163.033204023 160.705507756 c 0
 164.410644273 148.488751152 167.588124923 144.842043436 168.02781171 120.457599639 c 0
 168.242202919 108.567748613 168.440735132 97.557416346 168.440735132 87.4659083551 c 0
 168.440735132 37.3676690032 163.547864025 9.91406079663 131.412299958 9.91406079663 c 0
 126.283603157 9.91406079663 120.461013795 10.6133255324 113.853679272 12.0314036192 c 0
 78.5297799053 19.6126827969 76.5354902944 37.1511756716 75.8935684103 54.9512840756 c 0xd8
 73.516486302 120.866343625 62.9339161173 137.46397075 62.9339161173 223.769522832 c 0
 62.9339161173 239.584178088 63.2892471562 257.739416866 64.1155057863 278.967561834 c 0
 65.1571442468 305.729221487 65.5932687262 328.963684569 65.5932687262 349.480183964 c 0
 65.5932687262 455.127199072 54.0289939298 488.704700899 54.0289939298 560.705858743 c 0
 54.0289939298 561.743689528 54.031396591 562.789503437 54.0362711778 563.843631369 c 0
 54.0405112777 564.760551691 54.0425927447 565.660759498 54.0425927447 566.544691289 c 0
 54.0425927447 614.230987483 47.9847329906 614.547896525 47.9847329906 636.029855379 c 0
 47.9847329906 652.600621008 52.9571230625 667.083607555 76.0277485968 667.083607555 c 0
  Spiro
    58 662 o
    112 661 o
    130 651 o
    144 636 o
    155 637 o
    166 646 o
    195 665 o
    308 669 o
    417 555 o
    452 459 o
    409 300 o
    300 214 o
    223 187 o
    183 184 o
    168 179 o
    163 161 o
    168 122 o
    168 84 o
    164 34 o
    148 14 o
    114 12 o
    78 38 o
    76 52 o
    74 88 o
    64 180 o
    64 276 o
    66 342 o
    64 404 o
    60 466 o
    54 556 o
    48 638 o
    0 0 z
  EndSpiro
EndSplineSet
Validated: 1
EndChar
StartChar: Q
Encoding: 81 81 59
Width: 500
InSpiro: 1
Flags: W
HStem: 527.021 120.884<155.963 273.824>
VStem: 20.0712 74.9087<222.132 443.781> 321.312 71.8047<221.966 461.842>
LayerCount: 2
Back
Fore
SplineSet
114.242612317 594.162835698 m 0
 147.118702364 629.406012849 183.982736863 647.90457848 219.812437577 647.90457848 c 0
 259.395205407 647.90457848 297.71560323 625.32769395 328.002055864 577.809055489 c 0
 340.817382812 557.702148438 366.349609375 524.366210938 373.174929169 519.463472817 c 0
 386.365686104 509.988337756 393.116346887 449.129523003 393.116346887 377.842335515 c 0
 393.116346887 288.29335988 382.464017954 182.288742319 360.543758944 141.01008346 c 0
 356.673085988 133.721109893 354.523537059 126.993250729 354.523537059 119.87248261 c 0
 354.523537059 107.005127649 361.542488066 92.8548017955 378.108302467 71.7923096708 c 0
 414.626212254 25.3618614758 432.846068098 -23.199381712 432.846068098 -51.566698996 c 0
 432.846068098 -66.9061509607 427.518511262 -76.3408203125 416.87576193 -76.3408203125 c 0
 400.11328125 -76.3408203125 375.149414062 -52.9365234375 353.454711715 -19.5604574732 c 0
 317.993164062 34.9951171875 279.723632812 53.7890625 205.746474343 60.3939163035 c 0
 93.6806640625 70.3994140625 59.201171875 108.765625 36.9706380879 190.120525553 c 0
 25.4187847355 232.395708402 20.0711810288 275.678039665 20.0711810288 317.984365637 c 0
 20.0711810288 428.478589534 56.5489060004 532.315167399 114.242612317 594.162835698 c 0
  Spiro
    110.003 589.617 o
    185.981 642.073 o
    259.997 642.073 o
    320.477 589.617 o
    341.726 558.303 o
    361.696 532.229 o
    375.468 517.816 o
    392.96 428.748 o
    391.3 273.322 o
    371.668 161.957 o
    358.261 126.957 o
    363.414 96.3009 o
    389.19 57.7021 o
    422.972 -2.52227 o
    431.659 -54.3954 o
    411.639 -76.3408 o
    396.408 -69.2621 o
    376.701 -50.786 o
    357.17 -25.2764 o
    315.943 22.311 o
    260.769 49.4051 o
    177.596 62.9072 o
    108.413 82.6628 o
    61.2173 135.178 o
    25.4805 232.17 o
    17.1572 355.886 o
    47.844 485.662 o
    0 0 z
  EndSpiro
264.348800782 513.692699874 m 0
 259.728965177 516.913167768 235.545177934 527.020979539 210.296735142 527.020979539 c 0
 198.049211777 527.020979539 185.551171829 524.642581692 174.914140354 517.945944782 c 0
 132.067768291 490.97163364 127.249726714 487.938393103 118.246337667 451.600276543 c 0
 101.220601675 382.883577113 94.9798888281 344.018386577 94.9798888281 314.977071312 c 0
 94.9798888281 292.825508337 98.6107562091 276.389508496 103.855832949 256.781279065 c 0
 124.06303268 181.238550495 170.254416192 157.524767736 210.020782917 157.524767736 c 0
 229.799337931 157.524767736 247.988498981 163.390984812 260.600733364 171.664212008 c 0
 262.339816022 172.804995275 321.311646247 211.930591677 321.311646247 328.910855831 c 0
 321.311646247 355.865027334 318.180730465 386.952636906 310.497344754 422.661420556 c 0
 305.887329391 444.086616091 294.94868179 492.361652032 264.348800782 513.692699874 c 0
  Spiro
    231 525 o
    209 526 o
    193 526 o
    175 518 o
    150.237 502.826 o
    118.65 453.228 o
    97.9268 359.83 o
    103.944 256.453 o
    142.895 184.522 o
    207.383 157.702 o
    260.537 171.622 o
    296.953 215.445 o
    318.771 291.745 o
    310.145 424.297 o
    263.745 514.114 o
    0 0 z
  EndSpiro
EndSplineSet
Validated: 1
EndChar
StartChar: S
Encoding: 83 83 61
Width: 500
Flags: W
HStem: 22.4056 72.5859<95.3937 334.089> 515.658 121.316<229.636 345.968>
VStem: 57.226 75.6315<370.655 473.153> 366.011 61.5202<121.743 182.709>
LayerCount: 2
Back
Fore
SplineSet
275.718470003 631.648094328 m 0
 290.068430213 635.069936986 303.699731955 636.973514417 315.91564465 636.973514417 c 0
 347.952682348 636.973514417 370.254882812 623.880989438 370.254882812 590.745823371 c 0
 370.254882812 547.837355846 332.856276333 515.65783975 288.151934344 515.65783975 c 0
 280.619401503 515.65783975 272.879450587 516.571452524 265.076040192 518.501293511 c 0
 257.259137223 520.434471311 249.519182698 521.344632133 241.937017806 521.344632133 c 0
 194.361713435 521.344632133 152.99874834 485.510669369 137.819027381 441.722585894 c 0
 134.48495027 432.104962012 132.857524853 423.383029979 132.857524853 415.31968526 c 0
 132.857524853 378.727220472 166.373662697 355.698082746 226.001390295 324.072301847 c 0
 370.983333581 247.175741179 427.531592498 186.131609319 427.531592498 132.003000045 c 0
 427.531592498 106.855267863 415.325879521 83.2002232614 394.111935424 60.1416700908 c 0
 368.011063431 31.7712575956 344.92738144 22.4056105565 282.488757666 22.4056105565 c 0
 267.592778276 22.4056105565 250.456887921 22.938662177 230.50574267 23.8738820272 c 0
 122.922949733 28.9168789195 76.8162397494 38.5304430054 76.8162397494 69.9855490178 c 0
 76.8162397494 89.0487897003 102.524812952 94.7336968024 169.010432532 94.9915249595 c 0
 302.354621464 95.5086275555 366.011363829 118.223493745 366.011363829 149.65756335 c 0
 366.011363829 175.193946977 324.000464664 206.484655471 243.211954243 236.303324517 c 0
 170.254882812 263.231445312 108.9375 298.736328125 83.8774768903 327.376524926 c 0
 65.4090809168 348.483388753 57.226004345 376.612315159 57.226004345 404.071954587 c 0
 57.226004345 430.874218934 65.0219701787 457.038857767 78.6590545041 475.413788548 c 0
 88 488 87 494 92.3120707364 504.624141473 c 0
 109.136258587 538.272517174 185.149295756 610.051277373 275.718470003 631.648094328 c 0
EndSplineSet
Validated: 1
EndChar
StartChar: T
Encoding: 84 84 94
Width: 500
InSpiro: 1
Flags: W
HStem: 569.392 84.1748<25.5026 156.243 267.946 445.458> 580.059 72.7037<369.458 445.458>
VStem: 159.189 88.4512<41.7584 235.862 237.809 439.314> 161.724 93.9338<168.613 302.314> 165.985 102.353<11.0871 136.85>
LayerCount: 2
Back
Fore
SplineSet
157.970079115 477.433003066 m 0x60
 157.970079115 499.369024177 162.298351886 509.778973837 162.298351886 525.659179411 c 0
 162.298351886 548.924077594 151.114747987 553.820393748 137.705508608 559.691119855 c 0
 120.238014911 567.338598461 115.547620919 569.392109303 107.207169382 569.392109303 c 0
 105.11666492 569.392109303 102.79685057 569.263100285 99.9890557605 569.060832125 c 0
 96.8862213136 568.837309876 93.8432258021 568.729398694 90.8623194031 568.729398694 c 0
 36.9644605557 568.729398694 3.36500136686 604.008116898 3.36500136686 629.050635495 c 0
 3.36500136686 641.225478184 11.3065096634 650.980910975 28.7179447976 653.086835912 c 0
 29.203212448 653.145529365 46.7140656594 654.864062438 69.4178290699 654.864062438 c 0
 77.4004198119 654.864062438 86.0249629668 654.651615773 94.7771532531 654.079882032 c 0
 100.517773383 653.704878048 105.04183198 653.566873459 109.566263473 653.566873459 c 0xa0
 131.748535564 653.566873459 146.430754521 657.030074316 165.159297346 657.030074316 c 0
 183.682366269 657.030074316 193.036653533 653.670962092 226.393825593 653.670962092 c 0
 331.952044222 653.670962092 342.896816722 651.118943614 344.073894091 651.118943614 c 0
 359.827683715 651.118943614 375.612119601 652.762471252 391.337727251 652.762471252 c 0
 411.99408678 652.762471252 443.756377815 649.46876237 446.063076441 629.452661747 c 0
 448.988757482 604.06541548 452.556833588 608.755046602 452.001151531 599.020173423 c 0
 451.229185123 585.496261692 438.602285059 582.947498415 424.291381372 580.058815873 c 0
 401.765597048 575.511944385 394.2385233 567.787435351 371.326525269 567.295367712 c 0
 370.71457261 567.282225161 370.081608283 567.276006308 369.427827795 567.276006308 c 0
 357.891224656 567.276006308 339.872866215 569.212438298 316.44699199 569.212438298 c 0
 266.583324678 569.212438298 265.992535623 556.128336767 263.958512162 511.081176128 c 0
 263.597478841 503.085434515 263.445773991 496.184192822 263.445773991 490.17421111 c 0
 263.445773991 458.529432623 267.651657927 451.594055588 267.651657927 439.699566685 c 0
 267.651657927 431.50973819 265.657703044 420.968859244 258.923958857 398.392303939 c 0
 249.204386251 365.805014848 247.640101621 325.147842874 247.640101621 302.780035518 c 0x60
 247.640101621 292.791004616 247.952073655 286.44950062 247.9889998 286.103170751 c 0
 249.822438684 268.907369394 255.658278697 255.622321806 255.658278697 236.93661507 c 0x50
 255.658278697 213.924467642 248.568662878 196.352402995 248.568662878 167.257432089 c 0
 248.568662878 127.413230171 268.338551177 75.3931590625 268.338551177 40.0915505006 c 0
 268.338551177 23.0777240815 263.746367814 9.94729064889 250.135539302 3.93495879867 c 0
 246.15445888 2.17639012637 239.409268754 1.15503034378 231.399051815 1.15503034378 c 0
 207.788763279 1.15503034378 173.188068052 10.028486049 165.985073141 35.0518562522 c 0x48
 163.621367083 43.2634255337 160.404798917 129.769430972 160.404798917 137.258642899 c 0
 160.404798917 137.931686666 161.724470966 195.907459842 161.724470966 204.55008061 c 0x50
 161.724470966 208.422790603 159.18885284 308.715191716 159.18885284 309.767673123 c 0
 159.18885284 343.774792047 161.83520711 364.634856185 161.83520711 401.073681015 c 0
 161.83520711 439.465746363 157.970079115 453.507281191 157.970079115 477.433003066 c 0x60
  Spiro
    4 626 o
    15 649 o
    28 653 o
    79 655 o
    96 654 o
    136 655 o
    168 657 o
    194 655 o
    250 654 o
    276 654 o
    408 652 o
    426 648 o
    436 644 o
    442 640 o
    446 630 o
    448 616 o
    452 599 o
    444 586 o
    424 580 o
    391 570 o
    352 568 o
    304 569 o
    280 563 o
    264 512 o
    263 483 o
    266 459 o
    260 402 o
    254 380 o
    248 315 o
    248 286 o
    255 248 o
    252 204 o
    250 146 o
    258 104 o
    268 46 o
    261 12 o
    210 4 o
    166 35 o
    164 50 o
    162 97 o
    161 166 o
    160 344 o
    160 444 o
    162 532 o
    152 552 o
    137 560 o
    117 568 o
    84 568 o
    54 576 o
    26 590 o
    10 606 o
    0 0 z
  EndSpiro
EndSplineSet
Validated: 1
EndChar
StartChar: V
Encoding: 86 86 64
Width: 500
InSpiro: 1
Flags: W
VStem: 369.163 98.0982<455.872 531.239>
LayerCount: 2
Back
Fore
SplineSet
60.8184132045 589.998172226 m 0
 65.5271757282 611.188210486 73.4636358519 620.812625528 82.8913106124 620.812625528 c 0
 105.619240252 620.812625528 137.013809293 564.877461963 152.745338646 480.205197213 c 0
 162.717773438 426.530273438 177.602539062 391.836914062 188.340735105 391.836914062 c 0
 197.548828125 391.836914062 205.8984375 366.326171875 205.8984375 337.549293366 c 0
 205.8984375 305.494140625 216.258789062 242.857421875 228.346679688 200 c 2
 250.795898438 120.408203125 l 1
 277.405273438 179.591796875 l 2
 321.44921875 277.55078125 369.163085938 436.734375 369.163085938 485.421546284 c 0
 369.163085938 514.286132812 385.93359375 537.857421875 429.827129314 551.479834171 c 0
 438.435304722 554.151391907 445.554307762 555.65438797 451.188845511 555.65438797 c 0
 461.914634104 555.65438797 467.261294089 550.208111012 467.261294089 537.008683769 c 0
 467.261294089 520.35749024 458.752595676 491.367898964 441.800381906 445.40869867 c 0
 413.759765625 369.387695312 384.625976562 274.201171875 373.321185225 227.003209149 c 0
 344.01532406 104.650049177 278.810250573 10.1469218652 238.929795972 10.1469218652 c 0
 236.083614173 10.1469218652 233.366419982 10.6282610902 230.800468427 11.6151681184 c 0
 166.439883828 36.3693039252 102.687944585 395.708282233 70.1131595913 489.361435448 c 0
 61.9310668559 512.885114414 57.5482185533 536.571743675 57.5482185533 558.667742703 c 0
 57.5482185533 569.568534189 58.6149257369 580.082194618 60.8184132045 589.998172226 c 0
  Spiro
    58.5059 579.592 o
    86.2118 616.722 o
    123.248 573.7 o
    155.134 467.347 o
    164.686 429.663 o
    176.416 402.323 o
    187.53 391.837 o
    196.737 384.104 o
    203.367 363.845 o
    205.898 335.714 o
    209.026 296.668 o
    217.164 247.467 o
    228.347 200 [
    250.796 120.408 v
    277.405 179.592 ]
    320.729 291.49 o
    355.188 406.452 o
    369.163 485.714 o
    374.467 512.207 o
    389.334 533.104 o
    412.021 545.953 o
    456.018 550.593 o
    462.978 515.93 o
    435.59 428.571 o
    412.204 360.252 o
    389.004 284.454 o
    371.253 218.367 o
    330.097 107.269 o
    275.219 32.3499 o
    222.225 14.9141 o
    189.874 64.715 o
    147.223 194.748 o
    93.9102 406.122 o
    86.3967 435.283 o
    76.8447 468.03 o
    67.1221 497.959 o
    59.8241 526.527 o
    56.7517 555.636 o
    0 0 z
  EndSpiro
EndSplineSet
Validated: 1
EndChar
StartChar: bracketright
Encoding: 93 93 70
Width: 500
Flags: W
HStem: -91.3047 106.453<114.148 306.309> -91.3047 93.4785<233.118 306.309> 626.087 86.957<67.3083 287.404>
VStem: 308.565 83.5551<2.63142 525.61>
LayerCount: 2
Back
Fore
SplineSet
59.9459086984 668.781998704 m 0x70
 57.4618415407 675.40600337 55.9594090503 681.054053095 55.9594090503 685.867035113 c 0
 55.9594090503 709.654751748 92.6599107743 713.043945312 228.936886279 713.043945312 c 0
 345.521484375 713.043945312 353.0078125 710.563476562 362.08766258 687.215656937 c 0
 389.34415985 617.128620668 392.365731946 472.87084256 392.365731946 332.801373168 c 0
 392.365731946 292.899147561 392.120520785 253.336817879 392.120520785 215.925933075 c 0
 392.120520785 105.792006706 394.245655761 14.303686586 411.008297992 -12.3201382515 c 0
 413.080300608 -15.611065418 414.087259667 -19.0840754444 414.087259667 -22.6643984596 c 0
 414.087259667 -53.1056849877 341.293626017 -91.3046875 231.407542246 -91.3046875 c 0xb0
 143.653893951 -91.3046875 81.5317518164 -66.9435819941 81.5317518164 -27.8608191245 c 0
 81.5317518164 -22.8836510002 82.5392413191 -17.6677287901 84.629585826 -12.2329612138 c 0
 92.0459551912 7.04914450011 107.732091973 15.1482587103 147.717278159 15.1482587103 c 0
 162.564594874 15.1482587103 180.762236946 14.0315620339 203.130859375 11.9560546875 c 2
 308.565429688 2.173828125 l 1
 308.565429688 279.34765625 l 2
 308.565429688 431.521484375 302.682617188 572.208007812 293.557785765 596.541612666 c 0
 286.205078125 616.149414062 252.043945312 626.086914062 169.192493507 626.086914062 c 0
 117.260742188 626.086914062 69.4345703125 629.991210938 69.4345703125 637.187987956 c 0
 69.4345703125 639.673828125 63.728515625 658.6953125 59.9459086984 668.781998704 c 0x70
EndSplineSet
Validated: 1
EndChar
StartChar: asciicircum
Encoding: 94 94 71
Width: 500
InSpiro: 1
Flags: W
HStem: 448.695 323.916
LayerCount: 2
Back
Fore
SplineSet
25.2177734375 515.821814703 m 0
 25.2177734375 552.373407405 177.391601562 683.385560866 177.391601562 728.22112862 c 0
 177.391601562 738.279296875 188.260742188 753.142578125 218.775865566 765.625908553 c 0
 229.723872307 770.104592252 239.128022759 772.610915252 247.626123197 772.610915252 c 0
 272.435527053 772.610915252 289.522729767 751.249698951 314.757558428 695.241273894 c 0
 343.564453125 631.3046875 379.875976562 572.297851562 406.606650308 545.567177817 c 0
 428.747133136 523.426694989 440.187132982 496.416626344 440.187132982 476.547372953 c 0
 440.187132982 460.206370857 432.449283218 448.6953125 416.562207176 448.6953125 c 0
 376.3046875 448.6953125 304.43359375 522.608398438 266.258789062 596.521484375 c 2
 240.434570312 646.521484375 l 1
 173.043945312 581.172851562 l 2
 127.907710454 537.404859278 64.7752011949 507.188354973 38.0143209681 507.188354973 c 0
 29.9746830238 507.188354973 25.2177734375 509.915551367 25.2177734375 515.821814703 c 0
  Spiro
    203.479 759.367 o
    250.864 769.524 o
    285.679 746.405 o
    321.037 681.305 o
    347.069 630.079 o
    376.005 583.057 o
    401.305 550.869 o
    433.112 504.136 o
    436.442 465.01 o
    410 448.695 o
    366.293 470.554 o
    312.951 525.412 o
    266.259 596.521 [
    240.435 646.521 v
    173.044 581.173 ]
    108.697 533.621 o
    50.4533 511.403 o
    25.2178 524.782 o
    35.7842 542.462 o
    63.3328 576.308 o
    101.305 618.261 o
    139.276 661.874 o
    166.825 700.049 o
    177.392 723.695 o
    180.767 738.028 o
    189.963 750.604 o
    0 0 z
  EndSpiro
EndSplineSet
Validated: 1
EndChar
StartChar: underscore
Encoding: 95 95 72
Width: 500
Flags: W
HStem: -79.7231 108.747<132.406 365.081>
LayerCount: 2
Back
Fore
SplineSet
169.65813554 13.7944201858 m 0
 231.838245405 23.8581924573 288.662657123 29.0235794344 335.57653671 29.0235794344 c 0
 402.670795426 29.0235794344 449.494529268 18.458545809 462.724046296 -3.45254840848 c 0
 464.729866042 -6.77464288522 465.782180826 -10.057364095 465.782180826 -13.2890400273 c 0
 465.782180826 -40.3585851648 391.948931771 -63.8466556879 186.211398163 -76.8935514744 c 0
 158.186626606 -78.6707491862 136.089350635 -79.7231025882 118.745156337 -79.7231025882 c 0
 70.566718037 -79.7231025882 59.0634765625 -71.6030510491 59.0634765625 -48.3432386963 c 0
 59.0634765625 -10.9140625 88.8505859375 0.7158203125 169.65813554 13.7944201858 c 0
EndSplineSet
Validated: 1
EndChar
StartChar: grave
Encoding: 96 96 73
Width: 500
Flags: W
HStem: 542.889 217.163
VStem: 278.889 80.845<547.254 604.809>
LayerCount: 2
Back
Fore
SplineSet
134.156329335 736.717189572 m 0
 132.86935752 741.631025028 132.144078017 745.839486037 132.144078017 749.274102853 c 0
 132.144078017 756.266410857 135.150084554 760.051430234 142.542405831 760.051430234 c 0
 147.574363954 760.051430234 154.638735996 758.297628575 164.170878047 754.607806097 c 0
 180 748.48046875 201.43359375 742.888671875 207.513173481 742.888671875 c 0
 220.306640625 742.888671875 256.666992188 718.126953125 283.010109105 695.546940168 c 0
 333.648061485 652.142599502 359.733633294 606.118298292 359.733633294 576.093457039 c 0
 359.733633294 555.857127686 347.884068515 542.888671875 323.715532148 542.888671875 c 0
 298.888671875 542.888671875 278.888671875 556.573242188 278.888671875 570.717535634 c 0
 278.888671875 587.716796875 250 617.6015625 217.220273336 636.817078064 c 0
 178.888671875 659.287109375 144.521484375 697.141601562 134.156329335 736.717189572 c 0
EndSplineSet
Validated: 1
EndChar
StartChar: e
Encoding: 101 101 22
Width: 500
Flags: W
VStem: 266.141 108.23<300.06 364.689>
LayerCount: 2
Fore
SplineSet
439.919921875 91.0280332931 m 0
 439.919921875 45.5694883341 371.343007689 -3.3505859375 303.910031382 -3.3505859375 c 0
 184.685528025 -3.3505859375 39.5261463428 89.3856871575 22.8644290886 218.406060374 c 0
 22.349609375 222.392578125 22.220703125 224.401367188 22.220703125 225.454729741 c 0
 22.220703125 344.900613999 160.668198154 478.474609375 227.085075743 478.474609375 c 0
 298.274414062 478.474609375 374.37109375 439.354492188 374.37109375 368.034358816 c 0
 374.37109375 323.727540627 365.109148967 216.809376238 195.256835938 134.607421875 c 1
 196.43618207 133.783760089 293.902796143 68.7425459854 337.0859375 110.581054688 c 1
 345.25 128.443359375 364.252929688 140.978515625 386.370928251 140.978515625 c 0
 415.92578125 140.978515625 439.919921875 118.596679688 439.919921875 91.0280332931 c 0
237.956054688 378.046875 m 1
 160.387113234 336.6604161 123.053680463 248.961191341 132.083984375 217.03515625 c 1
 251.633789062 271.305664062 265.081054688 327.189453125 266.141397083 357.397278269 c 0
 266.295898438 361.798828125 266.63671875 364.553710938 266.66045183 364.698036259 c 0
 267.129882812 367.552734375 258.536132812 375.571289062 237.956054688 378.046875 c 1
EndSplineSet
Validated: 33
EndChar
StartChar: f
Encoding: 102 102 77
Width: 500
InSpiro: 1
Flags: W
HStem: 599.932 90.1042<280.842 366.849>
VStem: 144.65 90.0815<112.554 253.011> 151.853 90.7782<343.499 556.071> 163.176 90.0007<41.8008 250.555>
LayerCount: 2
Fore
SplineSet
239.126141717 343.67527206 m 1xa0
 299.183567385 339.918118033 355.00435278 334.567453908 355.00435278 289.992153653 c 0
 355.00435278 265.158211907 334.842340899 244.996200026 313.656018269 244.996200026 c 0
 302.002701427 244.996200026 276.869379578 251.096087345 234.731228575 253.803988349 c 1xc0
 236.731034851 196.804928139 253.176265702 163.468830301 253.176265702 101.103857894 c 0
 253.176265702 42.2676207842 220.164893393 -29.0064088671 177.990045284 -29.0064088671 c 0
 153.151674017 -29.0064088671 132.986065927 -8.84080077702 132.986065927 15.9975704894 c 0
 132.986065927 45.9322489553 163.175560367 51.8337483421 163.175560367 110.674427807 c 0x90
 163.175560367 150.824216591 146.65670168 187.478952264 144.649745369 253.011440014 c 1xc0
 115.858652954 250.620292028 97.9524445463 246.999060579 88.7882748419 246.999060579 c 0
 67.1646907255 246.999060579 47.0030720021 267.160679303 47.0030720021 291.994136789 c 0
 47.0030720021 314.431764404 63.4621267948 333.055509253 97.6359943478 338.437120343 c 0
 106.114661408 339.772318609 127.423165773 342.14107949 137.071484909 343.425476372 c 0
 148.922991348 345.003164433 149.049106228 346.461712798 151.853491603 379.00200721 c 0
 151.854611897 379.01500638 152.446779914 385.886145341 156.665691905 507.035331373 c 0
 158.658844043 564.27017291 204.722395925 690.036196469 331.34242518 690.036196469 c 0
 403.071971383 690.036196469 458.996560786 623.655210101 458.996560786 586.457064409 c 0
 458.996560786 563.169766752 438.829257781 543.002463747 413.988798854 543.002463747 c 0
 366.013936563 543.002463747 377.677159537 599.931957161 326.812684739 599.931957161 c 0
 313.881590103 599.931957161 280.83884539 595.42283568 261.256603795 550.344732369 c 0
 247.096923677 517.749305532 245.657878381 477.023726412 242.631723495 390.125445057 c 0
 242.631459575 390.117866412 242.312385862 380.955428158 239.126141717 343.67527206 c 1xa0
  Spiro
    234.731 253.804 v
    240.394 203.06 o
    248.846 157.882 o
    253.176 108.473 o
    251.671 82.5045 o
    241.311 38.8554 o
    213.446 -11.7304 o
    203.822 -20.8618 o
    191.753 -26.8617 o
    177.99 -29.0064 o
    155.303 -22.8701 o
    139.122 -6.6894 o
    132.986 15.9976 o
    134.125 26.0958 o
    137.387 35.419 o
    142.497 43.6571 o
    151.192 57.2238 o
    159.493 78.6582 o
    163.176 107.695 o
    158.826 149.933 o
    150.336 195.846 o
    144.65 253.011 v
    119.548 250.393 o
    101.883 248.025 o
    91.9981 246.999 o
    69.3157 253.134 o
    53.1382 269.312 o
    47.0031 291.994 o
    52.0566 312.719 o
    65.5801 328.411 o
    84.955 336.44 o
    106.14 339.448 o
    127.469 341.82 o
    148.797 343.54 o
    148.923 345 o
    149.049 346.462 o
    149.174 347.916 o
    151.267 373.123 o
    152.631 395.482 o
    153.916 428.086 o
    158.716 506.17 o
    175.92 579.875 o
    217.782 644.243 o
    241.476 663.809 o
    277.715 682.036 o
    325.842 690.036 o
    347.149 688.46 o
    384.002 677.61 o
    426.083 648.43 o
    436.85 636.273 o
    451.6 613.999 o
    458.997 588.01 o
    452.86 565.321 o
    436.678 549.139 o
    413.989 543.002 o
    396.717 546.439 o
    382.51 555.847 o
    372.853 569.762 o
    367.436 578.812 o
    352.444 592.743 o
    326.234 599.932 o
    308.267 597.089 o
    283.997 583.123 o
    261.125 550.042 o
    250.82 514.868 o
    246.01 473.298 o
    243.844 424.931 o
    242.791 396.7 o
    241.494 373.55 o
    239.126 343.675 v
    263.198 341.757 o
    289.574 338.702 o
    317.863 334.304 o
    336.851 326.098 o
    350.072 310.482 o
    355.004 289.992 o
    348.869 267.309 o
    332.691 251.131 o
    310.008 244.996 o
    296.317 246.675 o
    271.166 250.321 o
    0 0 z
  EndSpiro
EndSplineSet
Validated: 1
EndChar
StartChar: g
Encoding: 103 103 26
Width: 500
InSpiro: 1
Flags: W
HStem: -221.957 90.0061<143.277 321.181> 38.5014 90.0061<178.538 284.735> 387.321 90.041<199.482 312.2>
VStem: -1.23329 90.0119<179.85 280.988> 357.934 90.0617<-94.4098 70.1686>
LayerCount: 2
Fore
SplineSet
262.09805014 387.320989653 m 0
 220.721986087 387.320989653 177.096060768 355.434137694 139.332176659 315.906424581 c 0
 100.971812465 275.754371726 88.7786292261 248.776314373 88.7786292261 225.459288876 c 0
 88.7786292261 180.898863799 133.310347751 165.508441101 136.363585031 164.453196188 c 0
 229.28719025 132.33739491 243.377525285 128.507515915 254.895618091 128.507515915 c 0
 285.340053617 128.507515915 291.131147376 155.264660041 299.18539238 221.93264449 c 0
 305.168274003 271.45518315 285.395021599 337.595864348 314.248359926 363.269213902 c 1
 303.544151787 376.598709405 286.091181397 387.320989653 262.09805014 387.320989653 c 0
  Spiro
    260.595 387.321 o
    219.775 377.511 o
    177.905 351.174 o
    136.81 313.267 o
    108.451 279.059 o
    93.2578 250.355 o
    88.7786 225.898 o
    103.141 189.288 o
    144.58 163.275 o
    210.129 138.96 o
    227.642 133.311 o
    242.182 129.743 o
    254.022 128.508 o
    277.8 137.542 o
    290.524 165.289 o
    298.032 212.382 o
    299.224 222.125 o
    300.561 232.299 o
    302.128 242.842 o
    300.253 263.443 o
    299.063 284.889 o
    298.649 307.088 o
    298.706 315.226 o
    298.88 323.394 o
    299.171 331.542 o
    301.356 343.619 o
    306.547 354.37 o
    314.248 363.269 v
    301.262 375.418 o
    283.438 384.054 o
    0 0 z
  EndSpiro
340.206390881 72.4515167707 m 1
 328.556511192 60.9990683571 300.855191551 38.5014143016 254.455376141 38.5014143016 c 0
 242.456321359 38.5014143016 225.242028678 38.5014143016 142.034687086 67.2598602994 c 0
 104.386097695 80.2721126344 -1.23328805226 116.776696764 -1.23328805226 226.343137435 c 0
 -1.23328805226 298.815487147 49.8071146068 353.731698645 74.6279039253 378.552487964 c 0
 154.810827127 458.735411166 213.885220687 477.362001218 260.271484706 477.362001218 c 0
 281.250197138 477.362001218 364.93387287 471.96795382 403.904514075 388.479182061 c 1
 421.806971005 382.534326349 434.733976135 365.642479068 434.733976135 345.75519355 c 0
 434.733976135 316.751024903 407.685827936 312.723497598 393.113364311 240.056129456 c 1
 406.937977167 136.000512199 447.995613515 60.840437462 447.995613515 -23.3655851201 c 0
 447.995613515 -140.570380858 368.45326674 -221.956984295 248.751663942 -221.956984295 c 0
 168.219052058 -221.956984295 31.0552988253 -184.040243343 31.0552988253 -131.328057667 c 0
 31.0552988253 -106.487218404 51.2229106153 -86.3196066142 76.0637498781 -86.3196066142 c 0
 97.1557976201 -86.3196066142 166.434666676 -131.950930133 247.044792448 -131.950930133 c 0
 321.825942009 -131.950930133 357.933938387 -87.1223435307 357.933938387 -24.2010988334 c 0
 357.933938387 5.02960113524 350.141251789 36.8737417129 340.206390881 72.4515167707 c 1
  Spiro
    434.734 345.755 o
    433.735 336.293 o
    430.856 327.473 o
    426.313 319.536 o
    410.308 292.605 o
    399.684 265.823 o
    393.113 240.056 v
    413.462 144.282 o
    436.859 58.8728 o
    447.996 -24.2929 o
    422.981 -127.13 o
    353.459 -196.599 o
    248.549 -221.957 o
    202.731 -218.483 o
    137.888 -203.853 o
    56.6199 -171.925 o
    43.2846 -162.158 o
    34.3174 -148.17 o
    31.0553 -131.328 o
    37.1923 -108.639 o
    53.3745 -92.4566 o
    76.0637 -86.3196 o
    82.8883 -86.8364 o
    89.4371 -88.3519 o
    95.6203 -90.7955 o
    135.518 -107.902 o
    189.396 -124.522 o
    248.559 -131.951 o
    309.43 -118.068 o
    345.883 -80.3952 o
    357.934 -25.353 o
    355.55 5.56932 o
    349.21 38.0675 o
    340.206 72.4515 v
    333.327 66.2131 o
    325.729 60.3719 o
    317.42 55.0004 o
    296.711 45.4084 o
    275.457 40.1147 o
    254.455 38.5014 o
    239.914 39.0708 o
    216.903 43.0771 o
    180.631 53.9213 o
    119.285 76.2468 o
    72.2498 99.2823 o
    36.007 129.276 o
    21.9654 147.49 o
    6.20674 179.971 o
    -1.23329 225.966 o
    13.1343 292.569 o
    45.8994 346.131 o
    81.1555 385.08 o
    149.985 441.7 o
    209.872 469.821 o
    261.052 477.362 o
    292.911 474.329 o
    332.563 461.22 o
    373.202 432.171 o
    385.1 418.835 o
    395.399 404.201 o
    403.905 388.479 v
    419.84 379.192 o
    430.727 364.332 o
    0 0 z
  EndSpiro
EndSplineSet
Validated: 33
EndChar
StartChar: h
Encoding: 104 104 78
Width: 500
InSpiro: 1
Flags: W
HStem: 29.0088 89.882<353.147 412.481>
VStem: 21.0088 96.087<25.6441 173.197> 251.009 92.342<120.94 217.317> 288.36 90.124<205.185 311.006>
LayerCount: 2
Back
Fore
SplineSet
313.97931725 404.991175974 m 0xd0
 347.825938029 404.991175974 378.48438029 357.975447629 378.48438029 295.644441687 c 0xd0
 378.48438029 231.033365542 343.350839317 169.090509788 343.350839317 138.342601383 c 0
 343.350839317 129.73725925 346.102703839 123.575287938 353.146748105 120.482017981 c 1
 377.015112349 118.890793698 l 2
 400.610388347 117.317775299 418.991175974 97.7338320242 418.991175974 73.9867848201 c 0
 418.991175974 49.1366564157 398.863104755 29.0088240257 378.932227951 29.0088240257 c 0
 373.571508593 29.0088240257 339.38129001 30.4649211412 327.343724777 33.9836930242 c 0
 296.986081771 42.8577151859 251.008824026 76.8792075729 251.008824026 123.423132067 c 0xe0
 251.008824026 183.965480331 288.360424328 248.101852488 288.360424328 295.813217307 c 0
 288.360424328 301.621600039 287.806849945 307.068948364 286.621998414 312.298946193 c 1
 191.994543601 294.502899163 117.095802847 175.733880733 117.095802847 81.4856048315 c 1
 117.095804677 52.5438912213 116.447469341 37.7185847734 103.777434934 25.0485503667 c 0
 97.2531285251 18.5242439576 85.5656759731 10.5960012056 71.9193931707 10.5960012056 c 0
 68.0338977526 10.5960012056 33.0076710663 11.2387496097 25.8426194216 48.2015446012 c 0
 22.9027629728 63.367563858 21.0088240257 103.449262242 21.0088240257 107.527613244 c 0
 21.0088240257 108.641329576 21.1500602018 111.179015632 25.8262137189 128.561168501 c 1
 24.462539426 149.33332861 1.00882402568 591.319028263 1.00882402568 606.655626584 c 0
 1.00882402568 620.863343584 21.1368952449 640.991175974 45.9887943037 640.991175974 c 0
 69.9660255102 640.991175974 89.6720675012 622.255217829 90.9285254434 598.382516927 c 2
 106.857888522 295.724618426 l 1
 139.961087386 337.670682108 209.384594073 404.991175974 313.97931725 404.991175974 c 0xd0
  Spiro
    21.0088 104 o
    21.218 108.563 o
    22.5011 115.509 o
    25.8262 128.561 v
    18.797 257.735 o
    7.12935 477.549 o
    1.00882 596 o
    7.13637 618.695 o
    23.3054 634.864 o
    46 640.991 o
    68.0009 635.261 o
    84.0597 620.02 o
    90.9285 598.383 [
    106.858 295.725 v
    143.913 335.787 o
    212.781 382.151 o
    313.488 404.988 o
    313.658 404.99 o
    313.829 404.991 o
    314 404.991 o
    323.515 403.929 o
    337.429 398.46 o
    351.276 385.222 o
    367.357 355.128 o
    375.955 325.028 o
    378.484 295.581 o
    370.074 235.484 o
    353.414 179.609 o
    341.571 128.668 o
    343.464 126.69 o
    347.272 123.693 o
    353.147 120.482 v
    377.015 118.891 ]
    398.366 111.84 o
    413.363 95.8177 o
    418.991 74 o
    412.864 51.3052 o
    396.695 35.1363 o
    374 29.0088 o
    364.552 29.4727 o
    345.854 30.7872 o
    331.321 32.8211 o
    309.819 41.564 o
    277.772 64.8844 o
    252.818 107.333 o
    251.814 111.499 o
    251.209 115.741 o
    251.009 120 o
    260.676 183.347 o
    278.693 243.31 o
    288.36 295.854 o
    288.173 301.513 o
    287.599 306.998 o
    286.622 312.299 v
    254.154 302.319 o
    224.547 285.539 o
    197.638 262.675 o
    164.025 220.967 o
    136.723 171.438 o
    116.531 118.252 o
    116.861 107.025 o
    117.042 95.6209 o
    117.096 84.4323 o
    116.414 57.6559 o
    112.488 38.6062 o
    102.54 23.8111 o
    95.2372 18.0411 o
    84.2863 12.8432 o
    70.4026 10.596 o
    59.4003 12.1613 o
    39.9813 22.3143 o
    25.6639 49.1233 o
    23.2319 69.5348 o
    21.601 92.713 o
    0 0 z
  EndSpiro
EndSplineSet
Validated: 33
EndChar
StartChar: j
Encoding: 106 106 79
Width: 500
InSpiro: 1
Flags: W
HStem: -37.0462 89.9717<168.713 224.526> 585.009 99.9821<212.699 299.301>
VStem: 195.009 121.982<604.187 665.813> 227.009 115.786<324.276 378.323>
LayerCount: 2
Back
Fore
SplineSet
316.991175974 631.056175138 m 0xe0
 316.991175974 605.136656416 296.863104755 585.008824026 272 585.008824026 c 0
 265.094431948 585.008824026 265.094431948 585.008824026 265.093513695 585.00911098 c 0
 224.912931732 597.565542843 195.008824026 607.350795062 195.008824026 638.943824862 c 0
 195.008824026 664.863343584 215.136895245 684.991175974 240 684.991175974 c 0
 246.905568052 684.991175974 246.905568052 684.991175974 246.906486305 684.99088902 c 0
 287.087068268 672.434457157 316.991175974 662.649204938 316.991175974 631.056175138 c 0xe0
  Spiro
    316.991 630 o
    310.864 607.305 o
    294.695 591.136 o
    272 585.009 o
    265.719 585.454 o
    253.905 588.585 o
    226.526 597.062 o
    217.652 601.154 o
    202.808 614.488 o
    195.009 640 o
    201.136 662.695 o
    217.305 678.864 o
    240 684.991 o
    246.281 684.546 o
    258.095 681.415 o
    285.474 672.938 o
    294.348 668.846 o
    309.192 655.512 o
    0 0 z
  EndSpiro
133.332943061 86.9911759743 m 0
 172.301854117 86.9911759743 178.231301541 52.9911759303 185.784532303 52.9911759303 c 0
 186.0386187 52.9911759303 189.407026283 52.9254754193 190.968791584 52.9254754193 c 0
 250.298915228 52.9254754193 269.927125861 175.79038858 274.883673243 217.535801425 c 1
 270.615170268 292.397968985 227.008824026 363.704617995 227.008824026 386.037262531 c 0
 227.008824026 410.863343584 247.136895245 430.991175974 271.981065959 430.991175974 c 0
 290.831592896 430.991175974 307.105260235 419.403536163 342.794511736 330.272573304 c 0xd0
 343.225372343 329.196534463 364.991175974 268.867690197 364.991175974 216.508288032 c 0
 364.991175974 213.423319347 350.985779491 -37.046213305 189.262883665 -37.046213305 c 0
 189.212178998 -37.046213305 189.029219228 -37.0327728394 184.19243476 -37.0327728394 c 0
 136.885857217 -37.0327728394 89.0088240257 7.73382939019 89.0088240257 42.0434464746 c 0
 89.0088240257 66.8633435843 109.136895245 86.9911759743 133.332943061 86.9911759743 c 0
  Spiro
    186 52.9912 o
    186.916 52.9742 o
    188.668 52.9425 o
    189.861 52.9255 o
    202.707 54.5104 o
    213.578 59.4024 o
    223.669 67.7493 o
    241.318 92.5163 o
    260.095 140.393 o
    274.884 217.536 v
    267.325 264.515 o
    251.565 314.394 o
    230.233 369.235 o
    228.443 374.695 o
    227.366 380.319 o
    227.009 386 o
    233.136 408.695 o
    249.305 424.864 o
    272 430.991 o
    289.701 427.378 o
    304.175 417.465 o
    313.767 402.765 o
    339.362 336.734 o
    357.038 277.745 o
    364.956 217.786 o
    364.976 217.191 o
    364.987 216.595 o
    364.991 216 o
    363.072 197.382 o
    355.737 152.9 o
    340.706 96.4952 o
    327.859 63.9841 o
    310.483 32.5952 o
    287.308 4.10973 o
    260.054 -17.2944 o
    227.044 -31.7626 o
    189.263 -37.0462 o
    188.217 -37.0423 o
    187.165 -37.0307 o
    186.113 -37.0112 o
    185.48 -37.0232 o
    184.847 -37.0304 o
    184.219 -37.0328 o
    156.981 -32.5719 o
    131.416 -19.3618 o
    106.18 2.18019 o
    101.996 6.90304 o
    98.4941 12.5607 o
    93.7478 21.8619 o
    91.1172 28.349 o
    89.5343 35.119 o
    89.0088 42 o
    95.1364 64.6948 o
    111.305 80.8637 o
    134 86.9912 o
    144.902 85.6223 o
    160.352 78.5469 o
    174.624 61.3945 o
    179.445 57.2596 o
    183.045 54.4481 o
    185.211 52.9843 o
    185.474 52.9881 o
    185.737 52.9904 o
    0 0 z
  EndSpiro
EndSplineSet
Validated: 1
EndChar
StartChar: k
Encoding: 107 107 80
Width: 500
InSpiro: 1
Flags: W
HStem: 325.941 93.3266<312.846 392.173> 662.991 20G<97.5648 122.141>
VStem: 65.0088 91.7219<380.579 672.723> 89.0088 90.9345<0.67175 136.664> 97.0384 327.953<130.984 372.84> 304.414 90.5775<2.37159 112.435>
LayerCount: 2
Back
Fore
SplineSet
345.079502668 419.267099214 m 0xe0
 391.196082701 419.267099214 424.991175974 387.735987974 424.991175974 357.943644981 c 0xc8
 424.991175974 333.136656416 404.863104755 313.008824026 380.046467069 313.008824026 c 0
 366.678723219 313.008824026 354.025087169 318.849019146 350.546280813 321.899054973 c 0
 347.583533526 324.496637146 344.562809062 325.940512405 341.16291563 325.940512405 c 0
 329.29417184 325.940512405 312.804686386 308.344730309 278.03030392 260.808811719 c 1
 295.223215661 246.693667151 313.086555888 229.089127707 329.60040027 207.53271518 c 0
 391.54015683 126.679407291 394.991175974 41.795993941 394.991175974 33.9895833698 c 0
 394.991175974 15.1366564157 374.863104755 -4.99117597432 350.018723719 -4.99117597432 c 0
 326.939182393 -4.99117597432 307.721903099 12.3786309779 304.413705291 43.0908422393 c 0
 302.580273382 60.1118160091 289.550629374 131.612625406 227.005628926 186.265522629 c 1
 190.791550927 127.252108726 186.226588726 91.6069676443 179.943304137 42.5444440629 c 0
 175.761981477 9.89492155341 156.732741177 -6.99117597432 133.978909301 -6.99117597432 c 0
 109.136656416 -6.99117597432 89.0088240257 13.1368952449 89.0088240257 37.4982774077 c 0xd4
 89.0088240257 81.6776701509 97.0384136019 96.5353713617 97.0384136019 165.433490937 c 0xc8
 97.0384136019 284.669487755 65.0088240257 529.694956237 65.0088240257 638.003999525 c 0
 65.0088240257 662.863343584 85.1368952449 682.991175974 109.992746463 682.991175974 c 0
 134.289460168 682.991175974 154.151957748 663.758717714 156.730725604 586.944476445 c 0
 158.520225414 533.640310365 181.575258654 288.386364178 181.809772993 285.369303124 c 1
 205.352455284 306.679519922 244.703840565 394.366828307 316.77272815 415.022434845 c 0
 326.227472307 417.732251546 335.687981766 419.267099214 345.079502668 419.267099214 c 0xe0
  Spiro
    134 -6.99118 o
    111.305 -0.863635 o
    95.1363 15.3054 o
    89.0088 38 o
    89.1986 44.9537 o
    90.5187 63.3418 o
    94.0802 89.4547 o
    95.7207 114.7 o
    96.7095 140.24 o
    97.0384 165.885 o
    90.234 300.325 o
    76.2793 454.76 o
    65.0343 636.479 o
    65.0202 636.985 o
    65.0117 637.493 o
    65.0088 638 o
    71.1364 660.695 o
    87.3054 676.864 o
    110 682.991 o
    132.253 677.119 o
    148.356 661.544 o
    154.966 639.521 o
    159.504 548.199 o
    166.424 456.285 o
    174.786 364.305 o
    177.252 338.176 o
    179.627 311.812 o
    181.81 285.369 v
    183.902 287.151 o
    186.109 288.808 o
    188.411 290.327 o
    237.194 355.331 o
    277.2 395.043 o
    317.548 415.245 o
    326.465 417.391 o
    335.848 418.778 o
    345.558 419.267 o
    364.355 417.286 o
    389.861 407.812 o
    415.504 385.655 o
    420.771 377.066 o
    423.939 367.705 o
    424.991 358 o
    418.864 335.305 o
    402.695 319.136 o
    380 313.009 o
    367.037 314.905 o
    355.222 320.428 o
    345.366 329.265 o
    340.147 327.931 o
    330.92 322.589 o
    317.972 311.126 o
    307.07 298.681 o
    293.327 281.284 o
    278.03 260.809 v
    295.36 245.522 o
    312.774 227.71 o
    329.754 207.332 o
    374.099 128.577 o
    391.816 66.2103 o
    394.991 40 o
    388.864 17.3052 o
    372.695 1.13631 o
    350 -4.99118 o
    328.718 0.345141 o
    312.819 14.6394 o
    305.269 35.1472 o
    297.696 73.2274 o
    274.463 128.403 o
    227.006 186.266 v
    207.918 151.075 o
    193.154 114.452 o
    183.364 77.1565 o
    182.007 62.1854 o
    180.424 47.1839 o
    178.624 32.2451 o
    170.847 12.1568 o
    155.018 -1.7955 o
    0 0 z
  EndSpiro
EndSplineSet
Validated: 1
EndChar
StartChar: l
Encoding: 108 108 81
Width: 500
InSpiro: 1
Flags: W
VStem: 211.146 62.229<299.94 541.813>
LayerCount: 2
Fore
SplineSet
125.446174778 662.739366886 m 0
 174.396586437 673.97041172 161.200138128 680.050686498 180.066736556 684.047373864 c 0
 192.396303948 686.659261025 249.554455839 662.720276441 266.882628134 631.48828606 c 0
 297.690594496 575.960553957 270.581231186 383.549261588 273.374808279 314.599846864 c 0
 276.530358935 236.716415097 285.686748367 116.562089018 312.23893216 89.6680672893 c 0
 335.935089397 65.6668411532 377.473697125 88.2337274098 387.960658702 53.1820547729 c 0
 395.642291131 27.5069282635 364.861876765 -18.8440923206 315.072974904 -0.435026558824 c 0
 314.229602116 -0.123195918989 256.684382896 24.9136100915 238.043634589 45.9507558821 c 0
 222.81343741 63.1389005438 219.831429386 83.3031324888 217.034335649 102.216980619 c 0
 214.132823165 121.836904591 210.192293102 144.685592112 206.3052817 164.099209902 c 0
 192.506493486 233.017042303 194.716913714 263.253298269 203.599879749 332.64553594 c 0
 218.668765499 450.361138732 203.712439341 452.570795422 211.145842773 526.921080184 c 0
 213.145762895 546.924653505 212.689350216 611.626704073 180.668712599 596.666845499 c 0
 166.005707688 589.816373552 150.711430379 568.596456503 124.831233653 566.616639767 c 0
 120.504071392 566.285614916 74.4539458065 566.496004084 71.3385474376 600.377273994 c 0
 69.657853897 618.655524394 69.6351249069 618.902711738 63.1187151616 626.517144052 c 0
 52.1862109983 639.291787796 61.3361478366 644.462347307 68.0813429139 642.182659564 c 0
 77.2586366239 639.08099034 77.2586366239 639.08099034 89.4065095799 646.839911557 c 0
 106.861517474 657.98853252 108.051011143 658.748269446 125.446174778 662.739366886 c 0
  Spiro
    164 676 o
    180.093 684.053 o
    201 680 o
    230 665 o
    266.869 631.514 o
    279.395 569.58 o
    281.822 498.896 o
    273.152 320.092 o
    281.389 207.486 o
    283.535 181.387 o
    288.922 149.412 o
    302.976 102.825 o
    325.654 80.6561 o
    365.979 74.085 o
    387.956 53.1983 o
    378.092 15.7514 o
    345.36 -4.19629 o
    288.234 12.6849 o
    238 46 o
    224 70 o
    217.525 98.8965 o
    205.64 167.424 o
    202.303 322.513 o
    209.186 486.525 o
    212.141 536.875 o
    210.19 569.231 o
    203.093 587.557 o
    192.57 598.141 o
    180.916 596.782 o
    160.825 582.631 o
    125.078 566.636 o
    92.9579 572.847 o
    71.3799 599.928 o
    63.2788 626.33 o
    62.0216 642.247 o
    68.041 642.196 o
    73.7173 640.246 o
    81.6875 642.1 o
    90.2061 647.351 o
    100.549 653.999 o
    113.352 659.566 o
    125.773 662.814 o
    138.406 665.677 o
    0 0 z
  EndSpiro
EndSplineSet
Validated: 33
EndChar
StartChar: n
Encoding: 110 110 27
Width: 500
InSpiro: 1
Flags: W
HStem: 433.161 20G<25.2817 37.8112>
VStem: 36.6234 134.58<211.985 308.366> 54.2007 117.909<108.185 280.441> 54.2007 79.7246<47.4473 154.093>
LayerCount: 2
Back
Fore
SplineSet
2.77566139853 401.657118742 m 0xc0
 12.2626556208 438.637862225 15.9884896714 453.161336157 34.5749370115 453.161336157 c 0
 41.0474670216 453.161336157 49.3221518909 451.400066375 60.2698731358 448.212580244 c 0
 97.1724646304 437.468198287 104.935887868 433.72312962 109.253449026 401.116634289 c 0
 109.382623869 400.141097697 109.382623869 400.141097697 116.378487445 370.384899877 c 0
 119.992144335 355.014575955 122.784334491 343.970657521 128.667724855 343.970657521 c 0
 131.716389437 343.970657521 135.595078869 346.936083935 140.848194036 353.801598477 c 0
 141.193888136 354.253400464 168.311040949 383.826645483 184.115845946 390.736741106 c 0
 246.79635019 418.141589067 216.652705797 412.169575575 247.603341 424.060631929 c 0
 256.199827687 427.363352761 265.914769498 429.203774042 275.87712321 429.203774042 c 0
 304.734662349 429.203774042 335.668143687 413.761476411 347.507037989 373.686709046 c 0
 357.204077486 340.862140126 349.950273475 297.144409165 358.43034348 243.265787487 c 0
 376.769170632 126.748974587 376.769170632 126.748974587 389.12766835 113.203518202 c 0
 403.330493833 97.6365975688 429.773900677 92.033995594 429.773900677 75.9643666706 c 0
 429.773900677 74.4027781614 429.524188961 72.742346894 428.989266741 70.9643238199 c 0
 425.096801165 58.0261930833 394.090107373 41.2972245316 361.79804604 41.2972245316 c 0
 332.370311747 41.2972245316 301.87512278 55.1900723847 289.859853117 98.5052308125 c 0
 281.486480823 128.691315493 287.102860478 156.622648546 276.618379629 207.865155241 c 0
 268.907266652 245.552930543 267.339421923 261.083654345 267.339421923 269.648672159 c 0
 267.339421923 275.518562879 268.075809649 278.116790087 268.075809649 282.333270673 c 0
 268.075809649 286.789058163 267.253462349 293.052000021 263.870728295 306.892744091 c 0
 258.880908944 327.309014328 250.145048559 319.495937085 244.036536936 314.032677479 c 0
 232.01917141 303.284725821 193.450792025 297.433798543 182.72964372 260.057477537 c 0
 173.161294173 226.70007085 171.20305518 219.87321172 171.20305518 212.883802392 c 0xc0
 171.20305518 211.085282676 171.332717907 209.275999869 171.495745537 207.001151141 c 0
 171.833461624 202.288741298 172.110176162 198.427532547 172.110176162 194.826933842 c 0xa0
 172.110176162 187.590352248 170.992413854 181.406480389 167.005621604 171.480600108 c 0
 146.094591686 119.41859977 161.115390898 134.51516654 149.968834304 106.922852077 c 0
 146.911074463 99.3536381797 142.259778006 92.4439044317 139.126515351 85.7893794707 c 0
 135.012807528 77.0525532271 133.925282455 69.6099745616 133.925282455 63.1106700889 c 0x90
 133.925282455 55.8188653886 135.294194577 49.7143983496 135.294194577 44.3016149657 c 0
 135.294194577 39.5330175983 134.231727248 35.3012635193 130.234750592 31.2674394045 c 0
 127.013194254 28.0161840767 123.953737876 26.6147218585 120.649149562 26.6147218585 c 0
 114.905421437 26.6147218585 108.421145815 30.8485616313 99.0580094678 36.9621233264 c 0
 90.3224190871 42.6659354634 82.5154872703 45.0228529705 76.1187956182 49.9092526417 c 0
 64.2097189053 59.0065347522 62.9064379445 72.4394928066 62.0169049043 81.8216982638 c 0
 59.34144548 110.040672577 54.2007254931 128.608675277 54.2007254931 150.492266049 c 0xa0
 54.2007254931 152.886253027 54.2622474791 155.319919575 54.3952492833 157.810241654 c 0
 55.3945440239 176.521008559 59.9782340427 195.080022844 59.9782340427 213.636755791 c 0
 59.9782340427 255.532293463 36.6233689865 269.707694781 36.6233689865 307.30897148 c 0
 36.6233689865 309.423059221 36.6965618215 311.612653108 36.8511407643 313.887047387 c 0
 37.3800918517 321.669758956 37.8041904325 327.909725202 37.8041904325 333.007769612 c 0
 37.8041904325 347.035680371 34.5931514408 352.417592984 21.5199699641 357.504177042 c 0
 8.08180700202 362.732770067 -0.112656658334 367.828110695 -0.112656658334 382.815393251 c 0
 -0.112656658334 387.851992719 0.812786126582 394.005739894 2.77566139853 401.657118742 c 0xc0
  Spiro
    16 443 o
    61 448 o
    104 423 o
    112 386 o
    120 353 o
    130 345 o
    136 348 o
    141 354 o
    158 370 o
    169 381 o
    200 397 o
    216 406 o
    283 429 o
    326 410 o
    353 332 o
    358 246 o
    373 151 o
    423 89 o
    429 71 o
    424 63 o
    402 50 o
    365 41 o
    290 98 o
    277 206 o
    268 273 o
    266 297 o
    261 315 o
    253 320 o
    244 314 o
    233 308 o
    222 302 o
    193 281 o
    183 261 o
    179 247 o
    172 225 o
    172 191 o
    160 154 o
    150 107 o
    134 61 o
    121 27 o
    99 37 o
    76 50 o
    62 82 o
    56 126 o
    58 189 o
    54 248 o
    38 337 o
    30 353 o
    13 361 o
    0 381 o
    9 427 o
    0 0 z
  EndSpiro
EndSplineSet
Validated: 1
EndChar
StartChar: q
Encoding: 113 113 84
Width: 500
Flags: W
VStem: 323.847 103.394<-182.296 40.1586 121.973 335.203> 335.73 88.5136<-144.075 38.0401>
LayerCount: 2
Fore
SplineSet
323.846679688 191.81385758 m 0x80
 323.846679688 206.583197918 322.590820312 220.86358545 322.590820312 236.265503377 c 0
 322.590820312 248.80297686 328.47582167 286.96350576 326.921321684 300.693453807 c 0
 322.804178153 337.057665641 287.345284462 341.546272118 259.101795828 345.121507914 c 0
 235.627978614 348.092969147 219.738117338 353.409716332 203.847622332 353.045683007 c 0
 148.804340814 351.784703485 114.262695312 279.578640923 114.262695312 241.344077589 c 0
 114.262695312 194.902439251 149.511420097 174.823457125 173.85746942 160.955043667 c 0
 221.046472867 134.074435574 228.508584325 120.459830186 249.305576587 112.324018661 c 0
 276.032524887 101.868400308 323.846679688 109.623906778 323.846679688 191.81385758 c 0x80
  Spiro
    322.32 316.08 o
    307.76 331.76 o
    287.6 340.72 o
    258.48 345.2 o
    203.6 353.04 o
    144.24 318.32 o
    116.24 260.08 o
    137.52 186.16 o
    219.28 131.28 o
    249.52 112.24 o
    303.28 123.44 o
    315.6 142.48 o
    323.44 208.56 o
    326.8 284.72 o
    0 0 z
  EndSpiro
429.873749462 400.504023005 m 0
 429.922857162 397.867212349 430.463902774 187.798578873 427.240695048 136.790377102 c 0x80
 424.958984375 100.681640625 421.044921875 58.921875 420.886550512 18.7024560723 c 0
 420.731445312 -20.6875 424.1796875 -58.3525390625 424.24361602 -98.3002687297 c 0
 424.447603102 -225.767959744 351.964825773 -212.955133495 335.730019054 -175.609924136 c 0x40
 331.97265625 -166.966796875 330.604492188 -157.234375 330.122194335 -146.782518803 c 0
 329.390625 -130.928710938 330.733398438 -114.209960938 329.858764284 -97.5229777376 c 0
 326.935560085 -41.7517056943 316.216448391 -57.1839167146 324.413969156 4.73870968123 c 0
 325.03891571 9.45944575511 329.342821612 49.6468223715 292.940523007 38.2388139472 c 0
 276.772468103 33.1719551606 264.446465001 21.7128974742 235.330574389 19.215399002 c 0
 168.972137823 13.5233150417 45.2171810261 72.153668197 21.0508876866 196.185540068 c 0
 -8.64142258701 348.579321425 133.503557929 499.251447436 280.859902518 429.676130914 c 0
 306.411364331 417.611831624 309.460789128 405.288415828 322.3089774 404.560730829 c 0
 347.353697357 403.142268813 334.80954682 440.500696262 373.93669741 451.627781619 c 0
 385.958208843 455.046491692 428.71364603 462.795132279 429.873749462 400.504023005 c 0
  Spiro
    429.84 275.76 o
    427.6 142.48 o
    420.88 17.04 o
    424.24 -96.08 o
    414.16 -166.64 o
    354.8 -196.88 o
    330.16 -147.6 o
    323.44 -47.92 o
    324.56 5.84 o
    312.24 38.32 o
    293.2 38.32 o
    236.08 19.28 o
    142 41.68 o
    59.12 110 o
    21.04 196.24 o
    41.2 337.36 o
    124.08 425.84 o
    208.08 447.12 o
    284.24 428.08 o
    305.52 413.52 o
    322.32 404.56 o
    344.72 426.96 o
    373.84 451.6 o
    402.96 451.6 o
    429.84 402.32 o
    428.72 347.44 o
    0 0 z
  EndSpiro
EndSplineSet
Validated: 33
EndChar
StartChar: u
Encoding: 117 117 19
Width: 500
InSpiro: 1
Flags: HW
HStem: 19.4004 90.1992<179.211 261.86>
VStem: 18.4004 90.5<210.715 449.133> 347 104<204.357 446.087> 353.9 88.6992<21.6222 86.9984 390.222 467.645>
LayerCount: 2
Back
Fore
SplineSet
404 466 m 1
 414 444 l 1
 417 434 l 1
 422 387 l 1
 422 382 l 1
 420 339 l 1
 417 300 l 1
 414 260 l 1
 413 211 l 1
 413 209 l 1
 409 157 l 1
 408 149 l 1
 391 92 l 1
 387 84 l 1
 355 37 l 1
 352 33 l 1
 346 27 l 1
 340 23 l 1
 304 2 l 1
 290 -2 l 1
 289 -2 l 1
 260 -8 l 1
 253 -9 l 1
 213 -9 l 1
 179 -5 l 1
 179 -4 l 1
 172 -4 l 1
 163 -1 l 1
 124 -1 l 1
 124 13 l 1
 81 37 l 1
 75 47 l 1
 63 59 l 1
 52 66 l 1
 29 118 l 1
 26 130 l 1
 18 203 l 1
 18 208 l 1
 22 282 l 1
 29 356 l 1
 33 430 l 1
 36 442 l 1
 47 464 l 1
 76 481 l 1
 110 481 l 1
 139 464 l 1
 150 440 l 1
 153 425 l 1
 149 346 l 1
 142 272 l 1
 138 211 l 1
 144 154 l 1
 151 139 l 1
 158 132 l 1
 179 120 l 1
 196 115 l 1
 225 111 l 1
 246 111 l 1
 257 114 l 1
 265 119 l 1
 279 139 l 1
 289 174 l 1
 293 218 l 1
 294 266 l 1
 294 268 l 1
 297 308 l 1
 300 347 l 1
 302 377 l 1
 297 425 l 1
 300 442 l 1
 312 466 l 1
 341 483 l 1
 375 483 l 1
 404 466 l 1
391 176 m 1
 405 160 l 1
 417 128 l 1
 427 107 l 1
 437 90 l 1
 450 74 l 1
 464 63 l 1
 465 61 l 1
 467 59 l 1
 475 50 l 1
 485 30 l 1
 485 2 l 1
 471 -27 l 1
 442 -44 l 1
 414 -44 l 1
 412 -43 l 1
 407 -46 l 1
 396 -37 l 1
 395 -37 l 1
 372 -19 l 1
 371 -17 l 1
 363 -11 l 1
 361 -7 l 1
 341 16 l 1
 338 21 l 1
 322 48 l 1
 321 50 l 1
 308 77 l 1
 307 79 l 1
 295 111 l 1
 293 122 l 1
 293 145 l 1
 310 174 l 1
 339 188 l 1
 367 188 l 1
 391 176 l 1
EndSplineSet
EndChar
StartChar: x
Encoding: 120 120 88
Width: 500
InSpiro: 1
Flags: W
LayerCount: 2
Back
Fore
SplineSet
428.991210938 425.058080313 m 0
 428.991210938 389.91895052 349.067863435 327.538441578 264.0390625 205.177734375 c 1
 285.323242188 176.506835938 305.45703125 151.276367188 323.517079731 132.551314281 c 0
 378.708735832 75.3273992053 428.991210938 76.1982331124 428.991210938 32.3354256355 c 0
 428.991210938 7.13671875 408.86328125 -12.9912109375 384.053549895 -12.9912109375 c 0
 374.875 -12.9912109375 365.75 -10.236328125 352.208509685 -0.626116145376 c 0
 330.806640625 14.5625 304.080078125 24.2353515625 267.951633164 60.3637965238 c 0
 251.909179688 76.40625 231.81640625 99.8623046875 211.286132812 126.1171875 c 1
 189.27734375 92.775390625 135.55078125 11.9111328125 123.311715895 -0.327932542469 c 0
 117.0390625 -6.6005859375 105.51953125 -10.9912109375 93.9366955833 -10.9912109375 c 0
 69.13671875 -10.9912109375 49.0087890625 9.13671875 49.0087890625 33.9454362975 c 0
 49.0087890625 43.220703125 51.822265625 52.4423828125 74.5753691139 84.0514219685 c 0
 96.3876953125 114.353515625 126.081054688 160.48828125 154.092773438 203.008789062 c 1
 39.0649355953 359.370860755 26.0087890625 383.591090542 26.0087890625 398.053769753 c 0
 26.0087890625 422.86328125 46.13671875 442.991210938 70.3603198179 442.991210938 c 0
 95.1270917007 442.991210938 105.680238804 427.623936749 152.732931842 359.106779907 c 0
 166.758789062 338.682617188 183.973632812 313.615234375 207.896484375 281.498046875 c 1
 250.524943474 339.889140371 354.596772733 459.236421171 356.242758236 460.882406674 c 0
 360.9609375 465.600585938 372.48046875 469.991210938 384.063304417 469.991210938 c 0
 408.86328125 469.991210938 428.991210938 449.86328125 428.991210938 425.058080313 c 0
  Spiro
    428.991 32 o
    422.864 9.30525 o
    406.695 -6.86369 o
    384 -12.9912 o
    374.934 -12.0747 o
    366.145 -9.31433 o
    357.986 -4.72655 o
    330.863 12.4338 o
    303.228 29.7925 o
    274.516 53.7994 o
    252.659 76.7382 o
    231.759 100.748 o
    211.286 126.117 v
    181.544 81.3811 o
    147.381 31.1837 o
    125.82 2.18019 o
    116.238 -5.13138 o
    105.407 -9.53062 o
    94 -10.9912 o
    71.3052 -4.86363 o
    55.1363 11.3054 o
    49.0088 34 o
    49.9447 43.16 o
    52.7636 52.0346 o
    57.4486 60.2586 o
    93.5525 111.812 o
    125.271 159.168 o
    154.093 203.009 v
    149.529 209.195 o
    144.817 215.545 o
    139.969 222.033 o
    115.099 255.895 o
    93.4531 286.546 o
    73.0655 316.111 o
    61.0454 333.591 o
    48.2211 352.106 o
    34.2255 372.054 o
    29.6643 380.195 o
    26.92 388.961 o
    26.0088 398 o
    32.1364 420.695 o
    48.3054 436.864 o
    71 442.991 o
    80.4579 441.948 o
    94.0962 436.658 o
    107.775 423.946 o
    122.127 403.488 o
    135.199 384.617 o
    147.309 367.005 o
    166.326 339.413 o
    185.899 311.618 o
    207.897 281.498 v
    213.272 288.801 o
    218.746 296.113 o
    224.296 303.397 o
    246.21 331.062 o
    268.496 357.955 o
    290.714 384.149 o
    316.748 414.871 o
    341.102 443.735 o
    352.18 456.82 o
    361.762 464.131 o
    372.593 468.531 o
    384 469.991 o
    406.695 463.864 o
    422.864 447.695 o
    428.991 425 o
    427.847 414.886 o
    424.402 405.165 o
    418.677 396.316 o
    398.954 372.686 o
    379.102 349.164 o
    359.286 325.851 o
    321.809 281.303 o
    292.167 243.979 o
    264.039 205.178 v
    285.362 177.3 o
    308.65 149.348 o
    336.425 119.203 o
    357.412 101.722 o
    380.952 87.3807 o
    410.014 68.7265 o
    417.123 62.4048 o
    425.177 50.2272 o
    0 0 z
  EndSpiro
EndSplineSet
Validated: 1
EndChar
StartChar: y
Encoding: 121 121 89
Width: 500
InSpiro: 1
Flags: W
HStem: -163.48 90.0773<183.623 249.702> 82.5607 89.9968<167.847 290.169>
VStem: 27.0362 89.9967<234.681 388.413> 300.438 89.9861<185.047 398.041>
LayerCount: 2
Back
Fore
SplineSet
152.991175974 428.048105677 m 0
 152.991175974 403.652581613 117.032872621 368.39778245 117.032872621 309.976935931 c 0
 117.032872621 258.574596393 150.746615981 210.518972483 166.896999056 194.368589408 c 0
 175.51907602 185.746512444 192.795636331 172.557513027 221.536643008 172.557513027 c 0
 264.992413832 172.557513027 298.844999215 194.505820703 299.034491807 197.759646911 c 0
 299.975811732 213.923294339 300.43752321 229.206294681 300.43752321 244.648721408 c 0
 300.43752321 333.916529182 285.008824026 381.389885791 285.008824026 398.882987031 c 0
 285.008824026 418.863343584 305.136895245 438.991175974 329.975252226 438.991175974 c 0
 346.202288782 438.991175974 390.423659701 438.991175974 390.423659701 244.537424969 c 0
 390.423659701 241.820692235 389.947810754 76.8700277364 359.900176006 -25.4156902733 c 0
 342.63601414 -84.1849480565 302.938392412 -163.480373837 214.407588732 -163.480373837 c 0
 143.925203953 -163.480373837 101.008824026 -106.148756705 101.008824026 -74.6759389072 c 0
 101.008824026 -51.1366564157 121.136895245 -31.0088240257 144.770629519 -31.0088240257 c 0
 190.30147949 -31.0088240257 180.234898067 -73.4030341752 214.015863513 -73.4030341752 c 0
 266.552026694 -73.4030341752 283.487545846 32.1171112982 290.713394058 93.6819247409 c 1
 270.080981214 87.1330770539 246.890786519 82.560731821 222.147800765 82.560731821 c 0
 84.5761648545 82.560731821 27.0361972611 232.896468786 27.0361972611 306.961760085 c 0
 27.0361972611 364.163923477 56.2355509287 472.991175974 107.525146581 472.991175974 c 0
 132.863343584 472.991175974 152.991175974 452.863104755 152.991175974 428.048105677 c 0
  Spiro
    300.438 244.448 o
    296.444 320.12 o
    289.002 369.541 o
    285.009 394 o
    291.136 416.695 o
    307.305 432.864 o
    330 438.991 o
    349.876 434.378 o
    365.334 421.875 o
    373.953 403.641 o
    383.315 350.859 o
    388.706 297.63 o
    390.424 244.537 o
    390.253 227.46 o
    389.745 210.365 o
    388.915 193.365 o
    383.797 118.675 o
    374.453 42.1009 o
    357.162 -34.7366 o
    338.612 -81.2024 o
    308.27 -123.159 o
    263.47 -153.478 o
    247.599 -158.958 o
    231.028 -162.335 o
    214.11 -163.48 o
    190.22 -161.121 o
    160.08 -150.887 o
    128.651 -128.168 o
    118.561 -116.776 o
    106.697 -98.143 o
    101.009 -76 o
    107.136 -53.3052 o
    123.305 -37.1363 o
    146 -31.0088 o
    155.778 -32.1888 o
    171.811 -39.062 o
    186.588 -56.5488 o
    190.23 -62.2099 o
    199.066 -69.6894 o
    214.058 -73.403 o
    231.412 -69.1889 o
    251.998 -50.6732 o
    270.838 -9.26338 o
    279.337 24.0535 o
    285.849 58.4761 o
    290.713 93.6819 v
    269.296 87.893 o
    246.374 83.9859 o
    222.357 82.5607 o
    156.678 95.0379 o
    100.964 133.167 o
    55.9109 197.539 o
    39.1264 236.721 o
    29.8607 273.11 o
    27.0362 307.666 o
    29.8959 343.489 o
    42.1555 392.549 o
    69.1918 450.797 o
    75.052 458.56 o
    87.791 468.255 o
    108 472.991 o
    130.695 466.864 o
    146.864 450.695 o
    152.991 428 o
    152.306 420.148 o
    150.24 412.468 o
    146.808 405.203 o
    134.577 381.468 o
    122.48 347.497 o
    117.033 307.619 o
    126.296 260.153 o
    146.34 220.448 o
    165.302 195.964 o
    178.045 185.365 o
    196.677 176.348 o
    222.216 172.558 o
    238.785 173.844 o
    265.226 180.055 o
    298.852 194.646 o
    298.93 195.974 o
    299.008 197.306 o
    299.085 198.635 o
    299.831 213.905 o
    300.285 229.209 o
    0 0 z
  EndSpiro
EndSplineSet
Validated: 1
EndChar
StartChar: braceleft
Encoding: 123 123 91
Width: 500
InSpiro: 1
Flags: W
HStem: -105.058 90.0743<295.91 408.928> 239.009 103.79<72.9392 145.84> 678.884 90.1076<333.939 427.907>
VStem: 166.596 90.0244<374.05 552.09> 181.132 89.9851<10.7266 247.297>
LayerCount: 2
Back
Fore
SplineSet
147.888125974 252.000827163 m 1xe8
 103.513129697 239.008824026 103.513129697 239.008824026 97.9694303441 239.008824026 c 0
 73.1366564157 239.008824026 53.0088240257 259.136895245 53.0088240257 283.976519678 c 0
 53.0088240257 327.195900883 113.601244383 341.440133232 127.985246959 342.798866798 c 0
 142.699270888 344.188774656 159.110389027 348.887215892 180.247218278 354.585871071 c 1
 171.010070834 374.791783498 166.595778471 397.436357936 166.595778471 424.607322314 c 0
 166.595778471 460.757720137 174.409845804 501.105882674 188.129032948 563.597349158 c 0
 196.075240443 599.792653888 215.921573842 688.598411434 293.576225626 738.370075919 c 0
 299.292723994 742.033985708 342.95266933 768.991175974 390.006492549 768.991175974 c 0
 414.863343584 768.991175974 434.991175974 748.863104755 434.991175974 724.011270292 c 0
 434.991175974 700.075680601 416.320142138 680.39383622 388.984162932 678.883566336 c 0
 304.554048788 674.218935237 282.51344982 573.823092741 271.040190207 521.561919319 c 0
 258.826941206 465.930063539 256.620209581 442.130391143 256.620209581 426.65715714 c 0xf0
 256.620209581 400.455368738 262.947957975 379.63019465 281.538954473 372.254228808 c 0
 285.53963294 370.666962213 310.991175974 359.720952845 310.991175974 330.783830571 c 0
 310.991175974 294.999490462 281.807847607 287.698207871 251.39986184 280.090532203 c 1
 274.271643289 243.722543711 277.042860622 203.959608412 277.042860622 179.691293513 c 0
 277.042860622 144.203045844 271.116876899 110.782345628 271.116876899 81.8578233185 c 0
 271.116876899 3.10828628113 315.043122176 -14.9832447543 342.462087901 -14.9832447543 c 0
 358.218644342 -14.9832447543 361.79468564 -9.00882402568 375.573112166 -9.00882402568 c 0
 400.863343584 -9.00882402568 420.991175974 -29.1368952449 420.991175974 -53.9791124899 c 0
 420.991175974 -87.7382932414 387.335564746 -105.057546177 341.075644562 -105.057546177 c 0
 268.589878844 -105.057546177 181.131796214 -50.0742620576 181.131796214 81.7082953912 c 0
 181.131796214 116.642579083 187.055732423 150.035727622 187.055732423 177.34655343 c 0
 187.055732423 200.715360153 182.718489151 245.316129726 147.888125974 252.000827163 c 1xe8
  Spiro
    180.247 354.586 v
    172.609 375.602 o
    168.079 398.427 o
    166.596 423.04 o
    169.041 461.935 o
    175.786 504.752 o
    185.864 553.278 o
    201.063 610.821 o
    233.565 678.739 o
    293.959 738.615 o
    323.141 753.989 o
    354.621 764.222 o
    387.499 768.922 o
    388.332 768.96 o
    389.167 768.984 o
    390 768.991 o
    412.695 762.864 o
    428.864 746.695 o
    434.991 724 o
    429.279 702.032 o
    414.084 685.981 o
    392.501 679.078 o
    367.763 674.542 o
    335.834 658.145 o
    304.569 622.802 o
    291.831 596.708 o
    281.854 566.781 o
    273.743 533.874 o
    262.682 479.263 o
    257.742 445.419 o
    256.62 424.001 o
    258.985 401.764 o
    267.152 383.572 o
    282.634 371.82 o
    291.265 367.079 o
    304.297 353.777 o
    310.991 330 o
    306.511 310.397 o
    294.346 295.043 o
    276.557 286.257 o
    268.173 284.23 o
    259.771 282.171 o
    251.4 280.091 v
    268.202 243.315 o
    275.481 208.292 o
    277.043 179.353 o
    275.509 144.913 o
    272.651 112.128 o
    271.117 81.7941 o
    283.441 21.7752 o
    311.35 -7.39533 o
    340.909 -14.9832 o
    354.532 -13.437 o
    364.445 -10.5551 o
    376 -9.00882 o
    398.695 -15.1364 o
    414.864 -31.3054 o
    420.991 -54 o
    417.165 -72.1908 o
    406.693 -86.9132 o
    391.213 -96.3559 o
    374.724 -101.197 o
    357.839 -104.098 o
    340.842 -105.058 o
    310.599 -101.986 o
    272.725 -88.8317 o
    233 -59.8428 o
    205.45 -23.3641 o
    187.504 23.4607 o
    181.132 81.4557 o
    182.665 115.91 o
    185.523 148.663 o
    187.056 178.914 o
    184.647 206.036 o
    173.505 234.951 o
    147.888 252.001 v
    135.689 248.398 o
    123.47 244.727 o
    111.305 241.009 o
    106.935 239.899 o
    102.479 239.231 o
    98 239.009 o
    75.3052 245.136 o
    59.1363 261.305 o
    53.0088 284 o
    55.4215 298.576 o
    62.212 311.286 o
    72.6271 321.173 o
    92.5405 332.221 o
    114.094 339.374 o
    136.604 342.439 o
    145.919 345.096 o
    160.91 349.298 o
    0 0 z
  EndSpiro
EndSplineSet
Validated: 1
EndChar
StartChar: braceright
Encoding: 125 125 92
Width: 500
InSpiro: 1
Flags: W
HStem: 215.231 98.8315<369.575 443.34> 636.876 89.9969<81.7547 165.825>
VStem: 243.56 89.9937<-37.1188 215.334> 254.3 89.8832<-29.6267 220.615>
LayerCount: 2
Fore
SplineSet
331.619140625 323.259765625 m 1xe0
 353.010742188 318.610351562 369.633789062 314.725585938 384.397938098 314.06258627 c 0
 398.836022977 313.414228857 460.05191924 302.173306565 462.182574 259.007819385 c 0
 462.22080197 258.233349041 462.212003364 198.904499901 398.180597048 215.23106914 c 0
 393.736328125 216.364257812 381.375976562 219.422851562 368.995117188 222.39453125 c 1
 334.53515625 214.000976562 332.40234375 169.241210938 333.553626631 145.903531783 c 0xe0
 334.899414062 118.623046875 342.461914062 85.5615234375 344.183535845 50.668865869 c 0
 354.968512411 -167.913692701 115.43537196 -180.445742578 111.302263163 -96.6730134304 c 0
 110.078125 -71.861328125 129.189453125 -50.765625 154.448298806 -49.5190550094 c 0
 168.2109375 -48.83984375 172.077148438 -54.6318359375 187.814968296 -53.8552448448 c 0
 215.200195312 -52.50390625 258.180664062 -32.2685546875 254.300367295 46.3829824414 c 0xd0
 252.875 75.2744140625 245.30859375 108.362304688 243.559913556 143.809763203 c 0
 242.364257812 168.046875 243.172851562 207.897460938 264.224609375 245.348632812 c 1
 233.468254605 251.452378958 203.97060801 257.306328428 202.207288389 293.043673866 c 0
 200.78125 321.9453125 225.661132812 334.131835938 229.579573849 335.914628017 c 0
 265.980108438 352.475955375 251.052630556 418.068115365 232.70991767 485.550787665 c 0
 218.675071948 537.184856225 191.712659076 636.379325638 107.151561974 636.87624146 c 0
 42.5450811726 637.25589574 45.1941038086 727.2239533 105.015315506 726.873135707 c 0
 164.428303308 726.524712116 267.689005099 699.961435465 313.452233443 531.605905859 c 0
 337.615243486 442.714092498 353.737382822 378.718082438 331.619140625 323.259765625 c 1xe0
  Spiro
    351.193 318.931 o
    366.374 315.473 o
    375.807 313.278 o
    398.442 311.326 o
    420.321 305.244 o
    440.755 295.191 o
    451.645 285.829 o
    459.053 273.469 o
    462.181 259.03 o
    457.18 236.061 o
    441.827 219.115 o
    419.462 211.876 o
    414.978 211.877 o
    410.495 212.325 o
    406.075 213.218 o
    393.741 216.332 o
    381.356 219.397 o
    368.994 222.394 v
    344.248 204.103 o
    334.545 174.674 o
    333.476 147.466 o
    336.498 117.327 o
    340.967 84.7549 o
    344.196 50.4178 o
    340.69 -7.82078 o
    325.073 -55.4731 o
    299.354 -93.2652 o
    261.106 -124.177 o
    223.926 -139.181 o
    193.871 -143.74 o
    176.848 -143.619 o
    159.84 -141.553 o
    143.133 -137.531 o
    127.206 -128.863 o
    116.022 -114.674 o
    111.304 -96.6941 o
    116.305 -73.7251 o
    131.658 -56.7789 o
    154.023 -49.5403 o
    165.64 -50.5153 o
    175.683 -52.9051 o
    189.365 -53.7781 o
    218.515 -44.7427 o
    244.952 -14.2322 o
    254.304 46.3211 o
    251.277 76.5426 o
    246.806 109.147 o
    243.577 143.469 o
    243.711 172.45 o
    249.255 207.789 o
    264.224 245.348 v
    255.761 247.013 o
    247.267 248.656 o
    238.793 250.267 o
    220.593 258.166 o
    207.686 272.901 o
    202.246 292.26 o
    207.76 316.338 o
    220.121 330.266 o
    228.507 335.427 o
    243.391 347.928 o
    250.652 366.5 o
    251.918 388.827 o
    249.742 410.164 o
    243.14 443.722 o
    229.401 497.722 o
    219.678 530.189 o
    208.238 559.589 o
    194.23 585.023 o
    161.261 618.783 o
    128.562 633.586 o
    103.632 636.897 o
    81.7343 642.728 o
    65.7666 658.011 o
    58.9791 679.671 o
    63.9807 702.64 o
    79.3331 719.586 o
    101.698 726.824 o
    102.531 726.858 o
    103.366 726.876 o
    104.199 726.879 o
    137.269 723.804 o
    169.216 715.136 o
    199.12 701.218 o
    262.391 644.391 o
    298.201 578.158 o
    316.217 521.434 o
    328.674 473.463 o
    337.521 431.03 o
    341.88 392.304 o
    341.611 367.647 o
    338.213 344.627 o
    331.619 323.26 v
    0 0 z
  EndSpiro
EndSplineSet
Validated: 33
EndChar
StartChar: asciitilde
Encoding: 126 126 93
Width: 500
InSpiro: 1
Flags: W
HStem: 281.009 193.982<334.949 421.337> 351.009 196.56<51.9368 199.428>
LayerCount: 2
Back
Fore
SplineSet
179.711681062 453.304956456 m 1x80
 124.295819274 430.492853975 95.7701899131 351.008824026 51.9367962459 351.008824026 c 0
 27.1366564157 351.008824026 7.00882402568 371.136895245 7.00882402568 395.936971319 c 0
 7.00882402568 407.480463557 11.3696164214 418.960927114 24.9360702787 432.602130379 c 0
 35.1621081988 442.884512446 53.2918266919 465.145690672 73.9154674555 485.769331436 c 0
 102.212731313 514.066595293 143.492760557 547.568735507 199.428427244 547.568735507 c 0x40
 211.245167673 547.568735507 240.176382038 547.568735507 256.956152293 505.871751309 c 0
 264.20454705 487.859812108 274.689467519 448.39005634 289.386715215 418.310471627 c 0
 308.101341206 380.00886649 325.283727859 374.046492009 333.237714024 371.929193143 c 1
 342.304399675 376.881249149 353.059211134 394.703405648 364.307713024 413.343673011 c 1
 381.332202369 449.284261629 l 2
 383.107864292 453.032881244 394.675402336 474.991175974 421.337019965 474.991175974 c 0
 446.863343584 474.991175974 466.991175974 454.863104755 466.991175974 430.041889571 c 0
 466.991175974 416.681635548 417.409461312 281.008824026 334.948936346 281.008824026 c 0
 320.39299456 281.008824026 253.696617551 286.308316431 208.089158068 379.649156119 c 0
 197.92490337 400.451456425 191.627187779 418.248645959 179.711681062 453.304956456 c 1x80
  Spiro
    422 474.991 o
    444.695 468.864 o
    460.864 452.695 o
    466.991 430 o
    466.512 423.426 o
    465.068 416.947 o
    462.668 410.716 o
    449.213 382.393 o
    443.029 369.905 o
    438.865 362.652 o
    417.144 329.595 o
    384.94 298.187 o
    338.584 281.241 o
    337.06 281.112 o
    335.528 281.035 o
    334 281.009 o
    320.073 282.69 o
    287.536 293.405 o
    247.788 321.542 o
    232.047 339.666 o
    219.172 358.912 o
    208.609 378.585 o
    199.025 399.863 o
    190.116 423.238 o
    179.712 453.305 v
    155.792 438.588 o
    132.452 416.932 o
    110.001 392.456 o
    96.5219 377.523 o
    88.7454 369.193 o
    83.8198 364.18 o
    74.2378 356.869 o
    63.4068 352.469 o
    52 351.009 o
    29.3052 357.136 o
    13.1363 373.305 o
    7.00882 396 o
    8.45952 407.369 o
    12.829 418.168 o
    20.0912 427.731 o
    36.1266 444.894 o
    54.0255 464.807 o
    73.4524 485.306 o
    106.428 514.203 o
    148.345 537.836 o
    199.428 547.569 o
    215.653 546.508 o
    235.683 539.043 o
    251.739 518.837 o
    263.765 485.719 o
    275.903 450.769 o
    289.476 418.129 o
    307.315 389.699 o
    322.509 376.369 o
    333.238 371.929 v
    342.813 380.713 o
    353.279 395.439 o
    364.308 413.344 [
    381.332 449.284 ]
    386.584 457.604 o
    399.724 469.17 o
    0 0 z
  EndSpiro
EndSplineSet
Validated: 1
EndChar
StartChar: uni0401
Encoding: 1025 1025 114
Width: 500
InSpiro: 1
Flags: HW
HStem: 7.7002 89.7998<113.686 403.788> 289 90<138.3 382.476> 298.3 87.7998<138.373 394.753> 515.5 90.0996<122.846 387.692> 528.9 84.5<122.846 242.977 245.736 400.41> 660.5 92.0996<259.955 342.394>
VStem: 99.9004 87.0996<667.871 736.565>
LayerCount: 2
Fore
SplineSet
310 768 m 1
 322 763 l 1
 326 762 l 1
 329 761 l 1
 336 758 l 1
 354 743 l 1
 368 714 l 1
 362 677 l 1
 339 654 l 1
 318 645 l 1
 300 645 l 1
 291 646 l 1
 282 650 l 1
 278 651 l 1
 274 653 l 1
 265 656 l 1
 247 671 l 1
 233 700 l 1
 239 737 l 1
 262 760 l 1
 283 769 l 1
 301 769 l 1
 310 768 l 1
  Spiro
    310 768 v
    322 763 v
    326 762 v
    329 761 v
    336 758 v
    354 743 v
    368 714 v
    362 677 v
    339 654 v
    318 645 v
    300 645 v
    291 646 v
    282 650 v
    278 651 v
    274 653 v
    265 656 v
    247 671 v
    233 700 v
    239 737 v
    262 760 v
    283 769 v
    301 769 v
    0 0 z
  EndSpiro
190 757 m 1
 201 734 l 1
 204 721 l 1
 204 696 l 1
 201 683 l 1
 190 660 l 1
 161 643 l 1
 127 643 l 1
 98 660 l 1
 87 683 l 1
 84 696 l 1
 84 721 l 1
 87 734 l 1
 98 757 l 1
 127 774 l 1
 161 774 l 1
 190 757 l 1
  Spiro
    190 757 v
    201 734 v
    204 721 v
    204 696 v
    201 683 v
    190 660 v
    161 643 v
    127 643 v
    98 660 v
    87 683 v
    84 696 v
    84 721 v
    87 734 v
    98 757 v
    127 774 v
    161 774 v
    0 0 z
  EndSpiro
147 633 m 1
 148 633 l 1
 221 626 l 1
 282 626 l 1
 363 635 l 1
 380 632 l 1
 405 620 l 1
 422 591 l 1
 422 561 l 1
 413 540 l 1
 396 523 l 1
 375 514 l 1
 369 514 l 1
 294 505 l 1
 290 505 l 1
 213 506 l 1
 211 506 l 1
 136 513 l 1
 134 514 l 1
 56 525 l 1
 47 528 l 1
 26 538 l 1
 9 567 l 1
 9 601 l 1
 26 630 l 1
 51 642 l 1
 69 645 l 1
 147 633 l 1
  Spiro
    147 633 v
    148 633 v
    221 626 v
    282 626 v
    363 635 v
    380 632 v
    405 620 v
    422 591 v
    422 561 v
    413 540 v
    396 523 v
    375 514 v
    369 514 v
    294 505 v
    290 505 v
    213 506 v
    211 506 v
    136 513 v
    134 514 v
    56 525 v
    47 528 v
    26 538 v
    9 567 v
    9 601 v
    26 630 v
    51 642 v
    69 645 v
    0 0 z
  EndSpiro
363 402 m 1
 362 402 l 1
 362 402 l 1
 369 401 l 1
 377 401 l 1
 392 397 l 1
 415 382 l 1
 429 351 l 1
 424 317 l 1
 405 292 l 1
 384 284 l 1
 369 281 l 1
 355 282 l 1
 324 286 l 1
 261 289 l 1
 230 286 l 1
 196 281 l 1
 162 277 l 1
 119 276 l 1
 79 276 l 1
 58 285 l 1
 38 308 l 1
 33 342 l 1
 45 373 l 1
 67 389 l 1
 81 394 l 1
 140 397 l 1
 209 404 l 1
 218 405 l 1
 283 410 l 1
 293 410 l 1
 294 410 l 1
 363 402 l 1
  Spiro
    362 402 v
    362 402 v
    369 401 v
    377 401 v
    392 397 v
    415 382 v
    429 351 v
    424 317 v
    405 292 v
    384 284 v
    369 281 v
    355 282 v
    324 286 v
    261 289 v
    230 286 v
    196 281 v
    162 277 v
    119 276 v
    79 276 v
    58 285 v
    38 308 v
    33 342 v
    45 373 v
    67 389 v
    81 394 v
    140 397 v
    209 404 v
    218 405 v
    283 410 v
    293 410 v
    294 410 v
    363 402 v
    0 0 z
  EndSpiro
115 636 m 1
 115 636 l 1
 125 614 l 1
 129 595 l 1
 141 488 l 1
 149 400 l 1
 149 379 l 1
 153 297 l 1
 152 270 l 1
 150 192 l 1
 147 173 l 1
 137 122 l 1
 142 96 l 1
 179 103 l 1
 205 107 l 1
 228 110 l 1
 272 113 l 1
 310 112 l 1
 327 111 l 1
 345 108 l 1
 357 106 l 1
 363 106 l 1
 395 97 l 1
 417 88 l 1
 431 75 l 1
 442 55 l 1
 444 25 l 1
 429 -5 l 1
 406 -18 l 1
 391 -22 l 1
 379 -23 l 1
 379 -23 l 1
 378 -22 l 1
 368 -21 l 1
 334 -11 l 1
 314 -8 l 1
 309 -7 l 1
 280 -7 l 1
 254 -8 l 1
 221 -11 l 1
 209 -13 l 1
 168 -21 l 1
 137 -27 l 1
 114 -27 l 1
 71 -24 l 1
 54 -15 l 1
 39 -1 l 1
 27 9 l 1
 22 15 l 1
 12 32 l 1
 9 78 l 1
 10 104 l 1
 19 144 l 1
 28 192 l 1
 32 271 l 1
 29 369 l 1
 21 470 l 1
 9 578 l 1
 10 609 l 1
 21 634 l 1
 50 652 l 1
 84 653 l 1
 86 653 l 1
 115 636 l 1
  Spiro
    115 636 v
    115 636 v
    125 614 v
    129 595 v
    141 488 v
    149 400 v
    149 379 v
    153 297 v
    152 270 v
    150 192 v
    147 173 v
    137 122 v
    142 96 v
    179 103 v
    205 107 v
    228 110 v
    272 113 v
    310 112 v
    327 111 v
    345 108 v
    357 106 v
    363 106 v
    395 97 v
    417 88 v
    431 75 v
    442 55 v
    444 25 v
    429 -5 v
    406 -18 v
    391 -22 v
    379 -23 v
    379 -23 v
    378 -22 v
    368 -21 v
    334 -11 v
    314 -8 v
    309 -7 v
    280 -7 v
    254 -8 v
    221 -11 v
    209 -13 v
    168 -21 v
    137 -27 v
    114 -27 v
    71 -24 v
    54 -15 v
    39 -1 v
    27 9 v
    22 15 v
    12 32 v
    9 78 v
    10 104 v
    19 144 v
    28 192 v
    32 271 v
    29 369 v
    21 470 v
    9 578 v
    10 609 v
    21 634 v
    50 652 v
    84 653 v
    86 653 v
    0 0 z
  EndSpiro
EndSplineSet
EndChar
